<?xml version="1.0" encoding="UTF-8"?>
<!DOCTYPE svg PUBLIC "-//W3C//DTD SVG 1.1//EN" "http://www.w3.org/Graphics/SVG/1.1/DTD/svg11.dtd">
<svg xmlns="http://www.w3.org/2000/svg" version="1.1" width="149px" height="122px" style="shape-rendering:geometricPrecision; text-rendering:geometricPrecision; image-rendering:optimizeQuality; fill-rule:evenodd; clip-rule:evenodd" xmlns:xlink="http://www.w3.org/1999/xlink">
<g><path style="opacity:1" fill="#f7aa58" d="M 67.5,9.5 C 63.767,11.411 59.767,12.7444 55.5,13.5C 59.0845,11.1939 63.0845,9.8606 67.5,9.5 Z"/></g>
<g><path style="opacity:1" fill="#f18714" d="M 90.5,10.5 C 91.5521,12.256 93.2188,12.9227 95.5,12.5C 102.281,14.9523 107.948,18.9523 112.5,24.5C 112.427,26.0269 113.094,27.0269 114.5,27.5C 117.502,30.1612 119.502,33.4945 120.5,37.5C 120.259,39.8984 120.926,41.8984 122.5,43.5C 125.197,53.3984 125.03,63.3984 122,73.5C 120.311,77.5599 118.144,81.2266 115.5,84.5C 114.094,84.9731 113.427,85.9731 113.5,87.5C 111.12,90.8805 108.12,93.5472 104.5,95.5C 102.973,95.427 101.973,96.0937 101.5,97.5C 99.1515,99.341 96.4848,100.674 93.5,101.5C 83.2406,103.718 72.9073,104.051 62.5,102.5C 61.3646,100.787 59.698,100.12 57.5,100.5C 55.1815,100.008 53.1815,99.0075 51.5,97.5C 50.7377,95.7376 49.4044,94.7376 47.5,94.5C 44.8333,91.1667 41.8333,88.1667 38.5,85.5C 38.4456,83.368 37.4456,82.0347 35.5,81.5C 29.0057,71.0218 27.0057,59.6885 29.5,47.5C 30.9238,45.4855 31.5905,43.1522 31.5,40.5C 32.6396,34.8789 35.3063,30.2123 39.5,26.5C 40.9063,26.0269 41.573,25.0269 41.5,23.5C 43.7488,22.9202 45.4154,21.5869 46.5,19.5C 47.2623,17.7376 48.5956,16.7376 50.5,16.5C 52.8477,16.4077 54.5144,15.4077 55.5,13.5C 59.767,12.7444 63.767,11.411 67.5,9.5C 75.1456,8.0161 82.8123,8.34944 90.5,10.5 Z M 75.5,35.5 C 76.609,35.5569 77.609,35.8902 78.5,36.5C 78.1771,42.69 78.5104,48.69 79.5,54.5C 85.7355,54.8526 91.7355,55.8526 97.5,57.5C 91.1667,57.5 84.8333,57.5 78.5,57.5C 78.5,63.8333 78.5,70.1667 78.5,76.5C 77.609,77.1098 76.609,77.4431 75.5,77.5C 74.5399,70.9221 74.2066,64.2554 74.5,57.5C 49.1667,56.8333 49.1667,56.1667 74.5,55.5C 74.2441,48.7756 74.5774,42.109 75.5,35.5 Z"/></g>
<g><path style="opacity:1" fill="#fbb46e" d="M 90.5,10.5 C 92.5529,10.4021 94.2196,11.0687 95.5,12.5C 93.2188,12.9227 91.5521,12.256 90.5,10.5 Z"/></g>
<g><path style="opacity:0.957" fill="#f9b065" d="M 55.5,13.5 C 54.5144,15.4077 52.8477,16.4077 50.5,16.5C 51.6594,14.7497 53.326,13.7497 55.5,13.5 Z"/></g>
<g><path style="opacity:0.012" fill="#fcf2e4" d="M 36.5,22.5 C 37.8333,23.1667 37.8333,23.1667 36.5,22.5 Z"/></g>
<g><path style="opacity:0.843" fill="#fcbf7f" d="M 46.5,19.5 C 45.4154,21.5869 43.7488,22.9202 41.5,23.5C 42.5846,21.4131 44.2512,20.0798 46.5,19.5 Z"/></g>
<g><path style="opacity:0.024" fill="#fcf1e3" d="M 36.5,23.5 C 35.8333,24.1667 35.8333,24.1667 36.5,23.5 Z"/></g>
<g><path style="opacity:0.784" fill="#fecc9a" d="M 41.5,23.5 C 41.573,25.0269 40.9063,26.0269 39.5,26.5C 39.427,24.9731 40.0937,23.9731 41.5,23.5 Z"/></g>
<g><path style="opacity:0.018" fill="#fdf6ed" d="M 35.5,24.5 C 35.573,26.0269 34.9063,27.0269 33.5,27.5C 33.427,25.9731 34.0937,24.9731 35.5,24.5 Z"/></g>
<g><path style="opacity:0.835" fill="#fdc68d" d="M 112.5,24.5 C 113.906,24.9731 114.573,25.9731 114.5,27.5C 113.094,27.0269 112.427,26.0269 112.5,24.5 Z"/></g>
<g><path style="opacity:0.039" fill="#fdf6ed" d="M 33.5,27.5 C 33.573,29.0269 32.9063,30.0269 31.5,30.5C 31.427,28.9731 32.0937,27.9731 33.5,27.5 Z"/></g>
<g><path style="opacity:0.031" fill="#fdf3e8" d="M 31.5,30.5 C 31.631,31.2389 31.4643,31.9056 31,32.5C 30.3083,31.5632 30.475,30.8966 31.5,30.5 Z"/></g>
<g><path style="opacity:0.063" fill="#fef0e0" d="M 75.5,35.5 C 76.5,34.1667 77.5,34.1667 78.5,35.5C 78.5,35.8333 78.5,36.1667 78.5,36.5C 77.609,35.8902 76.609,35.5569 75.5,35.5 Z"/></g>
<g><path style="opacity:1" fill="#fab168" d="M 120.5,37.5 C 122.074,39.1016 122.741,41.1016 122.5,43.5C 120.926,41.8984 120.259,39.8984 120.5,37.5 Z"/></g>
<g><path style="opacity:0.608" fill="#fbc994" d="M 31.5,40.5 C 31.5905,43.1522 30.9238,45.4855 29.5,47.5C 29.4095,44.8478 30.0762,42.5145 31.5,40.5 Z"/></g>
<g><path style="opacity:0.796" fill="#f4a74d" d="M 78.5,35.5 C 79.4896,41.31 79.8229,47.31 79.5,53.5C 85.69,53.1771 91.69,53.5104 97.5,54.5C 91.5,54.5 85.5,54.5 79.5,54.5C 78.5104,48.69 78.1771,42.69 78.5,36.5C 78.5,36.1667 78.5,35.8333 78.5,35.5 Z"/></g>
<g><path style="opacity:0.035" fill="#fef8f1" d="M 79.5,54.5 C 85.5,54.5 91.5,54.5 97.5,54.5C 98.8333,55.5 98.8333,56.5 97.5,57.5C 91.7355,55.8526 85.7355,54.8526 79.5,54.5 Z"/></g>
<g><path style="opacity:0.663" fill="#fdd2a6" d="M 78.5,76.5 C 77.9473,78.5518 76.9473,78.8852 75.5,77.5C 76.609,77.4431 77.609,77.1098 78.5,76.5 Z"/></g>
<g><path style="opacity:0.965" fill="#ffc995" d="M 35.5,81.5 C 37.4456,82.0347 38.4456,83.368 38.5,85.5C 37.0256,84.5637 36.0256,83.2303 35.5,81.5 Z"/></g>
<g><path style="opacity:0.008" fill="#feeedc" d="M 115.5,84.5 C 115.573,86.0269 114.906,87.0269 113.5,87.5C 113.427,85.9731 114.094,84.9731 115.5,84.5 Z"/></g>
<g><path style="opacity:0.004" fill="#fee4c8" d="M 38.5,85.5 C 41.8333,88.1667 44.8333,91.1667 47.5,94.5C 43.5,92.5 40.5,89.5 38.5,85.5 Z"/></g>
<g><path style="opacity:0.353" fill="#fddfc0" d="M 47.5,94.5 C 49.4044,94.7376 50.7377,95.7376 51.5,97.5C 49.5956,97.2624 48.2623,96.2624 47.5,94.5 Z"/></g>
<g><path style="opacity:0.012" fill="#fef0e0" d="M 104.5,95.5 C 104.027,96.9063 103.027,97.573 101.5,97.5C 101.973,96.0937 102.973,95.427 104.5,95.5 Z"/></g>
<g><path style="opacity:0.906" fill="#ffce9e" d="M 57.5,100.5 C 59.698,100.12 61.3646,100.787 62.5,102.5C 60.4471,102.598 58.7804,101.931 57.5,100.5 Z"/></g>
<g><path style="opacity:0.522" fill="#fde2c5" d="M 93.5,101.5 C 83.2748,106.153 72.9415,106.486 62.5,102.5C 72.9073,104.051 83.2406,103.718 93.5,101.5 Z"/></g>
</svg>
