<?xml version="1.0" encoding="UTF-8"?>
<!DOCTYPE svg PUBLIC "-//W3C//DTD SVG 1.1//EN" "http://www.w3.org/Graphics/SVG/1.1/DTD/svg11.dtd">
<svg xmlns="http://www.w3.org/2000/svg" version="1.1" width="169px" height="169px" style="shape-rendering:geometricPrecision; text-rendering:geometricPrecision; image-rendering:optimizeQuality; fill-rule:evenodd; clip-rule:evenodd" xmlns:xlink="http://www.w3.org/1999/xlink">
<g><path style="opacity:0.349" fill="#f1f1f1" d="M 71.5,0.5 C 71.5,0.166667 71.5,-0.166667 71.5,-0.5C 79.8333,-0.5 88.1667,-0.5 96.5,-0.5C 113.343,2.7298 128.343,9.89647 141.5,21C 145.692,24.5893 149.025,28.7559 151.5,33.5C 151.5,33.8333 151.5,34.1667 151.5,34.5C 130.874,9.38959 104.207,-1.94374 71.5,0.5 Z"/></g>
<g><path style="opacity:1" fill="#ececec" d="M 65.5,1.5 C 60.1818,4.25373 54.5151,6.25373 48.5,7.5C 53.6668,4.33172 59.3335,2.33172 65.5,1.5 Z"/></g>
<g><path style="opacity:0.78" fill="#f8f8f8" d="M 48.5,7.5 C 9.27927,30.2824 -5.22073,63.9491 5,108.5C 21.7151,149.61 52.2151,168.443 96.5,165C 127.154,159.351 148.654,142.184 161,113.5C 170.962,85.4146 167.796,59.0812 151.5,34.5C 151.5,34.1667 151.5,33.8333 151.5,33.5C 155.048,36.9059 157.882,40.9059 160,45.5C 163.775,53.9906 166.609,62.6573 168.5,71.5C 168.5,79.8333 168.5,88.1667 168.5,96.5C 160.167,136.167 136.167,160.167 96.5,168.5C 88.1667,168.5 79.8333,168.5 71.5,168.5C 31.8333,160.167 7.83333,136.167 -0.5,96.5C -0.5,88.1667 -0.5,79.8333 -0.5,71.5C 4.94858,43.2117 20.2819,22.0451 45.5,8C 46.448,7.51722 47.448,7.35055 48.5,7.5 Z"/></g>
<g><path style="opacity:1" fill="#bdbdbd" d="M 71.5,0.5 C 104.207,-1.94374 130.874,9.38959 151.5,34.5C 167.796,59.0812 170.962,85.4146 161,113.5C 148.654,142.184 127.154,159.351 96.5,165C 52.2151,168.443 21.7151,149.61 5,108.5C -5.22073,63.9491 9.27927,30.2824 48.5,7.5C 54.5151,6.25373 60.1818,4.25373 65.5,1.5C 67.2646,0.538616 69.2646,0.205283 71.5,0.5 Z"/></g>
<g><path style="opacity:1" fill="#fbfbfb" d="M 70.5,2.5 C 112.613,-0.816751 142.446,16.5166 160,54.5C 170.173,88.3406 163.007,117.841 138.5,143C 111.098,165.336 81.0978,169.669 48.5,156C 15.3775,137.262 0.544203,108.762 4,70.5C 11.9101,33.7578 34.0768,11.0911 70.5,2.5 Z"/></g>
<g><path style="opacity:1" fill="#c8c8c8" d="M 153.5,63.5 C 154.963,66.2026 155.796,69.2026 156,72.5C 156.818,78.3487 156.652,84.0154 155.5,89.5C 155.673,80.7595 155.006,72.0928 153.5,63.5 Z"/></g>
<g><path style="opacity:1" fill="#c2c2c2" d="M 151.5,57.5 C 153.074,59.1016 153.741,61.1016 153.5,63.5C 151.926,61.8984 151.259,59.8984 151.5,57.5 Z"/></g>
<g><path style="opacity:1" fill="#c2c2c2" d="M 16.5,57.5 C 16.7406,59.8984 16.0739,61.8984 14.5,63.5C 14.2594,61.1016 14.9261,59.1016 16.5,57.5 Z"/></g>
<g><path style="opacity:1" fill="#bfbfbf" d="M 147.5,49.5 C 148.906,49.9731 149.573,50.9731 149.5,52.5C 148.094,52.0269 147.427,51.0269 147.5,49.5 Z"/></g>
<g><path style="opacity:1" fill="#bfbfbf" d="M 20.5,49.5 C 20.573,51.0269 19.9063,52.0269 18.5,52.5C 18.427,50.9731 19.0937,49.9731 20.5,49.5 Z"/></g>
<g><path style="opacity:1" fill="#c6c6c6" d="M 22.5,45.5 C 22.573,47.0269 21.9063,48.0269 20.5,48.5C 20.427,46.9731 21.0937,45.9731 22.5,45.5 Z"/></g>
<g><path style="opacity:1" fill="#b7b7b7" d="M 144.5,44.5 C 146.262,45.2623 147.262,46.5956 147.5,48.5C 145.738,47.7377 144.738,46.4044 144.5,44.5 Z"/></g>
<g><path style="opacity:1" fill="#acacac" d="M 142.5,41.5 C 143.906,41.9731 144.573,42.9731 144.5,44.5C 143.094,44.0269 142.427,43.0269 142.5,41.5 Z"/></g>
<g><path style="opacity:1" fill="#b1b1b1" d="M 25.5,41.5 C 25.2624,43.4044 24.2624,44.7377 22.5,45.5C 22.7376,43.5956 23.7376,42.2623 25.5,41.5 Z"/></g>
<g><path style="opacity:1" fill="#afafaf" d="M 27.5,38.5 C 27.573,40.0269 26.9063,41.0269 25.5,41.5C 25.427,39.9731 26.0937,38.9731 27.5,38.5 Z"/></g>
<g><path style="opacity:1" fill="#acacac" d="M 139.5,37.5 C 141.262,38.2623 142.262,39.5956 142.5,41.5C 140.738,40.7377 139.738,39.4044 139.5,37.5 Z"/></g>
<g><path style="opacity:1" fill="#afafaf" d="M 37.5,28.5 C 35.1667,31.5 32.5,34.1667 29.5,36.5C 31.1667,32.8333 33.8333,30.1667 37.5,28.5 Z"/></g>
<g><path style="opacity:1" fill="#a8a8a8" d="M 43.5,23.5 C 42.0892,25.914 40.0892,27.5806 37.5,28.5C 38.9108,26.086 40.9108,24.4194 43.5,23.5 Z"/></g>
<g><path style="opacity:1" fill="#dcdcdc" d="M 126.5,24.5 C 128.027,24.427 129.027,25.0937 129.5,26.5C 127.973,26.573 126.973,25.9063 126.5,24.5 Z"/></g>
<g><path style="opacity:1" fill="#d3d3d3" d="M 123.5,22.5 C 125.027,22.427 126.027,23.0937 126.5,24.5C 124.973,24.573 123.973,23.9063 123.5,22.5 Z"/></g>
<g><path style="opacity:1" fill="#b6b6b6" d="M 46.5,21.5 C 46.0269,22.9063 45.0269,23.573 43.5,23.5C 43.9731,22.0937 44.9731,21.427 46.5,21.5 Z"/></g>
<g><path style="opacity:1" fill="#d3d3d3" d="M 120.5,20.5 C 122.027,20.427 123.027,21.0937 123.5,22.5C 121.973,22.573 120.973,21.9063 120.5,20.5 Z"/></g>
<g><path style="opacity:1" fill="#bdbdbd" d="M 49.5,19.5 C 49.0269,20.9063 48.0269,21.573 46.5,21.5C 46.9731,20.0937 47.9731,19.427 49.5,19.5 Z"/></g>
<g><path style="opacity:1" fill="#b5b5b5" d="M 53.5,17.5 C 53.0269,18.9063 52.0269,19.573 50.5,19.5C 50.9731,18.0937 51.9731,17.427 53.5,17.5 Z"/></g>
<g><path style="opacity:1" fill="#d8d8d8" d="M 109.5,15.5 C 111.483,15.1568 112.817,15.8235 113.5,17.5C 111.847,17.3404 110.514,16.6737 109.5,15.5 Z"/></g>
<g><path style="opacity:1" fill="#bbbbbb" d="M 64.5,13.5 C 61.9164,15.4725 58.9164,16.4725 55.5,16.5C 58.145,14.6896 61.145,13.6896 64.5,13.5 Z"/></g>
<g><path style="opacity:1" fill="#cacaca" d="M 99.5,12.5 C 102.152,12.4095 104.485,13.0762 106.5,14.5C 103.848,14.5905 101.515,13.9238 99.5,12.5 Z"/></g>
<g><path style="opacity:1" fill="#bdbdbd" d="M 71.5,11.5 C 69.8984,13.0739 67.8984,13.7406 65.5,13.5C 67.1016,11.9261 69.1016,11.2594 71.5,11.5 Z"/></g>
<g><path style="opacity:1" fill="#8f8f8f" d="M 71.5,11.5 C 80.8864,11.2201 90.2197,11.5534 99.5,12.5C 101.515,13.9238 103.848,14.5905 106.5,14.5C 107.391,15.1098 108.391,15.4431 109.5,15.5C 110.514,16.6737 111.847,17.3404 113.5,17.5C 115.687,18.758 118.02,19.758 120.5,20.5C 120.973,21.9063 121.973,22.573 123.5,22.5C 123.973,23.9063 124.973,24.573 126.5,24.5C 126.973,25.9063 127.973,26.573 129.5,26.5C 132.833,30.1667 136.167,33.8333 139.5,37.5C 139.738,39.4044 140.738,40.7377 142.5,41.5C 142.427,43.0269 143.094,44.0269 144.5,44.5C 144.738,46.4044 145.738,47.7377 147.5,48.5C 147.5,48.8333 147.5,49.1667 147.5,49.5C 147.427,51.0269 148.094,52.0269 149.5,52.5C 149.893,54.2838 150.559,55.9505 151.5,57.5C 151.259,59.8984 151.926,61.8984 153.5,63.5C 155.006,72.0928 155.673,80.7595 155.5,89.5C 154.754,95.9347 153.42,102.268 151.5,108.5C 150.326,109.514 149.66,110.847 149.5,112.5C 148.227,114.713 147.227,117.046 146.5,119.5C 145.094,119.973 144.427,120.973 144.5,122.5C 143.094,122.973 142.427,123.973 142.5,125.5C 141.094,125.973 140.427,126.973 140.5,128.5C 139.5,128.833 138.833,129.5 138.5,130.5C 135.167,133.167 132.167,136.167 129.5,139.5C 127.973,139.427 126.973,140.094 126.5,141.5C 124.973,141.427 123.973,142.094 123.5,143.5C 121.973,143.427 120.973,144.094 120.5,145.5C 118.181,145.992 116.181,146.992 114.5,148.5C 111.603,149.129 108.936,150.129 106.5,151.5C 102.298,152.132 98.2976,153.132 94.5,154.5C 85.4818,154.552 76.4818,154.218 67.5,153.5C 66.391,153.443 65.391,153.11 64.5,152.5C 62.8984,150.926 60.8984,150.259 58.5,150.5C 55.4079,149.315 52.4079,147.981 49.5,146.5C 49.0269,145.094 48.0269,144.427 46.5,144.5C 46.0269,143.094 45.0269,142.427 43.5,142.5C 42.7377,140.738 41.4044,139.738 39.5,139.5C 34.8483,136.514 30.8483,132.847 27.5,128.5C 27.2624,126.596 26.2624,125.262 24.5,124.5C 24.6716,123.508 24.3382,122.842 23.5,122.5C 23.573,120.973 22.9063,119.973 21.5,119.5C 20.7729,117.046 19.7729,114.713 18.5,112.5C 18.3404,110.847 17.6737,109.514 16.5,108.5C 15.8453,105.036 14.8453,101.703 13.5,98.5C 11.9622,86.7748 12.2955,75.1081 14.5,63.5C 16.0739,61.8984 16.7406,59.8984 16.5,57.5C 17.4408,55.9505 18.1075,54.2838 18.5,52.5C 19.9063,52.0269 20.573,51.0269 20.5,49.5C 20.5,49.1667 20.5,48.8333 20.5,48.5C 21.9063,48.0269 22.573,47.0269 22.5,45.5C 24.2624,44.7377 25.2624,43.4044 25.5,41.5C 26.9063,41.0269 27.573,40.0269 27.5,38.5C 27.8333,37.5 28.5,36.8333 29.5,36.5C 32.5,34.1667 35.1667,31.5 37.5,28.5C 40.0892,27.5806 42.0892,25.914 43.5,23.5C 45.0269,23.573 46.0269,22.9063 46.5,21.5C 48.0269,21.573 49.0269,20.9063 49.5,19.5C 49.8333,19.5 50.1667,19.5 50.5,19.5C 52.0269,19.573 53.0269,18.9063 53.5,17.5C 54.4916,17.6716 55.1583,17.3382 55.5,16.5C 58.9164,16.4725 61.9164,15.4725 64.5,13.5C 64.8333,13.5 65.1667,13.5 65.5,13.5C 67.8984,13.7406 69.8984,13.0739 71.5,11.5 Z"/></g>
<g><path style="opacity:1" fill="#c7c7c7" d="M 14.5,63.5 C 12.2955,75.1081 11.9622,86.7748 13.5,98.5C 12.0349,93.41 11.3682,88.0767 11.5,82.5C 11.1366,75.8114 12.1366,69.4781 14.5,63.5 Z"/></g>
<g><path style="opacity:1" fill="#d7d7d7" d="M 16.5,108.5 C 17.6737,109.514 18.3404,110.847 18.5,112.5C 16.8235,111.817 16.1568,110.483 16.5,108.5 Z"/></g>
<g><path style="opacity:1" fill="#d7d7d7" d="M 151.5,108.5 C 151.843,110.483 151.176,111.817 149.5,112.5C 149.66,110.847 150.326,109.514 151.5,108.5 Z"/></g>
<g><path style="opacity:1" fill="#d1d1d1" d="M 21.5,119.5 C 22.9063,119.973 23.573,120.973 23.5,122.5C 22.0937,122.027 21.427,121.027 21.5,119.5 Z"/></g>
<g><path style="opacity:1" fill="#d1d1d1" d="M 146.5,119.5 C 146.573,121.027 145.906,122.027 144.5,122.5C 144.427,120.973 145.094,119.973 146.5,119.5 Z"/></g>
<g><path style="opacity:1" fill="#d1d1d1" d="M 144.5,122.5 C 144.573,124.027 143.906,125.027 142.5,125.5C 142.427,123.973 143.094,122.973 144.5,122.5 Z"/></g>
<g><path style="opacity:1" fill="#dddddd" d="M 24.5,124.5 C 26.2624,125.262 27.2624,126.596 27.5,128.5C 25.7376,127.738 24.7376,126.404 24.5,124.5 Z"/></g>
<g><path style="opacity:1" fill="#d9d9d9" d="M 142.5,125.5 C 142.573,127.027 141.906,128.027 140.5,128.5C 140.427,126.973 141.094,125.973 142.5,125.5 Z"/></g>
<g><path style="opacity:1" fill="#e3e3e3" d="M 138.5,130.5 C 136.5,134.5 133.5,137.5 129.5,139.5C 132.167,136.167 135.167,133.167 138.5,130.5 Z"/></g>
<g><path style="opacity:1" fill="#afafaf" d="M 39.5,139.5 C 41.4044,139.738 42.7377,140.738 43.5,142.5C 41.5956,142.262 40.2623,141.262 39.5,139.5 Z"/></g>
<g><path style="opacity:1" fill="#dbdbdb" d="M 129.5,139.5 C 129.027,140.906 128.027,141.573 126.5,141.5C 126.973,140.094 127.973,139.427 129.5,139.5 Z"/></g>
<g><path style="opacity:1" fill="#d4d4d4" d="M 126.5,141.5 C 126.027,142.906 125.027,143.573 123.5,143.5C 123.973,142.094 124.973,141.427 126.5,141.5 Z"/></g>
<g><path style="opacity:1" fill="#b7b7b7" d="M 43.5,142.5 C 45.0269,142.427 46.0269,143.094 46.5,144.5C 44.9731,144.573 43.9731,143.906 43.5,142.5 Z"/></g>
<g><path style="opacity:1" fill="#d4d4d4" d="M 123.5,143.5 C 123.027,144.906 122.027,145.573 120.5,145.5C 120.973,144.094 121.973,143.427 123.5,143.5 Z"/></g>
<g><path style="opacity:1" fill="#c0c0c0" d="M 46.5,144.5 C 48.0269,144.427 49.0269,145.094 49.5,146.5C 47.9731,146.573 46.9731,145.906 46.5,144.5 Z"/></g>
<g><path style="opacity:1" fill="#d5d5d5" d="M 114.5,148.5 C 112.383,150.655 109.716,151.655 106.5,151.5C 108.936,150.129 111.603,149.129 114.5,148.5 Z"/></g>
<g><path style="opacity:1" fill="#bbbbbb" d="M 58.5,150.5 C 60.8984,150.259 62.8984,150.926 64.5,152.5C 62.1016,152.741 60.1016,152.074 58.5,150.5 Z"/></g>
<g><path style="opacity:1" fill="#cacaca" d="M 106.5,151.5 C 102.902,153.692 98.9019,154.692 94.5,154.5C 98.2976,153.132 102.298,152.132 106.5,151.5 Z"/></g>
<g><path style="opacity:1" fill="#c3c3c3" d="M 67.5,153.5 C 76.4818,154.218 85.4818,154.552 94.5,154.5C 91.1833,155.165 87.6833,155.499 84,155.5C 78.2574,155.642 72.7574,154.975 67.5,153.5 Z"/></g>
</svg>
