<?xml version="1.0" encoding="UTF-8"?>
<!DOCTYPE svg PUBLIC "-//W3C//DTD SVG 1.1//EN" "http://www.w3.org/Graphics/SVG/1.1/DTD/svg11.dtd">
<svg xmlns="http://www.w3.org/2000/svg" version="1.1" width="116px" height="136px" style="shape-rendering:geometricPrecision; text-rendering:geometricPrecision; image-rendering:optimizeQuality; fill-rule:evenodd; clip-rule:evenodd" xmlns:xlink="http://www.w3.org/1999/xlink">
<g><path style="opacity:0.996" fill="#f69a40" d="M 31.5,63.5 C 30.5174,48.9116 30.184,34.245 30.5,19.5C 32.0494,16.7959 34.3827,14.9626 37.5,14C 49.5,13.3333 61.5,13.3333 73.5,14C 76.6667,14.5 78.5,16.3333 79,19.5C 79.6667,29.1667 79.6667,38.8333 79,48.5C 78.2155,50.286 77.0488,51.786 75.5,53C 64.2481,54.125 52.9148,54.9583 41.5,55.5C 38.5099,58.6534 35.1766,61.32 31.5,63.5 Z M 35.5,54.5 C 34.5052,43.3456 34.1719,32.0123 34.5,20.5C 35.3739,19.4749 36.5405,18.8082 38,18.5C 49.8001,19.3032 61.6334,19.8032 73.5,20C 74.8228,29.1367 74.8228,38.3034 73.5,47.5C 62.5151,48.3324 51.5151,48.8324 40.5,49C 38.6266,50.7038 36.9599,52.5372 35.5,54.5 Z"/></g>
<g><path style="opacity:0.749" fill="#f4a74d" d="M 30.5,19.5 C 30.184,34.245 30.5174,48.9116 31.5,63.5C 30.1693,56.5318 29.5026,49.1984 29.5,41.5C 29.5003,33.9922 29.8336,26.6589 30.5,19.5 Z"/></g>
<g><path style="opacity:0.554" fill="#f6bd7a" d="M 34.5,20.5 C 34.1719,32.0123 34.5052,43.3456 35.5,54.5C 35.44,55.0431 35.1067,55.3764 34.5,55.5C 33.1757,43.6734 33.1757,32.0067 34.5,20.5 Z"/></g>
<g><path style="opacity:0.346" fill="#f9d2a4" d="M 46.5,90.5 C 45.88,96.9262 46.5467,102.926 48.5,108.5C 47.791,109.404 46.791,109.737 45.5,109.5C 45.1765,102.978 45.5098,96.6446 46.5,90.5 Z"/></g>
<g><path style="opacity:1" fill="#f08a16" d="M 46.5,90.5 C 46.8333,90.5 47.1667,90.5 47.5,90.5C 47.3677,93.5701 47.701,96.5701 48.5,99.5C 48.5,102.5 48.5,105.5 48.5,108.5C 46.5467,102.926 45.88,96.9262 46.5,90.5 Z"/></g>
<g><path style="opacity:1" fill="#f49736" d="M 78.5,91.5 C 78.5,92.8333 78.5,94.1667 78.5,95.5C 82.5,95.8333 82.5,96.1667 78.5,96.5C 78.1872,100.042 78.5206,103.375 79.5,106.5C 80.9953,106.415 81.9953,107.081 82.5,108.5C 80.6471,109.76 78.8138,109.76 77,108.5C 76.9504,104.141 76.1171,99.9739 74.5,96C 75.4655,94.0245 76.7988,92.5245 78.5,91.5 Z"/></g>
<g><path style="opacity:1" fill="#faac61" d="M 33.5,89.5 C 38.3489,89.1041 41.6823,91.1041 43.5,95.5C 41.28,98.088 39.6133,97.588 38.5,94C 32.2124,92.622 29.3791,95.122 30,101.5C 30.7479,105.914 33.2479,107.414 37.5,106C 38.9431,104.933 40.2764,103.766 41.5,102.5C 42.3081,102.808 42.9747,103.308 43.5,104C 40.2621,109.675 35.5954,111.008 29.5,108C 24.5943,100.208 25.9276,94.0418 33.5,89.5 Z"/></g>
<g><path style="opacity:1" fill="#f8ab5d" d="M 47.5,90.5 C 48.3019,91.9516 48.8019,93.6183 49,95.5C 51.0639,94.4086 53.2305,94.2419 55.5,95C 56.8228,95.8159 57.4894,96.9826 57.5,98.5C 56.0755,96.9689 55.4088,97.3023 55.5,99.5C 55.1667,99.5 54.8333,99.5 54.5,99.5C 52.6409,96.9814 50.6409,96.9814 48.5,99.5C 47.701,96.5701 47.3677,93.5701 47.5,90.5 Z"/></g>
<g><path style="opacity:1" fill="#f8a859" d="M 71.5,97.5 C 70.609,96.8902 69.609,96.5569 68.5,96.5C 66.079,96.8782 63.7457,97.5448 61.5,98.5C 61.0618,98.5654 60.7284,98.3988 60.5,98C 63.0914,94.5078 66.4247,93.6744 70.5,95.5C 71.2975,95.9569 71.6309,96.6236 71.5,97.5 Z"/></g>
<g><path style="opacity:0.008" fill="#fee7ce" d="M 68.5,96.5 C 68.8333,97.1667 69.1667,97.8333 69.5,98.5C 66.6183,98.9861 63.9517,98.9861 61.5,98.5C 63.7457,97.5448 66.079,96.8782 68.5,96.5 Z"/></g>
<g><path style="opacity:0.281" fill="#fad7ae" d="M 78.5,91.5 C 79.404,92.209 79.7373,93.209 79.5,94.5C 80.5,94.5 81.5,94.5 82.5,94.5C 82.5,95.5 82.5,96.5 82.5,97.5C 81.5,97.5 80.5,97.5 79.5,97.5C 79.5,100.5 79.5,103.5 79.5,106.5C 78.5206,103.375 78.1872,100.042 78.5,96.5C 82.5,96.1667 82.5,95.8333 78.5,95.5C 78.5,94.1667 78.5,92.8333 78.5,91.5 Z"/></g>
<g><path style="opacity:0.265" fill="#fbdab3" d="M 71.5,97.5 C 72.4834,101.298 72.8168,105.298 72.5,109.5C 70.8333,109.5 69.1667,109.5 67.5,109.5C 68.5676,108.566 69.901,108.232 71.5,108.5C 71.5,104.833 71.5,101.167 71.5,97.5 Z"/></g>
<g><path style="opacity:0.262" fill="#fbd8af" d="M 54.5,99.5 C 54.8333,99.5 55.1667,99.5 55.5,99.5C 54.9455,103.012 55.6122,106.012 57.5,108.5C 56.9924,110.233 56.159,110.566 55,109.5C 54.5017,106.183 54.335,102.85 54.5,99.5 Z"/></g>
<g><path style="opacity:0.904" fill="#f19021" d="M 57.5,98.5 C 57.5,101.833 57.5,105.167 57.5,108.5C 55.6122,106.012 54.9455,103.012 55.5,99.5C 55.4088,97.3023 56.0755,96.9689 57.5,98.5 Z"/></g>
<g><path style="opacity:0.506" fill="#fac68c" d="M 69.5,99.5 C 68.0821,101.308 66.0821,101.975 63.5,101.5C 65.3736,100.715 67.3736,100.048 69.5,99.5 Z"/></g>
<g><path style="opacity:1" fill="#fab976" d="M 63.5,101.5 C 65.5,102.167 67.5,102.833 69.5,103.5C 67.8008,103.34 66.1341,103.506 64.5,104C 63.7476,104.671 63.4142,105.504 63.5,106.5C 62.7321,105.737 62.2321,104.737 62,103.5C 61.5065,105.134 61.3398,106.801 61.5,108.5C 60.3775,106.712 60.2109,104.712 61,102.5C 61.6708,101.748 62.5041,101.414 63.5,101.5 Z"/></g>
<g><path style="opacity:0.925" fill="#f49534" d="M 68.5,96.5 C 69.609,96.5569 70.609,96.8902 71.5,97.5C 71.5,101.167 71.5,104.833 71.5,108.5C 69.901,108.232 68.5676,108.566 67.5,109.5C 65.2646,109.795 63.2646,109.461 61.5,108.5C 61.3398,106.801 61.5065,105.134 62,103.5C 62.2321,104.737 62.7321,105.737 63.5,106.5C 66.3984,107.719 68.3984,106.719 69.5,103.5C 67.5,102.833 65.5,102.167 63.5,101.5C 66.0821,101.975 68.0821,101.308 69.5,99.5C 69.5,99.1667 69.5,98.8333 69.5,98.5C 69.1667,97.8333 68.8333,97.1667 68.5,96.5 Z M 69.5,103.5 C 68.3984,106.719 66.3984,107.719 63.5,106.5C 63.4142,105.504 63.7476,104.671 64.5,104C 66.1341,103.506 67.8008,103.34 69.5,103.5 Z"/></g>
</svg>
