<?xml version="1.0" encoding="UTF-8"?>
<!DOCTYPE svg PUBLIC "-//W3C//DTD SVG 1.1//EN" "http://www.w3.org/Graphics/SVG/1.1/DTD/svg11.dtd">
<svg xmlns="http://www.w3.org/2000/svg" version="1.1" width="133px" height="133px" style="shape-rendering:geometricPrecision; text-rendering:geometricPrecision; image-rendering:optimizeQuality; fill-rule:evenodd; clip-rule:evenodd" xmlns:xlink="http://www.w3.org/1999/xlink">
<g><path style="opacity:0.99" fill="#ef0303" d="M 54.5,-0.5 C 62.1667,-0.5 69.8333,-0.5 77.5,-0.5C 106.833,6.83333 125.167,25.1667 132.5,54.5C 132.5,62.1667 132.5,69.8333 132.5,77.5C 125.167,106.833 106.833,125.167 77.5,132.5C 69.8333,132.5 62.1667,132.5 54.5,132.5C 25.1667,125.167 6.83333,106.833 -0.5,77.5C -0.5,69.8333 -0.5,62.1667 -0.5,54.5C 6.83333,25.1667 25.1667,6.83333 54.5,-0.5 Z"/></g>
<g><path style="opacity:1" fill="#ffeae9" d="M 51.5,49.5 C 56.7561,53.4146 61.7561,57.748 66.5,62.5C 70.9851,58.5154 75.3184,54.3487 79.5,50C 80.448,49.5172 81.448,49.3505 82.5,49.5C 82.6567,50.8734 82.49,52.2068 82,53.5C 77.6965,57.4577 73.8631,61.791 70.5,66.5C 74.4846,70.9851 78.6513,75.3184 83,79.5C 83.6123,81.2373 82.9457,82.2373 81,82.5C 76.0293,78.3649 71.1959,74.0316 66.5,69.5C 62.5,73.5 58.5,77.5 54.5,81.5C 51.3994,82.9033 50.2328,81.9033 51,78.5C 55.1667,74.3333 59.3333,70.1667 63.5,66C 59.3333,61.8333 55.1667,57.6667 51,53.5C 50.4209,52.0715 50.5876,50.7382 51.5,49.5 Z"/></g>
</svg>
