<?xml version="1.0" encoding="UTF-8"?>
<!DOCTYPE svg PUBLIC "-//W3C//DTD SVG 1.1//EN" "http://www.w3.org/Graphics/SVG/1.1/DTD/svg11.dtd">
<svg xmlns="http://www.w3.org/2000/svg" version="1.1" width="225px" height="225px" style="shape-rendering:geometricPrecision; text-rendering:geometricPrecision; image-rendering:optimizeQuality; fill-rule:evenodd; clip-rule:evenodd" xmlns:xlink="http://www.w3.org/1999/xlink">
<g><path style="opacity:1" fill="#4f4f4f" d="M 113.5,129.5 C 122.746,121.759 131.579,113.426 140,104.5C 140.464,103.906 140.631,103.239 140.5,102.5C 148.111,96.5573 155.111,89.8906 161.5,82.5C 166.248,77.2493 171.248,72.0826 176.5,67C 186.524,63.5144 192.524,67.0144 194.5,77.5C 193.964,79.9417 193.131,82.2751 192,84.5C 185.631,91.036 179.131,97.3694 172.5,103.5C 172.103,102.475 171.437,102.308 170.5,103C 164.667,108.833 158.833,114.667 153,120.5C 152.517,121.448 152.351,122.448 152.5,123.5C 141.062,134.437 129.728,145.604 118.5,157C 114.578,159.327 110.578,159.66 106.5,158C 81.7208,133.221 56.8874,108.387 32,83.5C 28.2016,75.8531 30.035,70.0198 37.5,66C 41.2946,65.1628 44.9613,65.4961 48.5,67C 69.6667,88.1667 90.8333,109.333 112,130.5C 112.383,129.944 112.883,129.611 113.5,129.5 Z"/></g>
<g><path style="opacity:0.824" fill="#6c6c6c" d="M 161.5,82.5 C 155.111,89.8906 148.111,96.5573 140.5,102.5C 146.889,95.1094 153.889,88.4427 161.5,82.5 Z"/></g>
<g><path style="opacity:0.908" fill="#767676" d="M 172.5,103.5 C 166.167,110.5 159.5,117.167 152.5,123.5C 152.351,122.448 152.517,121.448 153,120.5C 158.833,114.667 164.667,108.833 170.5,103C 171.437,102.308 172.103,102.475 172.5,103.5 Z"/></g>
<g><path style="opacity:0.835" fill="#626262" d="M 140.5,102.5 C 140.631,103.239 140.464,103.906 140,104.5C 131.579,113.426 122.746,121.759 113.5,129.5C 122.167,120.167 131.167,111.167 140.5,102.5 Z"/></g>
</svg>
