<?xml version="1.0" encoding="UTF-8"?>
<!DOCTYPE svg PUBLIC "-//W3C//DTD SVG 1.1//EN" "http://www.w3.org/Graphics/SVG/1.1/DTD/svg11.dtd">
<svg xmlns="http://www.w3.org/2000/svg" version="1.1" width="112px" height="112px" style="shape-rendering:geometricPrecision; text-rendering:geometricPrecision; image-rendering:optimizeQuality; fill-rule:evenodd; clip-rule:evenodd" xmlns:xlink="http://www.w3.org/1999/xlink">
<g><path style="opacity:0.765" fill="#fdfdfd" d="M 44.5,-0.5 C 51.8333,-0.5 59.1667,-0.5 66.5,-0.5C 68.8876,0.348502 71.2209,1.3485 73.5,2.5C 39.2561,-3.63302 15.7561,9.36698 3,41.5C 1.84415,46.7882 1.01081,52.1215 0.5,57.5C 1.16915,62.8399 1.83582,68.1732 2.5,73.5C 1.3485,71.2209 0.348502,68.8876 -0.5,66.5C -0.5,59.1667 -0.5,51.8333 -0.5,44.5C 6.16667,21.1667 21.1667,6.16667 44.5,-0.5 Z"/></g>
<g><path style="opacity:0.99" fill="#e5e5e5" d="M 73.5,2.5 C 93.5306,9.86274 106.197,23.8627 111.5,44.5C 111.5,51.8333 111.5,59.1667 111.5,66.5C 104.833,89.8333 89.8333,104.833 66.5,111.5C 59.1667,111.5 51.8333,111.5 44.5,111.5C 23.8627,106.197 9.86274,93.5306 2.5,73.5C 1.83582,68.1732 1.16915,62.8399 0.5,57.5C 1.01081,52.1215 1.84415,46.7882 3,41.5C 15.7561,9.36698 39.2561,-3.63302 73.5,2.5 Z"/></g>
<g><path style="opacity:1" fill="#7c7c7c" d="M 35.5,29.5 C 50.1705,29.3334 64.8371,29.5001 79.5,30C 81.286,30.7845 82.786,31.9512 84,33.5C 85.6342,48.7406 85.9675,64.0739 85,79.5C 84.1667,82.3333 82.3333,84.1667 79.5,85C 64.8333,85.6667 50.1667,85.6667 35.5,85C 33.714,84.2155 32.214,83.0488 31,81.5C 30.3333,65.5 30.3333,49.5 31,33.5C 32.3968,31.9297 33.8968,30.5964 35.5,29.5 Z"/></g>
<g><path style="opacity:1" fill="#e4e4e4" d="M 35.5,34.5 C 50.1705,34.3334 64.8371,34.5001 79.5,35C 80,35.5 80.5,36 81,36.5C 81.6667,44.5 81.6667,52.5 81,60.5C 77.5,57 74,53.5 70.5,50C 69.5,49.3333 68.5,49.3333 67.5,50C 57.5,60 47.5,70 37.5,80C 36.8333,80.6667 36.1667,80.6667 35.5,80C 34.1742,64.8334 34.1742,49.6667 35.5,34.5 Z"/></g>
<g><path style="opacity:1" fill="#7b7b7b" d="M 44.5,41.5 C 49.6312,40.6497 52.9645,42.6497 54.5,47.5C 53.3493,53.0913 50.016,54.9246 44.5,53C 40.5419,49.0923 40.5419,45.2589 44.5,41.5 Z"/></g>
<g><path style="opacity:1" fill="#dadada" d="M 46.5,45.5 C 47.5,45.5 48.5,45.5 49.5,45.5C 49.5,46.8333 49.5,48.1667 49.5,49.5C 46.0464,49.7332 45.0464,48.3999 46.5,45.5 Z"/></g>
<g><path style="opacity:1" fill="#e2e2e2" d="M 78.5,80.5 C 66.9877,80.8281 55.6544,80.4948 44.5,79.5C 52.1741,70.9926 60.3407,62.9926 69,55.5C 73.288,58.7852 77.288,62.4519 81,66.5C 81.6667,70.5 81.6667,74.5 81,78.5C 80.5831,79.756 79.7498,80.4226 78.5,80.5 Z"/></g>
<g><path style="opacity:1" fill="#a7a7a7" d="M 44.5,79.5 C 55.6544,80.4948 66.9877,80.8281 78.5,80.5C 66.9933,81.8243 55.3266,81.8243 43.5,80.5C 43.6236,79.8933 43.9569,79.56 44.5,79.5 Z"/></g>
</svg>
