<?xml version="1.0" encoding="UTF-8"?>
<!DOCTYPE svg PUBLIC "-//W3C//DTD SVG 1.1//EN" "http://www.w3.org/Graphics/SVG/1.1/DTD/svg11.dtd">
<svg xmlns="http://www.w3.org/2000/svg" version="1.1" width="125px" height="125px" style="shape-rendering:geometricPrecision; text-rendering:geometricPrecision; image-rendering:optimizeQuality; fill-rule:evenodd; clip-rule:evenodd" xmlns:xlink="http://www.w3.org/1999/xlink">
<g><path style="opacity:0.979" fill="#6e7174" d="M 45.5,61.5 C 45.0269,60.0937 44.0269,59.427 42.5,59.5C 42.0133,58.5266 41.5133,57.5266 41,56.5C 40.3333,46.5 40.3333,36.5 41,26.5C 48.7761,19.3849 57.1095,13.0516 66,7.5C 74.5192,12.7647 82.5192,18.7647 90,25.5C 90.6667,36.5 90.6667,47.5 90,58.5C 88.786,60.0488 87.286,61.2155 85.5,62C 72.0915,62.8135 58.7582,62.6468 45.5,61.5 Z M 64.5,13.5 C 71.7176,17.871 78.5509,22.871 85,28.5C 85.8321,37.8511 85.6654,47.1845 84.5,56.5C 81.5788,57.4066 78.5788,57.7399 75.5,57.5C 75.5,49.1667 75.5,40.8333 75.5,32.5C 68.9102,32.189 62.4102,32.5223 56,33.5C 55.5003,41.4931 55.3336,49.4931 55.5,57.5C 52.7508,57.7261 50.0841,57.3928 47.5,56.5C 46.1667,46.8333 46.1667,37.1667 47.5,27.5C 53.4212,23.0535 59.0879,18.3868 64.5,13.5 Z M 70.5,57.5 C 67.5,57.5 64.5,57.5 61.5,57.5C 61.5,50.8333 61.5,44.1667 61.5,37.5C 64.5,37.5 67.5,37.5 70.5,37.5C 70.5,44.1667 70.5,50.8333 70.5,57.5 Z"/></g>
<g><path style="opacity:0.212" fill="#d4d5d6" d="M 70.5,57.5 C 70.5,50.8333 70.5,44.1667 70.5,37.5C 67.5,37.5 64.5,37.5 61.5,37.5C 61.5,44.1667 61.5,50.8333 61.5,57.5C 60.5088,50.6866 60.1755,43.6866 60.5,36.5C 64.1667,36.5 67.8333,36.5 71.5,36.5C 71.8245,43.6866 71.4912,50.6866 70.5,57.5 Z M 70.5,57.5 C 67.5,57.5 64.5,57.5 61.5,57.5C 61.5,50.8333 61.5,44.1667 61.5,37.5C 64.5,37.5 67.5,37.5 70.5,37.5C 70.5,44.1667 70.5,50.8333 70.5,57.5 Z"/></g>
<g><path style="opacity:0.318" fill="#c8c9ca" d="M 42.5,59.5 C 44.0269,59.427 45.0269,60.0937 45.5,61.5C 43.9731,61.573 42.9731,60.9063 42.5,59.5 Z"/></g>
<g><path style="opacity:0.965" fill="#5a5c5f" d="M 34.5,86.5 C 34.5,89.5 34.5,92.5 34.5,95.5C 38.0419,95.8128 41.3752,95.4794 44.5,94.5C 44.5,91.8333 44.5,89.1667 44.5,86.5C 45.5,86.5 46.5,86.5 47.5,86.5C 47.5,92.8333 47.5,99.1667 47.5,105.5C 46.5,105.5 45.5,105.5 44.5,105.5C 44.5,102.833 44.5,100.167 44.5,97.5C 41.3752,96.5206 38.0419,96.1872 34.5,96.5C 34.5,99.5 34.5,102.5 34.5,105.5C 33.5,105.5 32.5,105.5 31.5,105.5C 31.6582,98.764 32.6582,92.4307 34.5,86.5 Z"/></g>
<g><path style="opacity:0.936" fill="#707274" d="M 54.5,90.5 C 61.6319,90.7429 64.4652,94.4096 63,101.5C 60.9473,105.292 57.7806,106.458 53.5,105C 50.5715,101.743 49.7382,97.9094 51,93.5C 52.1451,92.3636 53.3117,91.3636 54.5,90.5 Z M 54.5,93.5 C 59.4943,93.329 61.3276,95.6624 60,100.5C 58.3856,103.825 56.3856,104.158 54,101.5C 53.2782,98.7395 53.4448,96.0728 54.5,93.5 Z"/></g>
<g><path style="opacity:0.929" fill="#78797b" d="M 66.5,90.5 C 68.4815,91.8165 70.4815,91.8165 72.5,90.5C 74.0293,90.5288 75.196,91.1955 76,92.5C 79.9485,89.4051 82.9485,90.0717 85,94.5C 85.4986,98.1516 85.6653,101.818 85.5,105.5C 84.5,105.5 83.5,105.5 82.5,105.5C 82.6653,101.818 82.4986,98.1516 82,94.5C 80.6667,93.1667 79.3333,93.1667 78,94.5C 77.5014,98.1516 77.3347,101.818 77.5,105.5C 76.5,105.5 75.5,105.5 74.5,105.5C 74.665,102.15 74.4983,98.8168 74,95.5C 71.0102,92.7372 69.1769,93.5705 68.5,98C 68.5646,100.111 68.7312,102.277 69,104.5C 67.9887,105.337 66.8221,105.67 65.5,105.5C 65.2213,100.405 65.5546,95.4053 66.5,90.5 Z"/></g>
<g><path style="opacity:0.969" fill="#858688" d="M 96.5,91.5 C 95.1266,91.3433 93.7932,91.51 92.5,92C 93.7375,92.2321 94.7375,92.7321 95.5,93.5C 93.4862,93.3915 91.8195,94.0582 90.5,95.5C 90.6716,94.5084 90.3382,93.8417 89.5,93.5C 91.265,90.5512 93.5983,89.8846 96.5,91.5 Z"/></g>
<g><path style="opacity:0.62" fill="#98999b" d="M 34.5,86.5 C 35.4731,88.9479 35.8064,91.6146 35.5,94.5C 38.5,94.5 41.5,94.5 44.5,94.5C 41.3752,95.4794 38.0419,95.8128 34.5,95.5C 34.5,92.5 34.5,89.5 34.5,86.5 Z"/></g>
<g><path style="opacity:0.989" fill="#545658" d="M 96.5,91.5 C 98.5,91.5 99.5,92.5 99.5,94.5C 99.5,95.8333 99.5,97.1667 99.5,98.5C 96.2869,98.19 93.2869,98.5233 90.5,99.5C 90.5,99.8333 90.5,100.167 90.5,100.5C 90.5,101.833 89.8333,102.5 88.5,102.5C 86.9939,99.2222 87.3273,96.2222 89.5,93.5C 90.3382,93.8417 90.6716,94.5084 90.5,95.5C 90.5,95.8333 90.5,96.1667 90.5,96.5C 93.0241,97.8003 95.6908,97.8003 98.5,96.5C 98.3764,95.8933 98.0431,95.56 97.5,95.5C 97.1667,94.5 96.5,93.8333 95.5,93.5C 94.7375,92.7321 93.7375,92.2321 92.5,92C 93.7932,91.51 95.1266,91.3433 96.5,91.5 Z M 95.5,93.5 C 96.5,93.8333 97.1667,94.5 97.5,95.5C 95.3926,96.4682 93.0593,96.8016 90.5,96.5C 90.5,96.1667 90.5,95.8333 90.5,95.5C 91.8195,94.0582 93.4862,93.3915 95.5,93.5 Z"/></g>
<g><path style="opacity:0.416" fill="#a4a5a6" d="M 97.5,95.5 C 98.0431,95.56 98.3764,95.8933 98.5,96.5C 95.6908,97.8003 93.0241,97.8003 90.5,96.5C 93.0593,96.8016 95.3926,96.4682 97.5,95.5 Z"/></g>
<g><path style="opacity:0.189" fill="#cbcccc" d="M 44.5,97.5 C 41.5,97.5 38.5,97.5 35.5,97.5C 35.8064,100.385 35.4731,103.052 34.5,105.5C 34.5,102.5 34.5,99.5 34.5,96.5C 38.0419,96.1872 41.3752,96.5206 44.5,97.5 Z"/></g>
<g><path style="opacity:0.418" fill="#a3a4a5" d="M 99.5,94.5 C 100.451,95.9187 100.784,97.5853 100.5,99.5C 97.1667,99.5 93.8333,99.5 90.5,99.5C 93.2869,98.5233 96.2869,98.19 99.5,98.5C 99.5,97.1667 99.5,95.8333 99.5,94.5 Z"/></g>
<g><path style="opacity:0.965" fill="#6f7173" d="M 90.5,100.5 C 92.9773,104.317 95.4773,104.317 98,100.5C 99.6036,101.068 100.27,102.068 100,103.5C 97.1592,105.504 93.9926,106.004 90.5,105C 89.6195,104.292 88.9528,103.458 88.5,102.5C 89.8333,102.5 90.5,101.833 90.5,100.5 Z"/></g>
</svg>
