<?xml version="1.0" encoding="UTF-8"?>
<!DOCTYPE svg PUBLIC "-//W3C//DTD SVG 1.1//EN" "http://www.w3.org/Graphics/SVG/1.1/DTD/svg11.dtd">
<svg xmlns="http://www.w3.org/2000/svg" version="1.1" width="84px" height="79px" style="shape-rendering:geometricPrecision; text-rendering:geometricPrecision; image-rendering:optimizeQuality; fill-rule:evenodd; clip-rule:evenodd" xmlns:xlink="http://www.w3.org/1999/xlink">
<g><path style="opacity:0.188" fill="#a8a39c" d="M 36.5,8.5 C 34.2143,8.59495 32.2143,9.26162 30.5,10.5C 30.1667,10.5 29.8333,10.5 29.5,10.5C 28.6043,11.5063 27.9377,11.5063 27.5,10.5C 27.9528,9.54163 28.6195,8.7083 29.5,8C 32.0385,7.20419 34.3718,7.37086 36.5,8.5 Z"/></g>
<g><path style="opacity:0.122" fill="#a3a1ab" d="M 58.5,14.5 C 57.391,14.5569 56.391,14.8902 55.5,15.5C 52.7753,14.7037 50.6087,13.037 49,10.5C 48.586,10.9574 48.086,11.2907 47.5,11.5C 44.873,10.9422 42.5396,9.94215 40.5,8.5C 40.7828,7.71087 41.2828,7.0442 42,6.5C 43.8831,9.11751 46.2165,9.78418 49,8.5C 51.8292,11.15 54.9959,13.15 58.5,14.5 Z"/></g>
<g><path style="opacity:0.975" fill="#717172" d="M 36.5,8.5 C 37.8333,8.5 39.1667,8.5 40.5,8.5C 42.5396,9.94215 44.873,10.9422 47.5,11.5C 48.086,11.2907 48.586,10.9574 49,10.5C 50.6087,13.037 52.7753,14.7037 55.5,15.5C 54.5416,15.9528 53.7083,16.6195 53,17.5C 49.1285,15.3619 45.2951,13.3619 41.5,11.5C 37.7413,10.7883 34.0746,10.455 30.5,10.5C 32.2143,9.26162 34.2143,8.59495 36.5,8.5 Z"/></g>
<g><path style="opacity:1" fill="#3d3d3d" d="M 29.5,10.5 C 29.8333,10.5 30.1667,10.5 30.5,10.5C 34.0746,10.455 37.7413,10.7883 41.5,11.5C 45.2951,13.3619 49.1285,15.3619 53,17.5C 53.7083,16.6195 54.5416,15.9528 55.5,15.5C 55.8893,20.9862 55.2226,26.3195 53.5,31.5C 53.1156,28.2307 51.7823,25.3974 49.5,23C 45.4294,22.4757 41.4294,21.6424 37.5,20.5C 30.7514,21.5923 27.7514,25.5923 28.5,32.5C 27.8826,32.6107 27.3826,32.944 27,33.5C 26.5014,29.8484 26.3347,26.1817 26.5,22.5C 26.5,22.1667 26.5,21.8333 26.5,21.5C 28.139,18.1296 29.139,14.4629 29.5,10.5 Z"/></g>
<g><path style="opacity:0.586" fill="#78756f" d="M 27.5,10.5 C 27.9377,11.5063 28.6043,11.5063 29.5,10.5C 29.139,14.4629 28.139,18.1296 26.5,21.5C 26.185,17.6286 26.5184,13.9619 27.5,10.5 Z"/></g>
<g><path style="opacity:0.204" fill="#747377" d="M 58.5,14.5 C 56.2905,21.9699 55.2905,29.6366 55.5,37.5C 54.5418,35.6976 53.8751,33.6976 53.5,31.5C 55.2226,26.3195 55.8893,20.9862 55.5,15.5C 56.391,14.8902 57.391,14.5569 58.5,14.5 Z"/></g>
<g><path style="opacity:1" fill="#d9dada" d="M 53.5,31.5 C 53.8751,33.6976 54.5418,35.6976 55.5,37.5C 55.3444,43.1157 54.3444,48.4491 52.5,53.5C 51.8826,49.2339 50.2159,45.4006 47.5,42C 45.8051,42.4108 43.9718,42.9108 42,43.5C 39.813,43.2115 37.6463,42.8782 35.5,42.5C 35.3713,44.2161 35.038,45.8828 34.5,47.5C 34.5,47.8333 34.5,48.1667 34.5,48.5C 32.5447,48.7986 31.2114,49.7986 30.5,51.5C 28.9281,48.7846 27.9281,45.7846 27.5,42.5C 28.3138,40.369 28.8138,38.0356 29,35.5C 31.8037,37.3444 34.9703,38.0111 38.5,37.5C 38.7947,35.2646 38.4614,33.2646 37.5,31.5C 35.1432,31.3367 32.8098,31.5034 30.5,32C 29.944,32.3826 29.6107,32.8826 29.5,33.5C 28.8333,33.5 28.5,33.1667 28.5,32.5C 27.7514,25.5923 30.7514,21.5923 37.5,20.5C 41.4294,21.6424 45.4294,22.4757 49.5,23C 51.7823,25.3974 53.1156,28.2307 53.5,31.5 Z"/></g>
<g><path style="opacity:1" fill="#656565" d="M 42.5,30.5 C 45.5719,30.1826 48.5719,30.5159 51.5,31.5C 50,31.8333 48.5,32.1667 47,32.5C 45.0145,32.4313 43.5145,31.7647 42.5,30.5 Z"/></g>
<g><path style="opacity:1" fill="#6a6a6a" d="M 45.5,33.5 C 51.6509,34.1221 51.8176,35.1221 46,36.5C 44.3167,35.8235 44.1501,34.8235 45.5,33.5 Z"/></g>
<g><path style="opacity:1" fill="#adaeae" d="M 26.5,22.5 C 26.3347,26.1817 26.5014,29.8484 27,33.5C 27.3826,32.944 27.8826,32.6107 28.5,32.5C 28.5,33.1667 28.8333,33.5 29.5,33.5C 32.6981,34.0356 35.3647,33.369 37.5,31.5C 38.4614,33.2646 38.7947,35.2646 38.5,37.5C 34.9703,38.0111 31.8037,37.3444 29,35.5C 28.8138,38.0356 28.3138,40.369 27.5,42.5C 25.4479,35.8048 25.1145,29.1381 26.5,22.5 Z"/></g>
<g><path style="opacity:1" fill="#525252" d="M 32.5,34.5 C 33.9778,34.238 35.3112,34.5713 36.5,35.5C 34.9255,36.6309 33.2588,36.7975 31.5,36C 32.056,35.6174 32.3893,35.1174 32.5,34.5 Z"/></g>
<g><path style="opacity:1" fill="#4f4f4f" d="M 37.5,31.5 C 35.3647,33.369 32.6981,34.0356 29.5,33.5C 29.6107,32.8826 29.944,32.3826 30.5,32C 32.8098,31.5034 35.1432,31.3367 37.5,31.5 Z"/></g>
<g><path style="opacity:1" fill="#484848" d="M 49.5,48.5 C 44.9346,47.0626 40.6013,47.3959 36.5,49.5C 35.5084,49.6716 34.8417,49.3382 34.5,48.5C 34.5,48.1667 34.5,47.8333 34.5,47.5C 36.9124,47.756 38.5791,46.756 39.5,44.5C 40.9675,45.6953 42.4675,45.6953 44,44.5C 45.5,45 47,45.5 48.5,46C 49.2524,46.6708 49.5858,47.5041 49.5,48.5 Z"/></g>
<g><path style="opacity:1" fill="#a6a6a6" d="M 49.5,48.5 C 46.7974,49.963 43.7974,50.7963 40.5,51C 41.938,51.2189 43.2713,51.7189 44.5,52.5C 44.1131,53.7199 43.2798,54.3865 42,54.5C 39.6836,53.3496 37.8502,51.6829 36.5,49.5C 40.6013,47.3959 44.9346,47.0626 49.5,48.5 Z"/></g>
<g><path style="opacity:1" fill="#d3d3d4" d="M 52.5,53.5 C 51.5,54.8333 50.5,56.1667 49.5,57.5C 49.44,56.9569 49.1067,56.6236 48.5,56.5C 44.1667,59.1667 39.8333,59.1667 35.5,56.5C 34.2888,57.2739 34.2888,58.1072 35.5,59C 37.6504,60.4114 39.9837,61.2447 42.5,61.5C 42.3893,62.1174 42.056,62.6174 41.5,63C 39.5,63.3333 37.5,63.6667 35.5,64C 36.2598,65.4411 36.9264,66.9411 37.5,68.5C 40.9682,68.8969 44.6348,69.2303 48.5,69.5C 48.5,70.1667 48.1667,70.5 47.5,70.5C 43.5,70.5 39.5,70.5 35.5,70.5C 33.8196,68.4726 32.6529,66.1392 32,63.5C 31.6396,66.7938 32.473,69.7938 34.5,72.5C 34.5,72.8333 34.5,73.1667 34.5,73.5C 29.0356,72.4352 24.0356,70.2685 19.5,67C 18.6198,65.6439 18.2865,64.1439 18.5,62.5C 22.7814,61.8639 26.7814,60.3639 30.5,58C 30.9863,55.9734 30.9863,53.8067 30.5,51.5C 31.2114,49.7986 32.5447,48.7986 34.5,48.5C 34.8417,49.3382 35.5084,49.6716 36.5,49.5C 37.8502,51.6829 39.6836,53.3496 42,54.5C 43.2798,54.3865 44.1131,53.7199 44.5,52.5C 43.2713,51.7189 41.938,51.2189 40.5,51C 43.7974,50.7963 46.7974,49.963 49.5,48.5C 49.5858,47.5041 49.2524,46.6708 48.5,46C 47,45.5 45.5,45 44,44.5C 42.4675,45.6953 40.9675,45.6953 39.5,44.5C 38.5791,46.756 36.9124,47.756 34.5,47.5C 35.038,45.8828 35.3713,44.2161 35.5,42.5C 37.6463,42.8782 39.813,43.2115 42,43.5C 43.9718,42.9108 45.8051,42.4108 47.5,42C 50.2159,45.4006 51.8826,49.2339 52.5,53.5 Z"/></g>
<g><path style="opacity:1" fill="#e1e2e2" d="M 52.5,53.5 C 52.5106,55.0174 53.1772,56.1841 54.5,57C 57.7898,57.7249 60.7898,58.8916 63.5,60.5C 60.3479,60.0471 57.8479,61.0471 56,63.5C 55.2881,61.1526 54.1214,59.1526 52.5,57.5C 51.7668,61.2039 51.1002,64.8705 50.5,68.5C 49.8333,68.8333 49.1667,69.1667 48.5,69.5C 44.6348,69.2303 40.9682,68.8969 37.5,68.5C 36.9264,66.9411 36.2598,65.4411 35.5,64C 37.5,63.6667 39.5,63.3333 41.5,63C 42.056,62.6174 42.3893,62.1174 42.5,61.5C 45.3311,60.9213 47.6644,59.588 49.5,57.5C 50.5,56.1667 51.5,54.8333 52.5,53.5 Z"/></g>
<g><path style="opacity:1" fill="#555555" d="M 49.5,57.5 C 47.6644,59.588 45.3311,60.9213 42.5,61.5C 39.9837,61.2447 37.6504,60.4114 35.5,59C 34.2888,58.1072 34.2888,57.2739 35.5,56.5C 39.8333,59.1667 44.1667,59.1667 48.5,56.5C 49.1067,56.6236 49.44,56.9569 49.5,57.5 Z"/></g>
<g><path style="opacity:1" fill="#9f9f9f" d="M 27.5,61.5 C 28.0967,61.7352 28.4301,62.2352 28.5,63C 28.0216,65.2256 27.355,67.3923 26.5,69.5C 25.8264,66.8118 26.1597,64.1451 27.5,61.5 Z"/></g>
<g><path style="opacity:1" fill="#d6d9d9" d="M 63.5,60.5 C 66.7572,60.174 68.2572,61.5073 68,64.5C 58.0161,72.5601 46.8495,75.5601 34.5,73.5C 39.0323,73.8182 43.3656,73.4849 47.5,72.5C 49.6277,71.4625 50.6277,70.1292 50.5,68.5C 51.1002,64.8705 51.7668,61.2039 52.5,57.5C 54.1214,59.1526 55.2881,61.1526 56,63.5C 57.8479,61.0471 60.3479,60.0471 63.5,60.5 Z"/></g>
<g><path style="opacity:1" fill="#585858" d="M 35.5,70.5 C 35.6716,71.4916 35.3382,72.1583 34.5,72.5C 32.473,69.7938 31.6396,66.7938 32,63.5C 32.6529,66.1392 33.8196,68.4726 35.5,70.5 Z"/></g>
<g><path style="opacity:1" fill="#b2b2b2" d="M 35.5,70.5 C 39.5,70.5 43.5,70.5 47.5,70.5C 46.4937,71.3957 46.4937,72.0623 47.5,72.5C 43.3656,73.4849 39.0323,73.8182 34.5,73.5C 34.5,73.1667 34.5,72.8333 34.5,72.5C 35.3382,72.1583 35.6716,71.4916 35.5,70.5 Z"/></g>
<g><path style="opacity:1" fill="#616161" d="M 50.5,68.5 C 50.6277,70.1292 49.6277,71.4625 47.5,72.5C 46.4937,72.0623 46.4937,71.3957 47.5,70.5C 48.1667,70.5 48.5,70.1667 48.5,69.5C 49.1667,69.1667 49.8333,68.8333 50.5,68.5 Z"/></g>
</svg>
