<?xml version="1.0" encoding="UTF-8"?>
<!DOCTYPE svg PUBLIC "-//W3C//DTD SVG 1.1//EN" "http://www.w3.org/Graphics/SVG/1.1/DTD/svg11.dtd">
<svg xmlns="http://www.w3.org/2000/svg" version="1.1" width="125px" height="125px" style="shape-rendering:geometricPrecision; text-rendering:geometricPrecision; image-rendering:optimizeQuality; fill-rule:evenodd; clip-rule:evenodd" xmlns:xlink="http://www.w3.org/1999/xlink">
<g><path style="opacity:0.986" fill="#e4e4e4" d="M 50.5,-0.5 C 58.1667,-0.5 65.8333,-0.5 73.5,-0.5C 100.833,6.16667 117.833,23.1667 124.5,50.5C 124.5,58.1667 124.5,65.8333 124.5,73.5C 117.833,100.833 100.833,117.833 73.5,124.5C 65.8333,124.5 58.1667,124.5 50.5,124.5C 23.1667,117.833 6.16667,100.833 -0.5,73.5C -0.5,65.8333 -0.5,58.1667 -0.5,50.5C 6.16667,23.1667 23.1667,6.16667 50.5,-0.5 Z"/></g>
<g><path style="opacity:1" fill="#4e4e4e" d="M 60.5,77.5 C 58.8984,75.9261 56.8984,75.2594 54.5,75.5C 46.4096,69.9731 43.2429,62.3065 45,52.5C 46.0113,51.6634 47.1779,51.33 48.5,51.5C 47.3691,58.886 49.3691,65.2193 54.5,70.5C 59.2742,72.8109 64.2742,73.1442 69.5,71.5C 70.9317,71.2668 71.4317,70.6001 71,69.5C 69.9805,68.3128 68.8139,67.3128 67.5,66.5C 63.1421,68.3133 59.3088,67.6467 56,64.5C 54.8099,60.6192 54.1432,56.6192 54,52.5C 48,46.5 42,40.5 36,34.5C 35.51,33.2068 35.3433,31.8734 35.5,30.5C 36.552,30.3505 37.552,30.5172 38.5,31C 56,48.5 73.5,66 91,83.5C 91.4828,84.448 91.6495,85.448 91.5,86.5C 90.1266,86.6567 88.7932,86.49 87.5,86C 83.3116,81.8116 79.1449,77.6449 75,73.5C 72.1393,75.3977 68.9727,76.3977 65.5,76.5C 65.5,78.5 65.5,80.5 65.5,82.5C 68.5,82.5 71.5,82.5 74.5,82.5C 74.5,83.8333 74.5,85.1667 74.5,86.5C 66.8333,86.5 59.1667,86.5 51.5,86.5C 51.33,85.1779 51.6634,84.0113 52.5,83C 55.4816,82.502 58.4816,82.3354 61.5,82.5C 61.7845,80.5853 61.4511,78.9187 60.5,77.5 Z"/></g>
<g><path style="opacity:1" fill="#4f4f4f" d="M 59.5,30.5 C 65.1445,29.606 69.3112,31.606 72,36.5C 72.6667,42.1667 72.6667,47.8333 72,53.5C 70.9887,54.3366 69.8221,54.67 68.5,54.5C 68.6661,48.8236 68.4994,43.1569 68,37.5C 63.2748,32.9791 59.7748,33.8125 57.5,40C 56.552,40.4828 55.552,40.6495 54.5,40.5C 54.0747,36.0168 55.7413,32.6834 59.5,30.5 Z"/></g>
<g><path style="opacity:1" fill="#464646" d="M 81.5,61.5 C 80.9473,63.5518 79.9473,63.8852 78.5,62.5C 78.5,59.5 78.5,56.5 78.5,53.5C 79.5,53.5 80.5,53.5 81.5,53.5C 81.5,56.1667 81.5,58.8333 81.5,61.5 Z"/></g>
<g><path style="opacity:1" fill="#777777" d="M 81.5,61.5 C 81.5,58.8333 81.5,56.1667 81.5,53.5C 80.5,53.5 79.5,53.5 78.5,53.5C 78.5,56.5 78.5,59.5 78.5,62.5C 77.1802,59.1013 77.1802,55.6013 78.5,52C 79.7839,51.3162 80.9505,51.4829 82,52.5C 82.8045,55.6965 82.6378,58.6965 81.5,61.5 Z"/></g>
<g><path style="opacity:1" fill="#cacaca" d="M 58.5,57.5 C 60.4788,58.8121 62.1455,60.4788 63.5,62.5C 59.7283,63.4006 58.0616,61.734 58.5,57.5 Z"/></g>
<g><path style="opacity:1" fill="#878787" d="M 54.5,75.5 C 56.8984,75.2594 58.8984,75.9261 60.5,77.5C 58.1016,77.7406 56.1016,77.0739 54.5,75.5 Z"/></g>
</svg>
