<?xml version="1.0" encoding="UTF-8"?>
<!DOCTYPE svg PUBLIC "-//W3C//DTD SVG 1.1//EN" "http://www.w3.org/Graphics/SVG/1.1/DTD/svg11.dtd">
<svg xmlns="http://www.w3.org/2000/svg" version="1.1" width="101px" height="86px" style="shape-rendering:geometricPrecision; text-rendering:geometricPrecision; image-rendering:optimizeQuality; fill-rule:evenodd; clip-rule:evenodd" xmlns:xlink="http://www.w3.org/1999/xlink">
<g><path style="opacity:1" fill="#fefefe" d="M -0.5,-0.5 C 33.1667,-0.5 66.8333,-0.5 100.5,-0.5C 100.5,28.1667 100.5,56.8333 100.5,85.5C 66.8333,85.5 33.1667,85.5 -0.5,85.5C -0.5,56.8333 -0.5,28.1667 -0.5,-0.5 Z"/></g>
<g><path style="opacity:1" fill="#d8d8d8" d="M 76.5,66.5 C 76.6564,62.4183 76.1564,58.4183 75,54.5C 70.2632,50.9134 65.4298,47.58 60.5,44.5C 59.4489,43.7777 58.7822,42.7777 58.5,41.5C 58.5,40.8333 58.5,40.1667 58.5,39.5C 61.3474,35.9219 62.0141,31.9219 60.5,27.5C 63.8994,18.3972 60.7327,13.7306 51,13.5C 41.4755,15.3842 38.1422,21.0509 41,30.5C 41.9344,29.1416 42.7677,27.8083 43.5,26.5C 45.2027,25.3398 45.8693,26.0065 45.5,28.5C 47.1667,28.5 48.8333,28.5 50.5,28.5C 50.2852,26.8212 50.9519,25.8212 52.5,25.5C 53.7563,27.941 53.7563,30.2743 52.5,32.5C 49.8484,33.1515 48.1818,34.8182 47.5,37.5C 45.4733,36.3067 43.9733,34.64 43,32.5C 42.2496,33.1258 41.4162,33.6258 40.5,34C 43.5896,36.3493 43.9229,38.8493 41.5,41.5C 39.5,42.976 37.8334,44.8094 36.5,47C 33.0508,48.7493 29.7174,50.5826 26.5,52.5C 26.1667,52.5 25.8333,52.5 25.5,52.5C 23.127,54.5792 21.7936,57.2459 21.5,60.5C 10.359,37.7521 16.0257,20.2521 38.5,8C 58.5072,2.35546 73.6739,8.52213 84,26.5C 89.2535,41.461 86.7535,54.7943 76.5,66.5 Z"/></g>
<g><path style="opacity:1" fill="#282828" d="M 60.5,27.5 C 58.2332,21.397 53.8999,18.897 47.5,20C 46.1772,20.8159 45.5106,21.9826 45.5,23.5C 44.0937,23.9731 43.427,24.9731 43.5,26.5C 42.7677,27.8083 41.9344,29.1416 41,30.5C 38.1422,21.0509 41.4755,15.3842 51,13.5C 60.7327,13.7306 63.8994,18.3972 60.5,27.5 Z"/></g>
<g><path style="opacity:1" fill="#aaaaaa" d="M 52.5,25.5 C 50.9519,25.8212 50.2852,26.8212 50.5,28.5C 48.8333,28.5 47.1667,28.5 45.5,28.5C 45.8693,26.0065 45.2027,25.3398 43.5,26.5C 43.427,24.9731 44.0937,23.9731 45.5,23.5C 48.6473,20.6944 51.6473,20.8611 54.5,24C 53.5842,24.2784 52.9175,24.7784 52.5,25.5 Z"/></g>
<g><path style="opacity:1" fill="#525252" d="M 60.5,27.5 C 62.0141,31.9219 61.3474,35.9219 58.5,39.5C 58.719,38.325 58.3857,37.325 57.5,36.5C 56.2341,38.4039 54.5675,39.7372 52.5,40.5C 52.9296,37.9527 52.9296,35.2861 52.5,32.5C 53.7563,30.2743 53.7563,27.941 52.5,25.5C 52.9175,24.7784 53.5842,24.2784 54.5,24C 51.6473,20.8611 48.6473,20.6944 45.5,23.5C 45.5106,21.9826 46.1772,20.8159 47.5,20C 53.8999,18.897 58.2332,21.397 60.5,27.5 Z"/></g>
<g><path style="opacity:1" fill="#ababab" d="M 52.5,32.5 C 52.9296,35.2861 52.9296,37.9527 52.5,40.5C 50.2646,40.2053 48.2646,40.5386 46.5,41.5C 44.744,42.5521 44.0773,44.2188 44.5,46.5C 43.8333,45.1667 43.1667,43.8333 42.5,42.5C 42.5,41.8333 42.1667,41.5 41.5,41.5C 43.9229,38.8493 43.5896,36.3493 40.5,34C 41.4162,33.6258 42.2496,33.1258 43,32.5C 43.9733,34.64 45.4733,36.3067 47.5,37.5C 48.1818,34.8182 49.8484,33.1515 52.5,32.5 Z"/></g>
<g><path style="opacity:1" fill="#343434" d="M 58.5,39.5 C 58.5,40.1667 58.5,40.8333 58.5,41.5C 57.078,42.925 55.4113,43.925 53.5,44.5C 53.1667,44.5 52.8333,44.5 52.5,44.5C 50.1815,44.0075 48.1815,43.0075 46.5,41.5C 48.2646,40.5386 50.2646,40.2053 52.5,40.5C 54.5675,39.7372 56.2341,38.4039 57.5,36.5C 58.3857,37.325 58.719,38.325 58.5,39.5 Z"/></g>
<g><path style="opacity:1" fill="#c9c9c9" d="M 46.5,41.5 C 48.1815,43.0075 50.1815,44.0075 52.5,44.5C 52.857,48.9578 51.5237,52.6245 48.5,55.5C 47.1667,52.5 45.8333,49.5 44.5,46.5C 44.0773,44.2188 44.744,42.5521 46.5,41.5 Z"/></g>
<g><path style="opacity:1" fill="#535353" d="M 58.5,41.5 C 58.7822,42.7777 59.4489,43.7777 60.5,44.5C 59.3065,44.9704 58.6399,45.9704 58.5,47.5C 58.6667,48.5 58.8333,49.5 59,50.5C 60.8022,51.7893 61.9688,53.4559 62.5,55.5C 60.3597,53.5759 58.0264,52.9093 55.5,53.5C 53.7298,50.8066 53.0632,47.8066 53.5,44.5C 55.4113,43.925 57.078,42.925 58.5,41.5 Z"/></g>
<g><path style="opacity:1" fill="#868686" d="M 52.5,44.5 C 52.8333,44.5 53.1667,44.5 53.5,44.5C 53.0632,47.8066 53.7298,50.8066 55.5,53.5C 58.0264,52.9093 60.3597,53.5759 62.5,55.5C 62.585,59.8485 62.9184,64.1819 63.5,68.5C 63.5561,70.6397 64.2227,72.3064 65.5,73.5C 61.5206,75.4492 57.1872,76.4492 52.5,76.5C 51.9968,69.329 50.6635,62.329 48.5,55.5C 51.5237,52.6245 52.857,48.9578 52.5,44.5 Z"/></g>
<g><path style="opacity:1" fill="#2a2a2a" d="M 60.5,44.5 C 65.4298,47.58 70.2632,50.9134 75,54.5C 76.1564,58.4183 76.6564,62.4183 76.5,66.5C 73.0834,69.2546 69.4167,71.588 65.5,73.5C 64.2227,72.3064 63.5561,70.6397 63.5,68.5C 62.9184,64.1819 62.585,59.8485 62.5,55.5C 61.9688,53.4559 60.8022,51.7893 59,50.5C 58.8333,49.5 58.6667,48.5 58.5,47.5C 58.6399,45.9704 59.3065,44.9704 60.5,44.5 Z"/></g>
<g><path style="opacity:1" fill="#4a4a4a" d="M 25.5,52.5 C 25.2756,56.1788 24.9422,59.8455 24.5,63.5C 23.1667,62.8333 22.1667,61.8333 21.5,60.5C 21.7936,57.2459 23.127,54.5792 25.5,52.5 Z"/></g>
<g><path style="opacity:1" fill="#484848" d="M 41.5,41.5 C 42.1667,41.5 42.5,41.8333 42.5,42.5C 40.8372,44.4385 40.1706,46.7718 40.5,49.5C 39.1266,49.3433 37.7932,49.51 36.5,50C 37.2266,51.3988 37.7266,52.8988 38,54.5C 38.3333,53.8333 38.6667,53.1667 39,52.5C 40.7671,60.0864 42.2671,67.753 43.5,75.5C 37.9236,74.9092 33.2569,72.5759 29.5,68.5C 30.0431,68.44 30.3764,68.1067 30.5,67.5C 29.1566,62.4749 27.8233,57.4749 26.5,52.5C 29.7174,50.5826 33.0508,48.7493 36.5,47C 37.8334,44.8094 39.5,42.976 41.5,41.5 Z"/></g>
<g><path style="opacity:1" fill="#2a2a2a" d="M 25.5,52.5 C 25.8333,52.5 26.1667,52.5 26.5,52.5C 27.8233,57.4749 29.1566,62.4749 30.5,67.5C 30.3764,68.1067 30.0431,68.44 29.5,68.5C 27.5,67.1667 25.8333,65.5 24.5,63.5C 24.9422,59.8455 25.2756,56.1788 25.5,52.5 Z"/></g>
<g><path style="opacity:1" fill="#3a3a3a" d="M 42.5,42.5 C 43.1667,43.8333 43.8333,45.1667 44.5,46.5C 45.8333,49.5 47.1667,52.5 48.5,55.5C 50.6635,62.329 51.9968,69.329 52.5,76.5C 49.3915,76.7359 46.3915,76.4025 43.5,75.5C 42.2671,67.753 40.7671,60.0864 39,52.5C 38.6667,53.1667 38.3333,53.8333 38,54.5C 37.7266,52.8988 37.2266,51.3988 36.5,50C 37.7932,49.51 39.1266,49.3433 40.5,49.5C 40.1706,46.7718 40.8372,44.4385 42.5,42.5 Z"/></g>
<g><path style="opacity:1" fill="#212121" d="M 41.5,50.5 C 42.7927,49.3552 43.9593,49.6885 45,51.5C 47.6862,59.2845 49.1862,67.2845 49.5,75.5C 48.5,75.5 47.5,75.5 46.5,75.5C 45.8353,66.5796 44.1687,58.2463 41.5,50.5 Z"/></g>
</svg>
