<?xml version="1.0" encoding="UTF-8"?>
<!DOCTYPE svg PUBLIC "-//W3C//DTD SVG 1.1//EN" "http://www.w3.org/Graphics/SVG/1.1/DTD/svg11.dtd">
<svg xmlns="http://www.w3.org/2000/svg" version="1.1" width="130px" height="130px" style="shape-rendering:geometricPrecision; text-rendering:geometricPrecision; image-rendering:optimizeQuality; fill-rule:evenodd; clip-rule:evenodd" xmlns:xlink="http://www.w3.org/1999/xlink">
<g><path style="opacity:0.986" fill="#e5e5e5" d="M 53.5,-0.5 C 60.8333,-0.5 68.1667,-0.5 75.5,-0.5C 104.5,6.5 122.5,24.5 129.5,53.5C 129.5,60.8333 129.5,68.1667 129.5,75.5C 122.5,104.5 104.5,122.5 75.5,129.5C 68.1667,129.5 60.8333,129.5 53.5,129.5C 24.5,122.5 6.5,104.5 -0.5,75.5C -0.5,68.1667 -0.5,60.8333 -0.5,53.5C 6.5,24.5 24.5,6.5 53.5,-0.5 Z"/></g>
<g><path style="opacity:1" fill="#4f4f4f" d="M 92.5,92.5 C 89.9158,92.4312 87.9158,91.2645 86.5,89C 71.5037,88.5001 56.5037,88.3334 41.5,88.5C 40.5,87.8333 39.5,87.1667 38.5,86.5C 37.1667,74.5 37.1667,62.5 38.5,50.5C 40.0269,50.573 41.0269,49.9063 41.5,48.5C 42.675,48.719 43.675,48.3857 44.5,47.5C 44.3764,46.8933 44.0431,46.56 43.5,46.5C 41.8729,44.3702 40.0396,42.3702 38,40.5C 37.51,39.2068 37.3433,37.8734 37.5,36.5C 38.552,36.3505 39.552,36.5172 40.5,37C 57.6667,54.1667 74.8333,71.3333 92,88.5C 92.49,89.7932 92.6567,91.1266 92.5,92.5 Z"/></g>
<g><path style="opacity:1" fill="#616161" d="M 73.5,42.5 C 67.4018,41.8833 61.7351,42.55 56.5,44.5C 55.596,43.791 55.2627,42.791 55.5,41.5C 61.69,41.1771 67.69,41.5104 73.5,42.5 Z"/></g>
<g><path style="opacity:1" fill="#565656" d="M 73.5,42.5 C 73.427,44.0269 74.0937,45.0269 75.5,45.5C 79.2928,48.007 83.6261,49.1737 88.5,49C 90.286,49.7845 91.786,50.9512 93,52.5C 93.6667,61.1667 93.6667,69.8333 93,78.5C 91.9505,79.5171 90.7839,79.6838 89.5,79C 88.5168,70.5851 88.1834,62.0851 88.5,53.5C 84.2392,51.726 79.5725,50.726 74.5,50.5C 73.3994,49.1516 72.3994,47.6516 71.5,46C 66.3165,45.8261 61.3165,45.3261 56.5,44.5C 61.7351,42.55 67.4018,41.8833 73.5,42.5 Z"/></g>
<g><path style="opacity:1" fill="#6b6b6b" d="M 73.5,42.5 C 74.9063,42.9731 75.573,43.9731 75.5,45.5C 74.0937,45.0269 73.427,44.0269 73.5,42.5 Z"/></g>
<g><path style="opacity:1" fill="#a6a6a6" d="M 43.5,46.5 C 44.0431,46.56 44.3764,46.8933 44.5,47.5C 43.675,48.3857 42.675,48.719 41.5,48.5C 42.1667,47.8333 42.8333,47.1667 43.5,46.5 Z"/></g>
<g><path style="opacity:1" fill="#848484" d="M 41.5,48.5 C 41.0269,49.9063 40.0269,50.573 38.5,50.5C 38.9731,49.0937 39.9731,48.427 41.5,48.5 Z"/></g>
<g><path style="opacity:1" fill="#626262" d="M 74.5,50.5 C 79.5725,50.726 84.2392,51.726 88.5,53.5C 84.2504,52.7275 79.9171,52.2275 75.5,52C 74.944,51.6174 74.6107,51.1174 74.5,50.5 Z"/></g>
<g><path style="opacity:1" fill="#e1e1e1" d="M 50.5,53.5 C 55.9585,56.5022 56.9585,60.6688 53.5,66C 54.5202,76.8679 60.1869,80.7012 70.5,77.5C 71.8333,77.5 73.1667,77.5 74.5,77.5C 74.8333,78.5 75.5,79.1667 76.5,79.5C 76.4142,80.4959 76.7476,81.3292 77.5,82C 65.8381,82.4999 54.1714,82.6665 42.5,82.5C 42.5,72.8333 42.5,63.1667 42.5,53.5C 45.1667,53.5 47.8333,53.5 50.5,53.5 Z"/></g>
<g><path style="opacity:1" fill="#8e8e8e" d="M 38.5,50.5 C 37.1667,62.5 37.1667,74.5 38.5,86.5C 37.8826,86.3893 37.3826,86.056 37,85.5C 36.3333,74.1667 36.3333,62.8333 37,51.5C 37.3826,50.944 37.8826,50.6107 38.5,50.5 Z"/></g>
<g><path style="opacity:1" fill="#ababab" d="M 63.5,66.5 C 61.9557,66.2969 60.6223,65.6302 59.5,64.5C 58.5344,66.396 58.2011,68.396 58.5,70.5C 57.1857,68.1047 57.1857,65.6047 58.5,63C 60.7715,63.0768 62.4382,64.2435 63.5,66.5 Z"/></g>
<g><path style="opacity:1" fill="#d6d6d6" d="M 63.5,66.5 C 65.5,67.8333 67.1667,69.5 68.5,71.5C 68.4431,72.609 68.1098,73.609 67.5,74.5C 63.4251,75.341 60.4251,74.0076 58.5,70.5C 58.2011,68.396 58.5344,66.396 59.5,64.5C 60.6223,65.6302 61.9557,66.2969 63.5,66.5 Z"/></g>
<g><path style="opacity:1" fill="#747474" d="M 68.5,71.5 C 69.8852,72.9473 69.5518,73.9473 67.5,74.5C 68.1098,73.609 68.4431,72.609 68.5,71.5 Z"/></g>
<g><path style="opacity:1" fill="#a6a6a6" d="M 74.5,77.5 C 73.1667,77.5 71.8333,77.5 70.5,77.5C 71.8333,74.8333 73.1667,74.8333 74.5,77.5 Z"/></g>
<g><path style="opacity:1" fill="#c2c2c2" d="M 50.5,53.5 C 47.8333,53.5 45.1667,53.5 42.5,53.5C 42.5,63.1667 42.5,72.8333 42.5,82.5C 54.1714,82.6665 65.8381,82.4999 77.5,82C 76.7476,81.3292 76.4142,80.4959 76.5,79.5C 77.5,79.8333 78.1667,80.5 78.5,81.5C 66.8799,83.4791 54.8799,84.1458 42.5,83.5C 41.8826,83.3893 41.3826,83.056 41,82.5C 40.3333,72.8333 40.3333,63.1667 41,53.5C 44.2688,52.1816 47.4355,52.1816 50.5,53.5 Z"/></g>
<g><path style="opacity:1" fill="#8e8e8e" d="M 78.5,81.5 C 79.4778,81.811 80.1445,82.4777 80.5,83.5C 67.6729,84.825 55.0062,84.825 42.5,83.5C 54.8799,84.1458 66.8799,83.4791 78.5,81.5 Z"/></g>
<g><path style="opacity:1" fill="#d0d0d0" d="M 41.5,88.5 C 56.5037,88.3334 71.5037,88.5001 86.5,89C 87.9158,91.2645 89.9158,92.4312 92.5,92.5C 89.5892,94.0083 87.2559,93.175 85.5,90C 70.6609,89.8313 55.9943,89.3313 41.5,88.5 Z"/></g>
</svg>
