<?xml version="1.0" encoding="UTF-8"?>
<!DOCTYPE svg PUBLIC "-//W3C//DTD SVG 1.1//EN" "http://www.w3.org/Graphics/SVG/1.1/DTD/svg11.dtd">
<svg xmlns="http://www.w3.org/2000/svg" version="1.1" width="83px" height="91px" style="shape-rendering:geometricPrecision; text-rendering:geometricPrecision; image-rendering:optimizeQuality; fill-rule:evenodd; clip-rule:evenodd" xmlns:xlink="http://www.w3.org/1999/xlink">
<g><path style="opacity:0.212" fill="#fcdab6" d="M 38.5,11.5 C 37.7095,12.4013 36.7095,13.0679 35.5,13.5C 35.8212,11.9519 36.8212,11.2852 38.5,11.5 Z"/></g>
<g><path style="opacity:1" fill="#f8a451" d="M 58.5,22.5 C 58.2962,25.5176 57.9629,28.5176 57.5,31.5C 57.4606,32.5832 57.1272,33.5832 56.5,34.5C 58.1491,36.6499 59.9824,38.6499 62,40.5C 62.4828,41.448 62.6495,42.448 62.5,43.5C 58.4975,43.0287 55.3308,41.0287 53,37.5C 39.8436,43.7244 31.6769,39.7244 28.5,25.5C 29.0639,23.1807 29.5639,20.8474 30,18.5C 31.0757,15.921 32.909,14.2543 35.5,13.5C 36.7095,13.0679 37.7095,12.4013 38.5,11.5C 44.9282,9.12043 50.7615,10.4538 56,15.5C 57.4114,17.6504 58.2447,19.9837 58.5,22.5 Z M 33.5,29.5 C 32.1667,26.5 32.1667,23.5 33.5,20.5C 36.9698,14.92 41.9698,13.0867 48.5,15C 57.3197,21.2489 57.653,27.9155 49.5,35C 42.5704,37.6351 37.2371,35.8017 33.5,29.5 Z"/></g>
<g><path style="opacity:0.784" fill="#fdcc9a" d="M 33.5,20.5 C 32.1667,23.5 32.1667,26.5 33.5,29.5C 30.8333,26.5 30.8333,23.5 33.5,20.5 Z"/></g>
<g><path style="opacity:0.769" fill="#fed3a7" d="M 58.5,22.5 C 59.8149,25.6274 59.4815,28.6274 57.5,31.5C 57.9629,28.5176 58.2962,25.5176 58.5,22.5 Z"/></g>
<g><path style="opacity:0.016" fill="#fdf3e8" d="M 66.5,61.5 C 67.7403,62.6588 69.0736,63.6588 70.5,64.5C 69.1779,64.33 68.0113,64.6634 67,65.5C 66.51,64.2068 66.3433,62.8734 66.5,61.5 Z"/></g>
<g><path style="opacity:0.98" fill="#fab771" d="M 21.5,60.5 C 24.3136,60.4027 26.3136,61.5693 27.5,64C 27.1667,64.5 26.8333,65 26.5,65.5C 24.5929,63.2397 22.5929,63.073 20.5,65C 22.9012,65.795 25.0679,66.9617 27,68.5C 27.5571,73.9996 25.0571,75.8329 19.5,74C 18.8333,73 18.1667,72 17.5,71C 19.6687,70.5706 21.6687,71.0706 23.5,72.5C 24.5,72.1667 25.1667,71.5 25.5,70.5C 23.0918,69.5465 20.9251,68.2132 19,66.5C 18.0339,63.6603 18.8672,61.6603 21.5,60.5 Z"/></g>
<g><path style="opacity:0.31" fill="#fbdebd" d="M 52.5,64.5 C 52.56,63.9569 52.8933,63.6236 53.5,63.5C 54.3857,64.325 54.719,65.325 54.5,66.5C 53.8333,66.5 53.1667,66.5 52.5,66.5C 53.5063,65.6043 53.5063,64.9377 52.5,64.5 Z"/></g>
<g><path style="opacity:1" fill="#f29027" d="M 49.5,64.5 C 50.5,64.5 51.5,64.5 52.5,64.5C 53.5063,64.9377 53.5063,65.6043 52.5,66.5C 50.8031,68.3052 49.9698,70.6385 50,73.5C 49.502,70.5184 49.3354,67.5184 49.5,64.5 Z"/></g>
<g><path style="opacity:0.196" fill="#fce0c1" d="M 41.5,64.5 C 39.9689,65.9245 40.3023,66.5912 42.5,66.5C 43.1667,67.8333 43.8333,67.8333 44.5,66.5C 45.0431,66.56 45.3764,66.8933 45.5,67.5C 44.3112,68.4287 42.9778,68.762 41.5,68.5C 40.7222,67.8444 40.0556,67.0111 39.5,66C 39.8361,64.9701 40.5028,64.4701 41.5,64.5 Z"/></g>
<g><path style="opacity:1" fill="#fab066" d="M 39.5,70.5 C 40.2223,71.5511 41.2223,72.2178 42.5,72.5C 43.1667,72.1667 43.8333,71.8333 44.5,71.5C 45.0431,71.44 45.3764,71.1067 45.5,70.5C 44.0508,69.8281 42.7175,69.1614 41.5,68.5C 42.9778,68.762 44.3112,68.4287 45.5,67.5C 45.3764,66.8933 45.0431,66.56 44.5,66.5C 43.8333,66.5 43.1667,66.5 42.5,66.5C 40.3023,66.5912 39.9689,65.9245 41.5,64.5C 43.2637,63.2878 44.9303,63.6212 46.5,65.5C 49.5815,73.2391 47.2482,75.9057 39.5,73.5C 38.3473,72.3132 38.3473,71.3132 39.5,70.5 Z M 44.5,71.5 C 43.8333,71.8333 43.1667,72.1667 42.5,72.5C 42.3893,71.8826 42.056,71.3826 41.5,71C 42.7494,70.2599 43.7494,70.4265 44.5,71.5 Z"/></g>
<g><path style="opacity:1" fill="#f8ab5b" d="M 37.5,69.5 C 35.076,69.1924 32.7427,69.5258 30.5,70.5C 30.6236,71.1067 30.9569,71.44 31.5,71.5C 33.4804,71.8536 35.4804,72.187 37.5,72.5C 35.5497,74.7528 33.2163,75.0861 30.5,73.5C 27.8342,69.1581 28.8342,65.8248 33.5,63.5C 36.975,64.5042 38.3084,66.5042 37.5,69.5 Z"/></g>
<g><path style="opacity:0.099" fill="#fdeedf" d="M 32.5,66.5 C 33.1667,67.8333 33.8333,67.8333 34.5,66.5C 35.0431,66.56 35.3764,66.8933 35.5,67.5C 33.9255,68.6309 32.2588,68.7975 30.5,68C 31.0442,67.2828 31.7109,66.7828 32.5,66.5 Z"/></g>
<g><path style="opacity:0.044" fill="#fdefe0" d="M 49.5,64.5 C 49.3354,67.5184 49.502,70.5184 50,73.5C 49.9698,70.6385 50.8031,68.3052 52.5,66.5C 51.612,69.0545 51.2786,71.7212 51.5,74.5C 50.5,74.5 49.5,74.5 48.5,74.5C 48.1872,70.9581 48.5206,67.6248 49.5,64.5 Z"/></g>
<g><path style="opacity:1" fill="#fab771" d="M 66.5,61.5 C 66.3433,62.8734 66.51,64.2068 67,65.5C 68.0113,64.6634 69.1779,64.33 70.5,64.5C 71.9311,64.8807 72.7645,65.8807 73,67.5C 73.4966,69.8098 73.6633,72.1432 73.5,74.5C 72.5,74.5 71.5,74.5 70.5,74.5C 70.6633,72.1432 70.4966,69.8098 70,67.5C 69.586,67.0426 69.086,66.7093 68.5,66.5C 67.6858,68.7662 67.1858,71.0995 67,73.5C 66.586,73.9574 66.086,74.2907 65.5,74.5C 65.1667,72.3333 64.8333,70.1667 64.5,68C 64.5332,65.3897 65.1999,63.223 66.5,61.5 Z"/></g>
<g><path style="opacity:0.357" fill="#f9d6ad" d="M 37.5,69.5 C 35.5,70.1667 33.5,70.8333 31.5,71.5C 30.9569,71.44 30.6236,71.1067 30.5,70.5C 32.7427,69.5258 35.076,69.1924 37.5,69.5 Z"/></g>
<g><path style="opacity:1" fill="#fcc48a" d="M 41.5,68.5 C 42.7175,69.1614 44.0508,69.8281 45.5,70.5C 45.3764,71.1067 45.0431,71.44 44.5,71.5C 43.7494,70.4265 42.7494,70.2599 41.5,71C 42.056,71.3826 42.3893,71.8826 42.5,72.5C 41.2223,72.2178 40.2223,71.5511 39.5,70.5C 39.5,69.1667 40.1667,68.5 41.5,68.5 Z"/></g>
<g><path style="opacity:1" fill="#fab670" d="M 54.5,66.5 C 57.823,62.4796 60.823,62.6463 63.5,67C 61.5116,67.1805 59.5116,67.0138 57.5,66.5C 56.5177,71.7169 58.0177,73.0503 62,70.5C 62.5,71 63,71.5 63.5,72C 57.0478,76.4172 54.0478,74.5838 54.5,66.5 Z"/></g>
</svg>
