<?xml version="1.0" encoding="UTF-8"?>
<!DOCTYPE svg PUBLIC "-//W3C//DTD SVG 1.1//EN" "http://www.w3.org/Graphics/SVG/1.1/DTD/svg11.dtd">
<svg xmlns="http://www.w3.org/2000/svg" version="1.1" width="67px" height="80px" style="shape-rendering:geometricPrecision; text-rendering:geometricPrecision; image-rendering:optimizeQuality; fill-rule:evenodd; clip-rule:evenodd" xmlns:xlink="http://www.w3.org/1999/xlink">
<g><path style="opacity:1" fill="#f8a451" d="M 44.5,15.5 C 42.8212,15.2852 41.8212,15.9519 41.5,17.5C 38.5178,15.5258 35.5178,13.5258 32.5,11.5C 28.6267,13.9314 24.9601,16.598 21.5,19.5C 21.1788,17.9519 20.1788,17.2852 18.5,17.5C 22.5321,13.3054 27.0321,9.6387 32,6.5C 36.6582,8.90352 40.8249,11.9035 44.5,15.5 Z"/></g>
<g><path style="opacity:1" fill="#f49433" d="M 44.5,15.5 C 45.5,16.1667 46.5,16.8333 47.5,17.5C 48.4337,25.111 48.7671,32.7777 48.5,40.5C 48.1667,41.5 47.5,42.1667 46.5,42.5C 36.4478,42.7838 26.4478,42.4504 16.5,41.5C 15.3448,34.3451 15.1782,27.0118 16,19.5C 16.4169,18.244 17.2502,17.5774 18.5,17.5C 20.1788,17.2852 21.1788,17.9519 21.5,19.5C 20.8826,19.6107 20.3826,19.944 20,20.5C 19.5005,26.8246 19.3338,33.1579 19.5,39.5C 21.6074,40.4682 23.9407,40.8016 26.5,40.5C 26.5,34.8333 26.5,29.1667 26.5,23.5C 30.5,23.5 34.5,23.5 38.5,23.5C 38.5,29.1667 38.5,34.8333 38.5,40.5C 41.0593,40.8016 43.3926,40.4682 45.5,39.5C 45.6662,33.1579 45.4995,26.8246 45,20.5C 43.4815,19.8366 42.3149,18.8366 41.5,17.5C 41.8212,15.9519 42.8212,15.2852 44.5,15.5 Z M 29.5,27.5 C 31.5,27.5 33.5,27.5 35.5,27.5C 35.5,31.5 35.5,35.5 35.5,39.5C 33.5,39.5 31.5,39.5 29.5,39.5C 29.5,35.5 29.5,31.5 29.5,27.5 Z"/></g>
<g><path style="opacity:0.366" fill="#fad8b0" d="M 47.5,17.5 C 48.1174,17.6107 48.6174,17.944 49,18.5C 49.8218,26.0118 49.6552,33.3451 48.5,40.5C 48.7671,32.7777 48.4337,25.111 47.5,17.5 Z"/></g>
<g><path style="opacity:0.459" fill="#f9ce9b" d="M 26.5,23.5 C 26.5,29.1667 26.5,34.8333 26.5,40.5C 23.9407,40.8016 21.6074,40.4682 19.5,39.5C 21.5,39.5 23.5,39.5 25.5,39.5C 25.1786,33.9738 25.5119,28.6405 26.5,23.5 Z"/></g>
<g><path style="opacity:0.37" fill="#fad6ab" d="M 38.5,23.5 C 39.4881,28.6405 39.8214,33.9738 39.5,39.5C 41.5,39.5 43.5,39.5 45.5,39.5C 43.3926,40.4682 41.0593,40.8016 38.5,40.5C 38.5,34.8333 38.5,29.1667 38.5,23.5 Z"/></g>
<g><path style="opacity:0.38" fill="#fad4a9" d="M 28.5,26.5 C 31.1667,26.5 33.8333,26.5 36.5,26.5C 36.5,31.1667 36.5,35.8333 36.5,40.5C 33.8333,40.5 31.1667,40.5 28.5,40.5C 28.5,35.8333 28.5,31.1667 28.5,26.5 Z M 29.5,27.5 C 29.5,31.5 29.5,35.5 29.5,39.5C 31.5,39.5 33.5,39.5 35.5,39.5C 35.5,35.5 35.5,31.5 35.5,27.5C 33.5,27.5 31.5,27.5 29.5,27.5 Z"/></g>
<g><path style="opacity:0.534" fill="#f8c78f" d="M 16.5,41.5 C 26.4478,42.4504 36.4478,42.7838 46.5,42.5C 37.0089,43.658 27.3422,43.8246 17.5,43C 16.944,42.6174 16.6107,42.1174 16.5,41.5 Z"/></g>
<g><path style="opacity:0.369" fill="#fad8b0" d="M 10.5,59.5 C 10.1832,63.7016 10.5166,67.7016 11.5,71.5C 11.44,72.0431 11.1067,72.3764 10.5,72.5C 9.18894,68.0162 9.18894,63.6829 10.5,59.5 Z"/></g>
<g><path style="opacity:0.224" fill="#fbe1c4" d="M 19.5,59.5 C 20.8111,63.6829 20.8111,68.0162 19.5,72.5C 18.8933,72.3764 18.56,72.0431 18.5,71.5C 19.4834,67.7016 19.8168,63.7016 19.5,59.5 Z"/></g>
<g><path style="opacity:1" fill="#fab56e" d="M 25.5,61.5 C 30.755,62.6766 32.255,65.6766 30,70.5C 25.8091,73.5738 22.9758,72.5738 21.5,67.5C 21.8662,64.7441 23.1995,62.7441 25.5,61.5 Z M 25.5,64.5 C 27.4841,64.484 28.4841,65.484 28.5,67.5C 27.1373,71.362 25.4706,71.362 23.5,67.5C 24.1925,66.4822 24.8592,65.4822 25.5,64.5 Z"/></g>
<g><path style="opacity:0.875" fill="#f5a44c" d="M 44.5,63.5 C 44.8064,66.3854 44.4731,69.0521 43.5,71.5C 43.6621,69.4727 43.4955,67.4727 43,65.5C 42,64.1667 41,64.1667 40,65.5C 39.5045,67.4727 39.3379,69.4727 39.5,71.5C 38.8333,69.1667 38.1667,66.8333 37.5,64.5C 36.5041,64.4142 35.6708,64.7476 35,65.5C 34.8142,67.9005 34.3142,70.2338 33.5,72.5C 32.513,69.2317 32.1796,65.8984 32.5,62.5C 35.6656,61.8655 38.8322,61.5322 42,61.5C 42.9947,62.0659 43.828,62.7326 44.5,63.5 Z"/></g>
<g><path style="opacity:1" fill="#f59839" d="M 10.5,59.5 C 10.8333,59.5 11.1667,59.5 11.5,59.5C 11.5,61.5 11.5,63.5 11.5,65.5C 13.8333,65.5 16.1667,65.5 18.5,65.5C 18.5,63.5 18.5,61.5 18.5,59.5C 18.8333,59.5 19.1667,59.5 19.5,59.5C 19.8168,63.7016 19.4834,67.7016 18.5,71.5C 17.8333,69.8333 17.1667,68.1667 16.5,66.5C 14.8333,66.5 13.1667,66.5 11.5,66.5C 11.5,68.1667 11.5,69.8333 11.5,71.5C 10.5166,67.7016 10.1832,63.7016 10.5,59.5 Z"/></g>
<g><path style="opacity:0.586" fill="#fbd5ab" d="M 11.5,59.5 C 12.4511,60.9187 12.7845,62.5853 12.5,64.5C 14.1667,64.5 15.8333,64.5 17.5,64.5C 17.2155,62.5853 17.5489,60.9187 18.5,59.5C 18.5,61.5 18.5,63.5 18.5,65.5C 16.1667,65.5 13.8333,65.5 11.5,65.5C 11.5,63.5 11.5,61.5 11.5,59.5 Z"/></g>
<g><path style="opacity:0.271" fill="#fbdbb7" d="M 37.5,64.5 C 38.1667,66.8333 38.8333,69.1667 39.5,71.5C 39.44,72.0431 39.1067,72.3764 38.5,72.5C 37.52,69.9135 37.1866,67.2469 37.5,64.5 Z"/></g>
<g><path style="opacity:0.544" fill="#f8cc97" d="M 44.5,63.5 C 45.8032,66.3553 45.8032,69.3553 44.5,72.5C 43.8933,72.3764 43.56,72.0431 43.5,71.5C 44.4731,69.0521 44.8064,66.3854 44.5,63.5 Z"/></g>
<g><path style="opacity:0.016" fill="#fdf5ea" d="M 16.5,66.5 C 15.4324,67.4345 14.099,67.7678 12.5,67.5C 12.7678,69.099 12.4345,70.4324 11.5,71.5C 11.5,69.8333 11.5,68.1667 11.5,66.5C 13.1667,66.5 14.8333,66.5 16.5,66.5 Z"/></g>
<g><path style="opacity:1" fill="#fab56d" d="M 50.5,61.5 C 53.9366,61.7701 55.9366,63.6034 56.5,67C 54.3766,68.1937 52.0432,68.8603 49.5,69C 50.7869,70.7859 52.2869,70.9526 54,69.5C 55.8261,70.0104 55.9928,70.8438 54.5,72C 48.8326,73.3277 46.3326,71.1611 47,65.5C 47.6897,63.6498 48.8564,62.3164 50.5,61.5 Z"/></g>
<g><path style="opacity:0.087" fill="#fdeddb" d="M 50.5,64.5 C 51.1667,65.8333 51.8333,65.8333 52.5,64.5C 53.0431,64.56 53.3764,64.8933 53.5,65.5C 51.9255,66.6309 50.2588,66.7975 48.5,66C 49.0442,65.2828 49.7109,64.7828 50.5,64.5 Z"/></g>
</svg>
