<?xml version="1.0" encoding="UTF-8"?>
<!DOCTYPE svg PUBLIC "-//W3C//DTD SVG 1.1//EN" "http://www.w3.org/Graphics/SVG/1.1/DTD/svg11.dtd">
<svg xmlns="http://www.w3.org/2000/svg" version="1.1" width="127px" height="127px" style="shape-rendering:geometricPrecision; text-rendering:geometricPrecision; image-rendering:optimizeQuality; fill-rule:evenodd; clip-rule:evenodd" xmlns:xlink="http://www.w3.org/1999/xlink">
<g><path style="opacity:0.987" fill="#e5e5e5" d="M 51.5,-0.5 C 59.1667,-0.5 66.8333,-0.5 74.5,-0.5C 102.167,6.5 119.5,23.8333 126.5,51.5C 126.5,59.1667 126.5,66.8333 126.5,74.5C 119.5,102.167 102.167,119.5 74.5,126.5C 66.8333,126.5 59.1667,126.5 51.5,126.5C 23.8333,119.5 6.5,102.167 -0.5,74.5C -0.5,66.8333 -0.5,59.1667 -0.5,51.5C 6.5,23.8333 23.8333,6.5 51.5,-0.5 Z"/></g>
<g><path style="opacity:1" fill="#575757" d="M 47.5,40.5 C 51.7675,40.203 55.9341,40.5363 60,41.5C 60.8226,55.4083 60.6559,69.2417 59.5,83C 55.2452,83.7961 51.0785,83.6295 47,82.5C 46.1855,68.4252 46.3522,54.4252 47.5,40.5 Z"/></g>
<g><path style="opacity:1" fill="#515151" d="M 66.5,40.5 C 70.7675,40.203 74.9341,40.5363 79,41.5C 79.4999,55.1626 79.6666,68.8293 79.5,82.5C 74.8333,82.5 70.1667,82.5 65.5,82.5C 65.1849,68.4213 65.5182,54.4213 66.5,40.5 Z"/></g>
<g><path style="opacity:1" fill="#9c9c9c" d="M 69.5,44.5 C 71.5,44.5 73.5,44.5 75.5,44.5C 75.5,56.1667 75.5,67.8333 75.5,79.5C 73.5,79.5 71.5,79.5 69.5,79.5C 69.5,67.8333 69.5,56.1667 69.5,44.5 Z"/></g>
<g><path style="opacity:1" fill="#e2e2e2" d="M 51.5,45.5 C 52.8333,45.5 54.1667,45.5 55.5,45.5C 55.5,56.5 55.5,67.5 55.5,78.5C 54.1667,78.5 52.8333,78.5 51.5,78.5C 51.5,67.5 51.5,56.5 51.5,45.5 Z"/></g>
<g><path style="opacity:1" fill="#9b9b9b" d="M 51.5,45.5 C 52.9187,44.5489 54.5853,44.2155 56.5,44.5C 56.5,56.1667 56.5,67.8333 56.5,79.5C 54.5853,79.7845 52.9187,79.4511 51.5,78.5C 52.8333,78.5 54.1667,78.5 55.5,78.5C 55.5,67.5 55.5,56.5 55.5,45.5C 54.1667,45.5 52.8333,45.5 51.5,45.5 Z"/></g>
<g><path style="opacity:1" fill="#e4e4e4" d="M 70.5,45.5 C 71.8333,45.5 73.1667,45.5 74.5,45.5C 74.5,56.5 74.5,67.5 74.5,78.5C 73.1667,78.5 71.8333,78.5 70.5,78.5C 70.5,67.5 70.5,56.5 70.5,45.5 Z"/></g>
</svg>
