<?xml version="1.0" encoding="UTF-8"?>
<!DOCTYPE svg PUBLIC "-//W3C//DTD SVG 1.1//EN" "http://www.w3.org/Graphics/SVG/1.1/DTD/svg11.dtd">
<svg xmlns="http://www.w3.org/2000/svg" version="1.1" width="77px" height="66px" style="shape-rendering:geometricPrecision; text-rendering:geometricPrecision; image-rendering:optimizeQuality; fill-rule:evenodd; clip-rule:evenodd" xmlns:xlink="http://www.w3.org/1999/xlink">
<g><path style="opacity:0.885" fill="#7a7a7a" d="M 19.5,11.5 C 29.0794,9.44798 33.7461,13.2813 33.5,23C 33.6464,25.0342 32.9797,26.7009 31.5,28C 33.3333,31.1667 35.8333,33.6667 39,35.5C 44.1125,32.9563 49.1125,33.2896 54,36.5C 56.1155,41.1114 55.9488,45.6114 53.5,50C 37.8637,50.5833 26.3637,43.75 19,29.5C 17.5257,25.5784 16.359,21.5784 15.5,17.5C 15.937,14.775 17.2704,12.775 19.5,11.5 Z M 21.5,15.5 C 23.7925,15.2436 25.9592,15.5769 28,16.5C 28.5,18.5 29,20.5 29.5,22.5C 28.723,24.4466 27.723,26.2799 26.5,28C 29.3333,33.5 33.5,37.6667 39,40.5C 40.7201,39.277 42.5534,38.277 44.5,37.5C 51.262,37.6035 53.262,40.7702 50.5,47C 35.1931,45.038 25.3598,36.538 21,21.5C 20.3224,19.4024 20.4891,17.4024 21.5,15.5 Z"/></g>
</svg>
