<?xml version="1.0" encoding="UTF-8"?>
<!DOCTYPE svg PUBLIC "-//W3C//DTD SVG 1.1//EN" "http://www.w3.org/Graphics/SVG/1.1/DTD/svg11.dtd">
<svg xmlns="http://www.w3.org/2000/svg" version="1.1" width="104px" height="129px" style="shape-rendering:geometricPrecision; text-rendering:geometricPrecision; image-rendering:optimizeQuality; fill-rule:evenodd; clip-rule:evenodd" xmlns:xlink="http://www.w3.org/1999/xlink">
<g><path style="opacity:0.96" fill="#696b6d" d="M 44.5,10.5 C 48.226,10.1774 51.8927,10.5108 55.5,11.5C 55.1445,12.5223 54.4778,13.189 53.5,13.5C 52.5514,12.8476 51.3847,12.5143 50,12.5C 47.9919,12.3068 46.4919,12.9735 45.5,14.5C 39.9556,19.9743 40.2889,25.141 46.5,30C 49.146,30.4974 51.8127,30.6641 54.5,30.5C 56.0481,30.8212 56.7148,31.8212 56.5,33.5C 48.2622,37.0282 42.0956,34.6949 38,26.5C 36.993,21.8887 37.6597,17.5554 40,13.5C 41.129,11.8588 42.629,10.8588 44.5,10.5 Z"/></g>
<g><path style="opacity:0.061" fill="#dbdbdc" d="M 53.5,13.5 C 50.7628,13.4013 48.0961,13.7347 45.5,14.5C 46.4919,12.9735 47.9919,12.3068 50,12.5C 51.3847,12.5143 52.5514,12.8476 53.5,13.5 Z"/></g>
<g><path style="opacity:0.966" fill="#717274" d="M 56.5,33.5 C 56.7148,31.8212 56.0481,30.8212 54.5,30.5C 61.395,24.3358 61.0616,18.6691 53.5,13.5C 54.4778,13.189 55.1445,12.5223 55.5,11.5C 51.8927,10.5108 48.226,10.1774 44.5,10.5C 51.6475,7.15623 57.4808,8.8229 62,15.5C 65.0509,23.1721 63.2176,29.1721 56.5,33.5 Z"/></g>
<g><path style="opacity:0.986" fill="#6f7173" d="M 62.5,39.5 C 60.8624,40.7046 60.5291,42.0379 61.5,43.5C 53.6813,40.6146 46.0146,40.948 38.5,44.5C 38.5858,43.5041 38.2524,42.6708 37.5,42C 38.3805,41.2917 39.0472,40.4584 39.5,39.5C 47.0895,35.5161 54.7562,35.5161 62.5,39.5 Z"/></g>
<g><path style="opacity:0.975" fill="#696b6d" d="M 39.5,39.5 C 39.0472,40.4584 38.3805,41.2917 37.5,42C 38.2524,42.6708 38.5858,43.5041 38.5,44.5C 35.7955,46.8598 35.2955,49.5265 37,52.5C 38.9651,54.5503 41.1318,56.217 43.5,57.5C 41.4176,57.528 39.5843,56.8613 38,55.5C 37.6174,56.056 37.1174,56.3893 36.5,56.5C 35.8333,56.1667 35.1667,55.8333 34.5,55.5C 30.055,48.4906 31.7217,43.1573 39.5,39.5 Z"/></g>
<g><path style="opacity:0.989" fill="#696a6d" d="M 62.5,39.5 C 69.4481,42.956 71.2815,48.2893 68,55.5C 61.0282,62.1177 52.8615,64.1177 43.5,61.5C 42.4863,60.3263 41.153,59.6596 39.5,59.5C 38.5084,59.6716 37.8417,59.3382 37.5,58.5C 37.1667,57.8333 36.8333,57.1667 36.5,56.5C 37.1174,56.3893 37.6174,56.056 38,55.5C 39.5843,56.8613 41.4176,57.528 43.5,57.5C 50.6158,58.9772 57.2824,57.8105 63.5,54C 66.4105,49.8101 65.7439,46.3101 61.5,43.5C 60.5291,42.0379 60.8624,40.7046 62.5,39.5 Z"/></g>
<g><path style="opacity:0.004" fill="#d4d5d5" d="M 34.5,55.5 C 35.1667,55.8333 35.8333,56.1667 36.5,56.5C 36.8333,57.1667 37.1667,57.8333 37.5,58.5C 35.5,58.5 34.5,57.5 34.5,55.5 Z"/></g>
<g><path style="opacity:0.039" fill="#e5e5e5" d="M 39.5,59.5 C 41.153,59.6596 42.4863,60.3263 43.5,61.5C 41.6203,61.7709 40.287,61.1042 39.5,59.5 Z"/></g>
<g><path style="opacity:0.686" fill="#959698" d="M 56.5,87.5 C 57.9187,86.5489 59.5853,86.2155 61.5,86.5C 61.5,87.5 61.5,88.5 61.5,89.5C 60.5,89.5 59.5,89.5 58.5,89.5C 58.9175,88.7784 59.5842,88.2784 60.5,88C 59.2068,87.51 57.8734,87.3433 56.5,87.5 Z"/></g>
<g><path style="opacity:0.272" fill="#bbbcbd" d="M 14.5,87.5 C 13.88,93.9262 14.5467,99.9262 16.5,105.5C 15.791,106.404 14.791,106.737 13.5,106.5C 13.1765,99.9779 13.5098,93.6446 14.5,87.5 Z"/></g>
<g><path style="opacity:0.898" fill="#454649" d="M 56.5,87.5 C 57.8734,87.3433 59.2068,87.51 60.5,88C 59.5842,88.2784 58.9175,88.7784 58.5,89.5C 57.596,90.209 57.2627,91.209 57.5,92.5C 61.5,92.8333 61.5,93.1667 57.5,93.5C 57.5,97.8333 57.5,102.167 57.5,106.5C 56.8333,106.5 56.1667,106.5 55.5,106.5C 56.0653,101.678 55.3987,97.1778 53.5,93C 54.9733,92.2904 55.6399,91.1238 55.5,89.5C 55.3284,88.5084 55.6618,87.8417 56.5,87.5 Z"/></g>
<g><path style="opacity:0.957" fill="#696b6d" d="M 63.5,87.5 C 66.1667,88.1667 66.1667,88.8333 63.5,89.5C 62.1667,88.8333 62.1667,88.1667 63.5,87.5 Z"/></g>
<g><path style="opacity:0.6" fill="#a3a4a5" d="M 63.5,87.5 C 64.209,86.596 65.209,86.2627 66.5,86.5C 66.5,87.8333 66.5,89.1667 66.5,90.5C 65.209,90.7373 64.209,90.404 63.5,89.5C 66.1667,88.8333 66.1667,88.1667 63.5,87.5 Z"/></g>
<g><path style="opacity:0.603" fill="#77797b" d="M 69.5,87.5 C 70.5,87.5 71.5,87.5 72.5,87.5C 72.5,93.8333 72.5,100.167 72.5,106.5C 71.5,106.5 70.5,106.5 69.5,106.5C 69.5,100.167 69.5,93.8333 69.5,87.5 Z"/></g>
<g><path style="opacity:0.902" fill="#646568" d="M 14.5,87.5 C 17.8499,87.335 21.1832,87.5017 24.5,88C 28.467,91.6239 28.467,95.1239 24.5,98.5C 21.3019,97.9644 18.6353,98.631 16.5,100.5C 16.5,102.167 16.5,103.833 16.5,105.5C 14.5467,99.9262 13.88,93.9262 14.5,87.5 Z M 16.5,90.5 C 19.9156,89.8941 22.5822,90.8941 24.5,93.5C 22.5822,96.1059 19.9156,97.1059 16.5,96.5C 16.5,94.5 16.5,92.5 16.5,90.5 Z"/></g>
<g><path style="opacity:0.309" fill="#b8b9ba" d="M 32.5,92.5 C 32.1667,92.5 31.8333,92.5 31.5,92.5C 30.8373,94.4726 30.5039,96.6392 30.5,99C 30.5332,101.61 31.1999,103.777 32.5,105.5C 31.791,106.404 30.791,106.737 29.5,106.5C 29.5,101.5 29.5,96.5 29.5,91.5C 30.791,91.2627 31.791,91.596 32.5,92.5 Z"/></g>
<g><path style="opacity:0.829" fill="#858789" d="M 32.5,96.5 C 32.1667,95.1667 31.8333,93.8333 31.5,92.5C 31.8333,92.5 32.1667,92.5 32.5,92.5C 34.0418,91.6993 35.7085,91.366 37.5,91.5C 37.5,92.5 37.5,93.5 37.5,94.5C 35.4862,94.3915 33.8195,95.0582 32.5,96.5 Z"/></g>
<g><path style="opacity:0.311" fill="#bbbcbd" d="M 63.5,92.5 C 64.209,91.596 65.209,91.2627 66.5,91.5C 66.8205,96.6946 66.4872,101.695 65.5,106.5C 66.1031,101.381 65.4364,96.7147 63.5,92.5 Z"/></g>
<g><path style="opacity:0.93" fill="#4f5154" d="M 63.5,92.5 C 65.4364,96.7147 66.1031,101.381 65.5,106.5C 63.5636,102.285 62.8969,97.6186 63.5,92.5 Z"/></g>
<g><path style="opacity:0.06" fill="#dfdfe0" d="M 58.5,89.5 C 58.8212,91.0481 59.8212,91.7148 61.5,91.5C 61.5,92.5 61.5,93.5 61.5,94.5C 60.5,94.5 59.5,94.5 58.5,94.5C 58.8168,98.7016 58.4834,102.702 57.5,106.5C 57.5,102.167 57.5,97.8333 57.5,93.5C 61.5,93.1667 61.5,92.8333 57.5,92.5C 57.2627,91.209 57.596,90.209 58.5,89.5 Z"/></g>
<g><path style="opacity:0.929" fill="#828385" d="M 87.5,96.5 C 85.7973,95.3398 85.1307,96.0065 85.5,98.5C 82.8333,98.5 80.1667,98.5 77.5,98.5C 77.8693,96.0065 77.2027,95.3398 75.5,96.5C 76.8432,91.9221 79.8432,90.4221 84.5,92C 86.1412,93.129 87.1412,94.629 87.5,96.5 Z M 79.5,94.5 C 81.6648,94.1159 83.3315,94.7826 84.5,96.5C 82.5,97.8333 80.5,97.8333 78.5,96.5C 78.8627,95.8165 79.1961,95.1499 79.5,94.5 Z"/></g>
<g><path style="opacity:0.011" fill="#e6e7e7" d="M 55.5,89.5 C 55.6399,91.1238 54.9733,92.2904 53.5,93C 55.3987,97.1778 56.0653,101.678 55.5,106.5C 54.9942,101.999 53.9942,97.4992 52.5,93C 53.3707,91.6362 54.3707,90.4695 55.5,89.5 Z"/></g>
<g><path style="opacity:0.677" fill="#585a5d" d="M 31.5,92.5 C 31.8333,93.8333 32.1667,95.1667 32.5,96.5C 32.5,99.5 32.5,102.5 32.5,105.5C 31.1999,103.777 30.5332,101.61 30.5,99C 30.5039,96.6392 30.8373,94.4726 31.5,92.5 Z"/></g>
<g><path style="opacity:0.9" fill="#56585a" d="M 87.5,96.5 C 87.5,97.5 87.5,98.5 87.5,99.5C 84.1667,99.5 80.8333,99.5 77.5,99.5C 77.2627,100.791 77.596,101.791 78.5,102.5C 78.5,103.167 78.5,103.833 78.5,104.5C 77.8333,104.5 77.1667,104.5 76.5,104.5C 74.5606,102.063 74.2272,99.3968 75.5,96.5C 77.2027,95.3398 77.8693,96.0065 77.5,98.5C 80.1667,98.5 82.8333,98.5 85.5,98.5C 85.1307,96.0065 85.7973,95.3398 87.5,96.5 Z"/></g>
<g><path style="opacity:0.768" fill="#808184" d="M 24.5,98.5 C 21.9471,99.2549 19.2804,99.9216 16.5,100.5C 18.6353,98.631 21.3019,97.9644 24.5,98.5 Z"/></g>
<g><path style="opacity:0.352" fill="#b7b7b8" d="M 87.5,99.5 C 84.2033,99.89 81.2033,100.89 78.5,102.5C 77.596,101.791 77.2627,100.791 77.5,99.5C 80.8333,99.5 84.1667,99.5 87.5,99.5 Z"/></g>
<g><path style="opacity:0.965" fill="#717375" d="M 42.5,91.5 C 50.4214,91.635 53.2547,95.635 51,103.5C 47,107.5 43,107.5 39,103.5C 37.5927,98.556 38.7593,94.556 42.5,91.5 Z M 43.5,94.5 C 48.1514,95.1742 49.6514,97.8408 48,102.5C 44.4479,104.979 42.2812,103.979 41.5,99.5C 41.4365,97.4861 42.1032,95.8194 43.5,94.5 Z"/></g>
<g><path style="opacity:0.027" fill="#c7c7c8" d="M 78.5,102.5 C 79.7095,102.932 80.7095,103.599 81.5,104.5C 80.5,104.5 79.5,104.5 78.5,104.5C 78.5,103.833 78.5,103.167 78.5,102.5 Z"/></g>
<g><path style="opacity:0.855" fill="#717274" d="M 79.5,106.5 C 79.1667,105.833 78.8333,105.167 78.5,104.5C 79.5,104.5 80.5,104.5 81.5,104.5C 83.0972,103.91 84.4305,102.91 85.5,101.5C 87.1013,102.035 87.6013,103.035 87,104.5C 84.9155,107.145 82.4155,107.811 79.5,106.5 Z"/></g>
<g><path style="opacity:0.357" fill="#afafb1" d="M 76.5,104.5 C 77.1667,104.5 77.8333,104.5 78.5,104.5C 78.8333,105.167 79.1667,105.833 79.5,106.5C 77.9731,106.573 76.9731,105.906 76.5,104.5 Z"/></g>
</svg>
