<?xml version="1.0" encoding="UTF-8"?>
<!DOCTYPE svg PUBLIC "-//W3C//DTD SVG 1.1//EN" "http://www.w3.org/Graphics/SVG/1.1/DTD/svg11.dtd">
<svg xmlns="http://www.w3.org/2000/svg" version="1.1" width="108px" height="108px" style="shape-rendering:geometricPrecision; text-rendering:geometricPrecision; image-rendering:optimizeQuality; fill-rule:evenodd; clip-rule:evenodd" xmlns:xlink="http://www.w3.org/1999/xlink">
<g><path style="opacity:0.987" fill="#808080" d="M 43.5,-0.5 C 50.1667,-0.5 56.8333,-0.5 63.5,-0.5C 87.1667,5.16667 101.833,19.8333 107.5,43.5C 107.5,50.1667 107.5,56.8333 107.5,63.5C 101.833,87.1667 87.1667,101.833 63.5,107.5C 56.8333,107.5 50.1667,107.5 43.5,107.5C 19.8333,101.833 5.16667,87.1667 -0.5,63.5C -0.5,56.8333 -0.5,50.1667 -0.5,43.5C 5.16667,19.8333 19.8333,5.16667 43.5,-0.5 Z"/></g>
<g><path style="opacity:1" fill="#e5e5e5" d="M 62.5,27.5 C 63.9303,28.5375 65.597,29.2041 67.5,29.5C 71.4298,31.7593 74.7631,34.7593 77.5,38.5C 77.7376,40.4044 78.7376,41.7377 80.5,42.5C 81.5729,44.6531 81.5729,46.6531 80.5,48.5C 79.1667,48.5 77.8333,48.5 76.5,48.5C 76.7373,47.209 76.404,46.209 75.5,45.5C 75.2624,43.5956 74.2624,42.2623 72.5,41.5C 70.4251,38.4209 67.7584,36.0875 64.5,34.5C 63.3646,32.7868 61.698,32.1201 59.5,32.5C 55.4862,32.3345 51.4862,32.5012 47.5,33C 46.5842,33.2784 45.9175,33.7784 45.5,34.5C 44.5084,34.3284 43.8417,34.6618 43.5,35.5C 41.5956,35.7376 40.2623,36.7376 39.5,38.5C 37.1667,40.1667 35.1667,42.1667 33.5,44.5C 33.1667,44.5 32.8333,44.5 32.5,44.5C 31.596,45.209 31.2627,46.209 31.5,47.5C 35.1667,47.5 38.8333,47.5 42.5,47.5C 43.8009,48.8845 43.8009,50.3845 42.5,52C 35.8333,52.6667 29.1667,52.6667 22.5,52C 22,51.5 21.5,51 21,50.5C 20.3333,43.8333 20.3333,37.1667 21,30.5C 22.6155,29.1991 24.1155,29.1991 25.5,30.5C 25.5,34.5 25.5,38.5 25.5,42.5C 26.791,42.7373 27.791,42.404 28.5,41.5C 28.5,41.1667 28.5,40.8333 28.5,40.5C 31.8953,37.0985 35.562,34.0985 39.5,31.5C 41.0269,31.573 42.0269,30.9063 42.5,29.5C 44.8984,29.7406 46.8984,29.0739 48.5,27.5C 53.0352,26.256 57.7019,26.256 62.5,27.5 Z"/></g>
<g><path style="opacity:1" fill="#9e9e9e" d="M 62.5,27.5 C 64.698,27.1201 66.3646,27.7868 67.5,29.5C 65.597,29.2041 63.9303,28.5375 62.5,27.5 Z"/></g>
<g><path style="opacity:1" fill="#cfcfcf" d="M 48.5,27.5 C 46.8984,29.0739 44.8984,29.7406 42.5,29.5C 44.1016,27.9261 46.1016,27.2594 48.5,27.5 Z"/></g>
<g><path style="opacity:1" fill="#cccccc" d="M 42.5,29.5 C 42.0269,30.9063 41.0269,31.573 39.5,31.5C 39.9731,30.0937 40.9731,29.427 42.5,29.5 Z"/></g>
<g><path style="opacity:1" fill="#cccccc" d="M 25.5,30.5 C 26.1667,30.5 26.5,30.8333 26.5,31.5C 25.931,35.3293 26.5977,38.6627 28.5,41.5C 27.791,42.404 26.791,42.7373 25.5,42.5C 25.5,38.5 25.5,34.5 25.5,30.5 Z"/></g>
<g><path style="opacity:1" fill="#979797" d="M 26.5,31.5 C 27.1667,34.5 27.8333,37.5 28.5,40.5C 28.5,40.8333 28.5,41.1667 28.5,41.5C 26.5977,38.6627 25.931,35.3293 26.5,31.5 Z"/></g>
<g><path style="opacity:1" fill="#c8c8c8" d="M 59.5,33.5 C 59.5,33.1667 59.5,32.8333 59.5,32.5C 61.698,32.1201 63.3646,32.7868 64.5,34.5C 62.7839,34.3713 61.1172,34.038 59.5,33.5 Z"/></g>
<g><path style="opacity:1" fill="#9a9a9a" d="M 59.5,32.5 C 59.5,32.8333 59.5,33.1667 59.5,33.5C 54.7971,33.4372 50.1304,33.7705 45.5,34.5C 45.9175,33.7784 46.5842,33.2784 47.5,33C 51.4862,32.5012 55.4862,32.3345 59.5,32.5 Z"/></g>
<g><path style="opacity:1" fill="#a0a0a0" d="M 43.5,35.5 C 42.7377,37.2624 41.4044,38.2624 39.5,38.5C 40.2623,36.7376 41.5956,35.7376 43.5,35.5 Z"/></g>
<g><path style="opacity:1" fill="#c5c5c5" d="M 77.5,38.5 C 79.2624,39.2623 80.2624,40.5956 80.5,42.5C 78.7376,41.7377 77.7376,40.4044 77.5,38.5 Z"/></g>
<g><path style="opacity:1" fill="#a1a1a1" d="M 72.5,41.5 C 74.2624,42.2623 75.2624,43.5956 75.5,45.5C 73.7376,44.7377 72.7376,43.4044 72.5,41.5 Z"/></g>
<g><path style="opacity:1" fill="#9d9d9d" d="M 32.5,44.5 C 32.8333,44.5 33.1667,44.5 33.5,44.5C 36.1667,45.1667 38.8333,45.8333 41.5,46.5C 37.9878,47.0545 34.9878,46.3878 32.5,44.5 Z"/></g>
<g><path style="opacity:1" fill="#cecece" d="M 32.5,44.5 C 34.9878,46.3878 37.9878,47.0545 41.5,46.5C 42.1667,46.5 42.5,46.8333 42.5,47.5C 38.8333,47.5 35.1667,47.5 31.5,47.5C 31.2627,46.209 31.596,45.209 32.5,44.5 Z"/></g>
<g><path style="opacity:1" fill="#a5a5a5" d="M 75.5,45.5 C 76.404,46.209 76.7373,47.209 76.5,48.5C 77.8333,48.5 79.1667,48.5 80.5,48.5C 79.0813,49.4511 77.4147,49.7845 75.5,49.5C 75.5,48.1667 75.5,46.8333 75.5,45.5 Z"/></g>
<g><path style="opacity:1" fill="#e6e6e6" d="M 83.5,78.5 C 83.8204,75.1016 83.487,71.7683 82.5,68.5C 81.8933,68.6236 81.56,68.9569 81.5,69.5C 80.1667,70.1667 79.1667,71.1667 78.5,72.5C 75.5726,73.7573 73.2393,75.7573 71.5,78.5C 69.847,78.6596 68.5137,79.3263 67.5,80.5C 65.3024,80.8751 63.3024,81.5418 61.5,82.5C 55.0141,82.9189 48.6808,82.2523 42.5,80.5C 41.5084,80.6716 40.8417,80.3382 40.5,79.5C 40.0269,78.0937 39.0269,77.427 37.5,77.5C 31.6119,73.3918 28.6119,67.7251 28.5,60.5C 29.8734,60.3433 31.2068,60.51 32.5,61C 33.7929,63.0519 34.7929,65.2186 35.5,67.5C 35.427,69.0269 36.0937,70.0269 37.5,70.5C 39.2459,72.2516 41.2459,73.5849 43.5,74.5C 43.9731,75.9063 44.9731,76.573 46.5,76.5C 51.1031,77.3833 55.7697,77.7166 60.5,77.5C 62.9674,77.2451 64.9674,76.2451 66.5,74.5C 66.8417,73.6618 67.5084,73.3284 68.5,73.5C 71.7642,71.9059 74.4309,69.5725 76.5,66.5C 76.5,66.1667 76.5,65.8333 76.5,65.5C 77.0431,65.44 77.3764,65.1067 77.5,64.5C 74.5719,63.5159 71.5719,63.1826 68.5,63.5C 66.3531,62.0679 66.0198,60.2345 67.5,58C 74.1667,57.3333 80.8333,57.3333 87.5,58C 88.6456,65.0862 88.8123,72.2529 88,79.5C 86.0849,80.9156 84.5849,80.5822 83.5,78.5 Z"/></g>
<g><path style="opacity:1" fill="#a4a4a4" d="M 68.5,63.5 C 71.5719,63.1826 74.5719,63.5159 77.5,64.5C 77.3764,65.1067 77.0431,65.44 76.5,65.5C 73.8333,64.8333 71.1667,64.1667 68.5,63.5 Z"/></g>
<g><path style="opacity:1" fill="#cbcbcb" d="M 35.5,67.5 C 36.9063,67.9731 37.573,68.9731 37.5,70.5C 36.0937,70.0269 35.427,69.0269 35.5,67.5 Z"/></g>
<g><path style="opacity:1" fill="#aeaeae" d="M 81.5,69.5 C 81.56,68.9569 81.8933,68.6236 82.5,68.5C 83.487,71.7683 83.8204,75.1016 83.5,78.5C 82.8333,75.5 82.1667,72.5 81.5,69.5 Z"/></g>
<g><path style="opacity:1" fill="#cfcfcf" d="M 76.5,66.5 C 74.4309,69.5725 71.7642,71.9059 68.5,73.5C 70.5691,70.4275 73.2358,68.0941 76.5,66.5 Z"/></g>
<g><path style="opacity:1" fill="#b3b3b3" d="M 43.5,74.5 C 45.0269,74.427 46.0269,75.0937 46.5,76.5C 44.9731,76.573 43.9731,75.9063 43.5,74.5 Z"/></g>
<g><path style="opacity:1" fill="#c0c0c0" d="M 66.5,74.5 C 64.9674,76.2451 62.9674,77.2451 60.5,77.5C 62.0326,75.7549 64.0326,74.7549 66.5,74.5 Z"/></g>
<g><path style="opacity:1" fill="#9b9b9b" d="M 78.5,72.5 C 76.7607,75.2427 74.4274,77.2427 71.5,78.5C 73.2393,75.7573 75.5726,73.7573 78.5,72.5 Z"/></g>
<g><path style="opacity:1" fill="#c1c1c1" d="M 37.5,77.5 C 39.0269,77.427 40.0269,78.0937 40.5,79.5C 38.9731,79.573 37.9731,78.9063 37.5,77.5 Z"/></g>
<g><path style="opacity:1" fill="#b8b8b8" d="M 42.5,80.5 C 48.6808,82.2523 55.0141,82.9189 61.5,82.5C 56.6842,83.6497 51.6842,83.8163 46.5,83C 44.6803,82.7996 43.347,81.9663 42.5,80.5 Z"/></g>
<g><path style="opacity:1" fill="#a7a7a7" d="M 67.5,80.5 C 66.0101,82.2798 64.0101,82.9465 61.5,82.5C 63.3024,81.5418 65.3024,80.8751 67.5,80.5 Z"/></g>
</svg>
