<?xml version="1.0" encoding="UTF-8"?>
<!DOCTYPE svg PUBLIC "-//W3C//DTD SVG 1.1//EN" "http://www.w3.org/Graphics/SVG/1.1/DTD/svg11.dtd">
<svg xmlns="http://www.w3.org/2000/svg" version="1.1" width="131px" height="131px" style="shape-rendering:geometricPrecision; text-rendering:geometricPrecision; image-rendering:optimizeQuality; fill-rule:evenodd; clip-rule:evenodd" xmlns:xlink="http://www.w3.org/1999/xlink">
<g><path style="opacity:0.99" fill="#e5e5e5" d="M 53.5,-0.5 C 61.1667,-0.5 68.8333,-0.5 76.5,-0.5C 105.5,6.5 123.5,24.5 130.5,53.5C 130.5,61.1667 130.5,68.8333 130.5,76.5C 123.5,105.5 105.5,123.5 76.5,130.5C 68.8333,130.5 61.1667,130.5 53.5,130.5C 24.5,123.5 6.5,105.5 -0.5,76.5C -0.5,68.8333 -0.5,61.1667 -0.5,53.5C 6.5,24.5 24.5,6.5 53.5,-0.5 Z"/></g>
<g><path style="opacity:1" fill="#747474" d="M 71.5,45.5 C 65.7969,45.3748 60.1302,45.7081 54.5,46.5C 54.9175,45.7784 55.5842,45.2784 56.5,45C 61.6842,44.1837 66.6842,44.3503 71.5,45.5 Z"/></g>
<g><path style="opacity:1" fill="#4e4e4e" d="M 71.5,45.5 C 79.7912,48.4469 84.7912,54.1136 86.5,62.5C 85.1779,62.67 84.0113,62.3366 83,61.5C 80.8415,55.3493 76.6748,51.3493 70.5,49.5C 68.6965,48.838 66.6965,48.5046 64.5,48.5C 61.4733,48.2865 58.8066,48.9532 56.5,50.5C 51.9568,52.3717 48.2901,55.3717 45.5,59.5C 44.9569,59.56 44.6236,59.8933 44.5,60.5C 47.7683,61.487 51.1016,61.8204 54.5,61.5C 54.5,62.8333 54.5,64.1667 54.5,65.5C 48.5746,65.8082 42.7412,65.4749 37,64.5C 36.5005,58.5092 36.3338,52.5092 36.5,46.5C 37.8333,46.5 39.1667,46.5 40.5,46.5C 40.3347,50.1817 40.5014,53.8484 41,57.5C 45.1027,53.2181 49.6027,49.5515 54.5,46.5C 60.1302,45.7081 65.7969,45.3748 71.5,45.5 Z"/></g>
<g><path style="opacity:1" fill="#acacac" d="M 70.5,49.5 C 65.7971,49.4372 61.1304,49.7705 56.5,50.5C 58.8066,48.9532 61.4733,48.2865 64.5,48.5C 66.6965,48.5046 68.6965,48.838 70.5,49.5 Z"/></g>
<g><path style="opacity:1" fill="#8d8d8d" d="M 45.5,59.5 C 48.5,60.1667 51.5,60.8333 54.5,61.5C 51.1016,61.8204 47.7683,61.487 44.5,60.5C 44.6236,59.8933 44.9569,59.56 45.5,59.5 Z"/></g>
<g><path style="opacity:1" fill="#4e4e4e" d="M 74.5,70.5 C 80.5,70.5 86.5,70.5 92.5,70.5C 92.5,76.5 92.5,82.5 92.5,88.5C 91.1667,88.5 89.8333,88.5 88.5,88.5C 88.6653,84.8183 88.4986,81.1516 88,77.5C 79.013,88.9401 67.513,92.7735 53.5,89C 48.0597,85.0647 44.3931,79.898 42.5,73.5C 43.9778,73.238 45.3112,73.5713 46.5,74.5C 52.6726,86.7442 62.0059,89.9109 74.5,84C 77.9795,81.6876 80.9795,78.8542 83.5,75.5C 80.5719,74.5159 77.5719,74.1826 74.5,74.5C 74.5,73.1667 74.5,71.8333 74.5,70.5 Z"/></g>
</svg>
