<?xml version="1.0" encoding="UTF-8"?>
<!DOCTYPE svg PUBLIC "-//W3C//DTD SVG 1.1//EN" "http://www.w3.org/Graphics/SVG/1.1/DTD/svg11.dtd">
<svg xmlns="http://www.w3.org/2000/svg" version="1.1" width="138px" height="120px" style="shape-rendering:geometricPrecision; text-rendering:geometricPrecision; image-rendering:optimizeQuality; fill-rule:evenodd; clip-rule:evenodd" xmlns:xlink="http://www.w3.org/1999/xlink">
<g><path style="opacity:0.996" fill="#717477" d="M 79.5,42.5 C 79.0403,45.0949 80.3737,46.7615 83.5,47.5C 88.1425,50.0422 89.1425,53.3755 86.5,57.5C 82.7535,53.7437 78.7535,50.4104 74.5,47.5C 72.9731,47.427 71.9731,48.0937 71.5,49.5C 70.791,50.404 69.791,50.7373 68.5,50.5C 62.7969,50.6252 57.1302,50.2919 51.5,49.5C 51.0269,48.0937 50.0269,47.427 48.5,47.5C 37.664,37.8122 36.164,26.8122 44,14.5C 54.1622,4.95894 64.9955,4.12561 76.5,12C 83.0922,18.8855 85.2588,27.0522 83,36.5C 82.059,38.7274 80.8923,40.7274 79.5,42.5 Z M 68.5,13.5 C 78.48,19.4866 80.98,27.8199 76,38.5C 69.1961,46.9534 61.0294,48.6201 51.5,43.5C 50.1667,41.5 48.5,39.8333 46.5,38.5C 42.3846,28.8192 44.3846,20.8192 52.5,14.5C 57.7157,12.3483 63.049,12.0149 68.5,13.5 Z"/></g>
<g><path style="opacity:0.016" fill="#dfe0e1" d="M 68.5,13.5 C 63.049,12.0149 57.7157,12.3483 52.5,14.5C 54.9109,12.1403 57.9109,11.1403 61.5,11.5C 64.2046,11.3161 66.5379,11.9827 68.5,13.5 Z"/></g>
<g><path style="opacity:0.761" fill="#bdbec0" d="M 46.5,38.5 C 48.5,39.8333 50.1667,41.5 51.5,43.5C 48.8333,42.8333 47.1667,41.1667 46.5,38.5 Z"/></g>
<g><path style="opacity:0.624" fill="#bbbdbe" d="M 79.5,42.5 C 80.8333,44.1667 82.1667,45.8333 83.5,47.5C 80.3737,46.7615 79.0403,45.0949 79.5,42.5 Z"/></g>
<g><path style="opacity:0.169" fill="#d7d8d8" d="M 48.5,47.5 C 50.0269,47.427 51.0269,48.0937 51.5,49.5C 49.9731,49.573 48.9731,48.9063 48.5,47.5 Z"/></g>
<g><path style="opacity:0.008" fill="#e8e9e9" d="M 74.5,47.5 C 74.0269,48.9063 73.0269,49.573 71.5,49.5C 71.9731,48.0937 72.9731,47.427 74.5,47.5 Z"/></g>
<g><path style="opacity:0.71" fill="#b0b1b3" d="M 51.5,49.5 C 57.1302,50.2919 62.7969,50.6252 68.5,50.5C 62.7723,52.7209 57.1057,52.3876 51.5,49.5 Z"/></g>
<g><path style="opacity:0.572" fill="#8f9092" d="M 93.5,83.5 C 93.3338,89.5092 93.5005,95.5092 94,101.5C 94.1805,98.3054 94.6805,95.3054 95.5,92.5C 95.5,95.8333 95.5,99.1667 95.5,102.5C 94.5,102.5 93.5,102.5 92.5,102.5C 92.1765,95.9779 92.5098,89.6446 93.5,83.5 Z"/></g>
<g><path style="opacity:0.989" fill="#404245" d="M 93.5,83.5 C 93.8333,83.5 94.1667,83.5 94.5,83.5C 94.3677,86.5701 94.701,89.5701 95.5,92.5C 94.6805,95.3054 94.1805,98.3054 94,101.5C 93.5005,95.5092 93.3338,89.5092 93.5,83.5 Z"/></g>
<g><path style="opacity:1" fill="#7f8082" d="M 36.5,95.5 C 35.5178,94.8592 34.5178,94.1925 33.5,93.5C 32.8933,93.6236 32.56,93.9569 32.5,94.5C 32.1667,94.5 31.8333,94.5 31.5,94.5C 25.1095,94.6167 22.6095,91.6167 24,85.5C 27.1722,82.4961 30.6722,81.9961 34.5,84C 36.0368,85.1096 36.7035,86.6096 36.5,88.5C 34.2011,87.8621 32.0344,86.8621 30,85.5C 28.5134,86.1552 27.3467,87.1552 26.5,88.5C 29.0497,90.7367 32.0497,92.2367 35.5,93C 36.2524,93.6708 36.5858,94.5041 36.5,95.5 Z"/></g>
<g><path style="opacity:0.958" fill="#7c7e80" d="M 64.5,89.5 C 63.5084,89.3284 62.8417,89.6618 62.5,90.5C 60.1727,90.2471 58.1727,90.9137 56.5,92.5C 54.5121,91.7112 54.1787,90.5445 55.5,89C 58.8132,86.8594 61.8132,87.0261 64.5,89.5 Z"/></g>
<g><path style="opacity:0.106" fill="#dedede" d="M 69.5,88.5 C 70.5,87.1667 71.5,87.1667 72.5,88.5C 71.7978,89.1157 70.7978,89.1157 69.5,88.5 Z"/></g>
<g><path style="opacity:0.965" fill="#9a9b9d" d="M 43.5,88.5 C 43.4406,90.7645 44.2739,91.0978 46,89.5C 47.301,89.6387 48.1344,90.3054 48.5,91.5C 49.404,92.209 49.7373,93.209 49.5,94.5C 46.8333,94.5 44.1667,94.5 41.5,94.5C 41.8693,92.0065 41.2027,91.3398 39.5,92.5C 39.8333,90.1667 41.1667,88.8333 43.5,88.5 Z M 48.5,91.5 C 48.0296,92.6935 47.0296,93.3601 45.5,93.5C 41.958,93.0674 42.1247,92.0674 46,90.5C 46.6708,91.2524 47.5041,91.5858 48.5,91.5 Z"/></g>
<g><path style="opacity:0.942" fill="#717375" d="M 69.5,88.5 C 70.7978,89.1157 71.7978,89.1157 72.5,88.5C 73.7079,87.7659 75.0413,87.4326 76.5,87.5C 76.5,88.8333 76.5,90.1667 76.5,91.5C 75.1667,91.5 73.8333,91.5 72.5,91.5C 72.6653,95.1817 72.4986,98.8484 72,102.5C 71.586,102.957 71.086,103.291 70.5,103.5C 69.5059,98.544 69.1725,93.544 69.5,88.5 Z"/></g>
<g><path style="opacity:0.78" fill="#999a9b" d="M 94.5,83.5 C 95.1667,85.1667 95.8333,86.8333 96.5,88.5C 97.8333,89.1667 99.1667,89.8333 100.5,90.5C 98.4862,90.3915 96.8195,91.0582 95.5,92.5C 94.701,89.5701 94.3677,86.5701 94.5,83.5 Z"/></g>
<g><path style="opacity:0.416" fill="#b4b5b6" d="M 49.5,88.5 C 50.9063,88.9731 51.573,89.9731 51.5,91.5C 50.0937,91.0269 49.427,90.0269 49.5,88.5 Z"/></g>
<g><path style="opacity:1" fill="#57595b" d="M 103.5,90.5 C 103.665,94.1817 103.499,97.8484 103,101.5C 102.819,98.3054 102.319,95.3054 101.5,92.5C 101.167,91.8333 100.833,91.1667 100.5,90.5C 99.1667,89.8333 97.8333,89.1667 96.5,88.5C 97.9464,87.3871 99.6131,87.2204 101.5,88C 102.756,88.4169 103.423,89.2502 103.5,90.5 Z"/></g>
<g><path style="opacity:0.986" fill="#6e7072" d="M 41.5,94.5 C 41.5,94.8333 41.5,95.1667 41.5,95.5C 41.2627,96.791 41.596,97.791 42.5,98.5C 45.2047,101.056 47.7047,100.723 50,97.5C 51.982,99.8316 51.482,101.665 48.5,103C 41.1745,103.496 38.1745,99.9962 39.5,92.5C 41.2027,91.3398 41.8693,92.0065 41.5,94.5 Z"/></g>
<g><path style="opacity:0.061" fill="#e0e0e1" d="M 65.5,91.5 C 66.6433,94.9758 66.8099,98.6425 66,102.5C 64.5861,103.413 63.0861,103.413 61.5,102.5C 62.0783,100.557 63.0783,100.223 64.5,101.5C 65.487,98.2317 65.8204,94.8984 65.5,91.5 Z"/></g>
<g><path style="opacity:0.612" fill="#949597" d="M 103.5,90.5 C 104.483,94.2984 104.817,98.2984 104.5,102.5C 103.5,102.5 102.5,102.5 101.5,102.5C 101.5,99.1667 101.5,95.8333 101.5,92.5C 102.319,95.3054 102.819,98.3054 103,101.5C 103.499,97.8484 103.665,94.1817 103.5,90.5 Z"/></g>
<g><path style="opacity:0.259" fill="#dfdfdf" d="M 31.5,94.5 C 31.8333,94.5 32.1667,94.5 32.5,94.5C 33.5,94.8333 34.1667,95.5 34.5,96.5C 32.9731,96.573 31.9731,95.9063 31.5,94.5 Z"/></g>
<g><path style="opacity:0.953" fill="#535558" d="M 49.5,88.5 C 49.427,90.0269 50.0937,91.0269 51.5,91.5C 51.5,91.8333 51.5,92.1667 51.5,92.5C 51.5,93.5 51.5,94.5 51.5,95.5C 48.1667,95.5 44.8333,95.5 41.5,95.5C 41.5,95.1667 41.5,94.8333 41.5,94.5C 44.1667,94.5 46.8333,94.5 49.5,94.5C 49.7373,93.209 49.404,92.209 48.5,91.5C 48.1344,90.3054 47.301,89.6387 46,89.5C 44.2739,91.0978 43.4406,90.7645 43.5,88.5C 45.3888,87.2584 47.3888,87.2584 49.5,88.5 Z"/></g>
<g><path style="opacity:0.988" fill="#6c6d70" d="M 32.5,94.5 C 32.56,93.9569 32.8933,93.6236 33.5,93.5C 34.5178,94.1925 35.5178,94.8592 36.5,95.5C 37.6783,97.3379 37.345,99.0045 35.5,100.5C 34.2905,100.932 33.2905,101.599 32.5,102.5C 28.2519,104.213 25.2519,102.88 23.5,98.5C 23.8417,97.6618 24.5084,97.3284 25.5,97.5C 28.9233,100.412 31.9233,100.079 34.5,96.5C 34.1667,95.5 33.5,94.8333 32.5,94.5 Z"/></g>
<g><path style="opacity:0.375" fill="#c3c4c5" d="M 51.5,92.5 C 52.4345,93.5676 52.7678,94.901 52.5,96.5C 49.2617,97.3949 46.0951,97.3949 43,96.5C 42.5357,97.0944 42.369,97.7611 42.5,98.5C 41.596,97.791 41.2627,96.791 41.5,95.5C 44.8333,95.5 48.1667,95.5 51.5,95.5C 51.5,94.5 51.5,93.5 51.5,92.5 Z"/></g>
<g><path style="opacity:0.075" fill="#ededed" d="M 25.5,97.5 C 24.5084,97.3284 23.8417,97.6618 23.5,98.5C 22.1153,97.6977 22.282,97.0311 24,96.5C 24.7648,96.5699 25.2648,96.9033 25.5,97.5 Z"/></g>
<g><path style="opacity:1" fill="#77787a" d="M 84.5,100.5 C 86.9935,100.131 87.6602,100.797 86.5,102.5C 80.7821,103.636 77.7821,101.136 77.5,95C 78.057,88.7831 81.3904,86.4498 87.5,88C 89.4224,89.46 90.0891,91.1267 89.5,93C 87.5335,92.76 85.7002,91.9266 84,90.5C 80.7948,91.7982 79.7948,94.1316 81,97.5C 81.7202,99.0557 82.8868,100.056 84.5,100.5 Z"/></g>
<g><path style="opacity:1" fill="#969799" d="M 86.5,102.5 C 87.6602,100.797 86.9935,100.131 84.5,100.5C 86.0666,98.2181 88.0666,97.5514 90.5,98.5C 90.0345,100.808 88.7012,102.142 86.5,102.5 Z"/></g>
<g><path style="opacity:0.902" fill="#626466" d="M 64.5,89.5 C 65.3382,89.8417 65.6716,90.5084 65.5,91.5C 65.8204,94.8984 65.487,98.2317 64.5,101.5C 63.0783,100.223 62.0783,100.557 61.5,102.5C 57.7003,103.936 55.0336,102.602 53.5,98.5C 55.1342,94.5135 58.1342,92.8469 62.5,93.5C 62.5,92.5 62.5,91.5 62.5,90.5C 62.8417,89.6618 63.5084,89.3284 64.5,89.5 Z M 62.5,98.5 C 61.1439,100.538 59.4773,100.872 57.5,99.5C 57.7911,98.3509 58.6244,97.6842 60,97.5C 61.0698,97.528 61.9032,97.8614 62.5,98.5 Z"/></g>
<g><path style="opacity:0.009" fill="#e5e6e6" d="M 62.5,98.5 C 61.9032,97.8614 61.0698,97.528 60,97.5C 58.6244,97.6842 57.7911,98.3509 57.5,99.5C 56.2241,98.6136 56.2241,97.6136 57.5,96.5C 59.4086,95.6518 61.4086,95.3184 63.5,95.5C 63.7373,96.791 63.404,97.791 62.5,98.5 Z"/></g>
<g><path style="opacity:0.004" fill="#dbdcdc" d="M 35.5,100.5 C 35.1788,102.048 34.1788,102.715 32.5,102.5C 33.2905,101.599 34.2905,100.932 35.5,100.5 Z"/></g>
</svg>
