<?xml version="1.0" encoding="UTF-8"?>
<!DOCTYPE svg PUBLIC "-//W3C//DTD SVG 1.1//EN" "http://www.w3.org/Graphics/SVG/1.1/DTD/svg11.dtd">
<svg xmlns="http://www.w3.org/2000/svg" version="1.1" width="124px" height="124px" style="shape-rendering:geometricPrecision; text-rendering:geometricPrecision; image-rendering:optimizeQuality; fill-rule:evenodd; clip-rule:evenodd" xmlns:xlink="http://www.w3.org/1999/xlink">
<g><path style="opacity:0.988" fill="#e5e5e5" d="M 50.5,-0.5 C 57.8333,-0.5 65.1667,-0.5 72.5,-0.5C 99.8333,6.16667 116.833,23.1667 123.5,50.5C 123.5,57.8333 123.5,65.1667 123.5,72.5C 116.833,99.8333 99.8333,116.833 72.5,123.5C 65.1667,123.5 57.8333,123.5 50.5,123.5C 23.1667,116.833 6.16667,99.8333 -0.5,72.5C -0.5,65.1667 -0.5,57.8333 -0.5,50.5C 6.16667,23.1667 23.1667,6.16667 50.5,-0.5 Z"/></g>
<g><path style="opacity:1" fill="#4b4b4b" d="M 58.5,42.5 C 59.8221,42.33 60.9887,42.6634 62,43.5C 62.6667,55.1667 62.6667,66.8333 62,78.5C 61.2753,79.0585 60.4419,79.3918 59.5,79.5C 55.7161,76.8907 52.0494,74.0574 48.5,71C 44.8333,70.6667 41.1667,70.3333 37.5,70C 36.1667,64.3333 36.1667,58.6667 37.5,53C 46.3606,53.2364 53.3606,49.7364 58.5,42.5 Z"/></g>
<g><path style="opacity:1" fill="#4e4e4e" d="M 77.5,42.5 C 80.9875,43.1434 83.4875,45.1434 85,48.5C 90.8131,60.5617 88.9798,71.2284 79.5,80.5C 78.2801,80.1131 77.6135,79.2798 77.5,78C 83.1564,71.1508 84.9897,63.3174 83,54.5C 81.8338,51.4968 80.1672,48.8302 78,46.5C 77.51,45.2068 77.3433,43.8734 77.5,42.5 Z"/></g>
<g><path style="opacity:1" fill="#e3e3e3" d="M 56.5,50.5 C 57.8333,57.8333 57.8333,65.1667 56.5,72.5C 54.1415,70.4707 51.8082,68.4707 49.5,66.5C 47.0521,65.5269 44.3854,65.1936 41.5,65.5C 41.5,62.5 41.5,59.5 41.5,56.5C 44.1873,56.6641 46.854,56.4974 49.5,56C 51.9957,54.3335 54.329,52.5002 56.5,50.5 Z"/></g>
<g><path style="opacity:1" fill="#878787" d="M 56.5,50.5 C 56.56,49.9569 56.8933,49.6236 57.5,49.5C 58.8333,57.5 58.8333,65.5 57.5,73.5C 56.8933,73.3764 56.56,73.0431 56.5,72.5C 57.8333,65.1667 57.8333,57.8333 56.5,50.5 Z"/></g>
<g><path style="opacity:1" fill="#4e4e4e" d="M 69.5,50.5 C 74.2984,52.1656 76.6317,55.6656 76.5,61C 76.0531,63.9559 75.2197,66.7892 74,69.5C 72.0692,72.1047 70.2358,72.1047 68.5,69.5C 73.7728,63.9818 73.7728,58.4818 68.5,53C 68.7432,52.0979 69.0766,51.2646 69.5,50.5 Z"/></g>
<g><path style="opacity:1" fill="#b4b4b4" d="M 41.5,56.5 C 41.5,59.5 41.5,62.5 41.5,65.5C 44.3854,65.1936 47.0521,65.5269 49.5,66.5C 46.5,66.5 43.5,66.5 40.5,66.5C 40.1872,62.9581 40.5206,59.6248 41.5,56.5 Z"/></g>
</svg>
