<?xml version="1.0" encoding="UTF-8"?>
<!DOCTYPE svg PUBLIC "-//W3C//DTD SVG 1.1//EN" "http://www.w3.org/Graphics/SVG/1.1/DTD/svg11.dtd">
<svg xmlns="http://www.w3.org/2000/svg" version="1.1" width="469px" height="178px" style="shape-rendering:geometricPrecision; text-rendering:geometricPrecision; image-rendering:optimizeQuality; fill-rule:evenodd; clip-rule:evenodd" xmlns:xlink="http://www.w3.org/1999/xlink">
<g><path style="opacity:0.873" fill="#f2d890" d="M 78.5,22.5 C 71.8333,22.5 65.1667,22.5 58.5,22.5C 61.6649,21.6778 64.9982,21.0111 68.5,20.5C 72.0018,21.0111 75.3351,21.6778 78.5,22.5 Z"/></g>
<g><path style="opacity:1" fill="#f6c331" d="M 58.5,22.5 C 65.1667,22.5 71.8333,22.5 78.5,22.5C 82.3472,22.8944 86.0139,23.8944 89.5,25.5C 90.6602,27.2027 89.9935,27.8693 87.5,27.5C 79.8821,26.3999 72.2155,26.2332 64.5,27C 63.2625,27.2321 62.2625,27.7321 61.5,28.5C 50.0516,32.1165 42.885,39.7831 40,51.5C 39.5007,56.4889 39.3341,61.4889 39.5,66.5C 39.6106,68.6477 38.944,68.981 37.5,67.5C 37.0248,64.8453 35.6915,62.8453 33.5,61.5C 32.1667,56.5 32.1667,51.5 33.5,46.5C 34.6491,46.2089 35.3158,45.3756 35.5,44C 36.0767,41.863 36.41,39.6963 36.5,37.5C 37.9063,37.0269 38.573,36.0269 38.5,34.5C 38.5,33.8333 38.8333,33.5 39.5,33.5C 41.5,32.1667 43.1667,30.5 44.5,28.5C 48.3964,24.8896 53.0631,22.8896 58.5,22.5 Z"/></g>
<g><path style="opacity:1" fill="#4a3a08" d="M 87.5,27.5 C 87.5,27.8333 87.5,28.1667 87.5,28.5C 78.8333,27.1667 70.1667,27.1667 61.5,28.5C 62.2625,27.7321 63.2625,27.2321 64.5,27C 72.2155,26.2332 79.8821,26.3999 87.5,27.5 Z"/></g>
<g><path style="opacity:1" fill="#e7cb7c" d="M 328.5,25.5 C 330.553,25.4021 332.22,26.0687 333.5,27.5C 331.833,27.5 330.167,27.5 328.5,27.5C 328.5,26.8333 328.5,26.1667 328.5,25.5 Z"/></g>
<g><path style="opacity:1" fill="#2e2812" d="M 87.5,28.5 C 91.6033,29.0901 95.6033,30.0901 99.5,31.5C 105.986,34.4751 111.486,38.8085 116,44.5C 116.692,45.4368 116.525,46.1034 115.5,46.5C 110.018,52.7615 104.518,59.0948 99,65.5C 96.8333,62 94,59.1667 90.5,57C 84.8333,55.6667 83.1667,57.6667 85.5,63C 92.6036,66.5396 98.9369,71.0396 104.5,76.5C 102.5,76.5 100.5,76.5 98.5,76.5C 100.088,93.8119 101.421,111.145 102.5,128.5C 93.7792,133.681 84.2792,136.014 74,135.5C 61.0083,135.71 48.8416,132.71 37.5,126.5C 33.5766,125.205 29.9099,123.372 26.5,121C 25.6195,120.292 24.9528,119.458 24.5,118.5C 25.4959,118.586 26.3292,118.252 27,117.5C 31.8458,108.473 36.6792,99.473 41.5,90.5C 43.1094,89.3346 43.4427,88.0012 42.5,86.5C 43.552,86.3505 44.552,86.5172 45.5,87C 47.4221,89.4295 49.7554,91.2628 52.5,92.5C 53.733,94.7964 55.733,96.1298 58.5,96.5C 63.0523,99.5925 68.0523,100.259 73.5,98.5C 75.9925,92.4739 74.3258,89.4739 68.5,89.5C 59.8929,86.198 51.8929,81.8647 44.5,76.5C 42.8251,73.1228 41.1584,69.7895 39.5,66.5C 39.3341,61.4889 39.5007,56.4889 40,51.5C 42.885,39.7831 50.0516,32.1165 61.5,28.5C 70.1667,27.1667 78.8333,27.1667 87.5,28.5 Z"/></g>
<g><path style="opacity:0.612" fill="#eeda9f" d="M 44.5,28.5 C 43.1667,30.5 41.5,32.1667 39.5,33.5C 40.1667,30.8333 41.8333,29.1667 44.5,28.5 Z"/></g>
<g><path style="opacity:1" fill="#302913" d="M 328.5,27.5 C 330.167,27.5 331.833,27.5 333.5,27.5C 340.988,28.0513 345.988,31.718 348.5,38.5C 349.831,47.8402 345.831,53.1735 336.5,54.5C 331.737,54.7744 327.07,54.441 322.5,53.5C 322.027,52.0937 321.027,51.427 319.5,51.5C 318.508,51.6716 317.842,51.3382 317.5,50.5C 309.741,37.5543 313.408,29.8876 328.5,27.5 Z"/></g>
<g><path style="opacity:0.737" fill="#cdb973" d="M 89.5,25.5 C 93.5055,26.4977 96.8388,28.4977 99.5,31.5C 95.6033,30.0901 91.6033,29.0901 87.5,28.5C 87.5,28.1667 87.5,27.8333 87.5,27.5C 89.9935,27.8693 90.6602,27.2027 89.5,25.5 Z"/></g>
<g><path style="opacity:1" fill="#f4c53f" d="M 328.5,25.5 C 328.5,26.1667 328.5,26.8333 328.5,27.5C 313.408,29.8876 309.741,37.5543 317.5,50.5C 306.528,47.5554 303.361,40.8887 308,30.5C 313.901,24.7255 320.735,23.0588 328.5,25.5 Z"/></g>
<g><path style="opacity:0.145" fill="#eedeae" d="M 259.5,34.5 C 260.568,33.5655 261.901,33.2322 263.5,33.5C 263.634,35.2915 263.301,36.9582 262.5,38.5C 262.167,38.5 261.833,38.5 261.5,38.5C 261.539,37.4168 261.873,36.4168 262.5,35.5C 261.675,34.6143 260.675,34.281 259.5,34.5 Z"/></g>
<g><path style="opacity:0.886" fill="#f6d477" d="M 259.5,34.5 C 257.485,35.9238 255.152,36.5905 252.5,36.5C 254.515,35.0762 256.848,34.4095 259.5,34.5 Z"/></g>
<g><path style="opacity:0.365" fill="#eddeaa" d="M 38.5,34.5 C 38.573,36.0269 37.9063,37.0269 36.5,37.5C 36.427,35.9731 37.0937,34.9731 38.5,34.5 Z"/></g>
<g><path style="opacity:1" fill="#f5d06b" d="M 252.5,36.5 C 252.389,37.1174 252.056,37.6174 251.5,38C 248.173,38.6103 244.839,39.1103 241.5,39.5C 244.854,37.7424 248.521,36.7424 252.5,36.5 Z"/></g>
<g><path style="opacity:1" fill="#f7cd61" d="M 36.5,37.5 C 36.41,39.6963 36.0767,41.863 35.5,44C 35.3158,45.3756 34.6491,46.2089 33.5,46.5C 33.5275,43.0836 34.5275,40.0836 36.5,37.5 Z"/></g>
<g><path style="opacity:1" fill="#2f2912" d="M 266.5,53.5 C 265.566,54.5676 265.232,55.901 265.5,57.5C 267.5,57.5 269.5,57.5 271.5,57.5C 273.527,57.3379 275.527,57.5045 277.5,58C 277.957,58.414 278.291,58.914 278.5,59.5C 277.577,62.4466 276.911,65.4466 276.5,68.5C 274.837,70.4385 274.171,72.7718 274.5,75.5C 270.101,76.1913 265.601,76.858 261,77.5C 258.658,83.3814 258.158,89.3814 259.5,95.5C 259.795,98.4304 261.295,100.43 264,101.5C 266.468,99.3577 268.635,96.8577 270.5,94C 271.094,93.5357 271.761,93.369 272.5,93.5C 274.153,93.6596 275.486,94.3263 276.5,95.5C 278.849,99.694 282.515,101.694 287.5,101.5C 288.369,103.717 288.702,106.05 288.5,108.5C 278.093,127.055 263.427,131.722 244.5,122.5C 243.508,122.672 242.842,122.338 242.5,121.5C 242.5,120.833 242.167,120.5 241.5,120.5C 235.748,110.681 233.414,100.015 234.5,88.5C 234.833,86.5 235.167,84.5 235.5,82.5C 236.612,80.4006 237.279,78.0673 237.5,75.5C 235.167,75.5 232.833,75.5 230.5,75.5C 229.167,75.5 227.833,75.5 226.5,75.5C 225.566,74.4324 225.232,73.099 225.5,71.5C 226.725,66.7105 227.392,61.7105 227.5,56.5C 232.833,56.5 238.167,56.5 243.5,56.5C 243.863,52.0159 244.863,47.6826 246.5,43.5C 251.732,42.2001 256.732,40.5335 261.5,38.5C 261.833,38.5 262.167,38.5 262.5,38.5C 264.746,38.0639 266.913,37.3972 269,36.5C 268.63,42.193 267.797,47.8597 266.5,53.5 Z"/></g>
<g><path style="opacity:1" fill="#f8c842" d="M 433.5,53.5 C 425.615,51.5401 417.615,50.2068 409.5,49.5C 408.959,58.4906 408.626,67.4906 408.5,76.5C 407.681,83.3439 407.014,90.3439 406.5,97.5C 401.508,98.5079 399.508,96.5079 400.5,91.5C 401.646,75.4577 402.979,59.4577 404.5,43.5C 405.333,43.1667 406.167,42.8333 407,42.5C 415.518,44.2805 424.018,46.1138 432.5,48C 433.406,49.6995 433.739,51.5328 433.5,53.5 Z"/></g>
<g><path style="opacity:1" fill="#f6d374" d="M 240.5,39.5 C 240.11,42.8394 239.61,46.1727 239,49.5C 238.617,50.056 238.117,50.3893 237.5,50.5C 237.742,46.521 238.742,42.8544 240.5,39.5 Z"/></g>
<g><path style="opacity:0.408" fill="#f1dc98" d="M 237.5,51.5 C 232.604,53.4461 227.271,54.1128 221.5,53.5C 226.732,52.7901 232.065,52.1235 237.5,51.5 Z"/></g>
<g><path style="opacity:0.996" fill="#b8b8b7" d="M 348.5,38.5 C 349.922,41.3446 352.089,43.678 355,45.5C 357.925,50.4415 357.925,55.4415 355,60.5C 352.592,63.6201 349.426,64.9534 345.5,64.5C 345.5,62.5 345.5,60.5 345.5,58.5C 343.167,58.5 340.833,58.5 338.5,58.5C 338.672,57.5084 338.338,56.8417 337.5,56.5C 337.5,55.8333 337.167,55.5 336.5,55.5C 336.5,55.1667 336.5,54.8333 336.5,54.5C 345.831,53.1735 349.831,47.8402 348.5,38.5 Z"/></g>
<g><path style="opacity:0.267" fill="#cfcdc6" d="M 319.5,51.5 C 321.027,51.427 322.027,52.0937 322.5,53.5C 322.5,54.1667 322.5,54.8333 322.5,55.5C 318.833,55.5 315.167,55.5 311.5,55.5C 314.641,54.6787 317.975,54.1787 321.5,54C 320.619,53.2917 319.953,52.4584 319.5,51.5 Z"/></g>
<g><path style="opacity:1" fill="#978f6f" d="M 322.5,53.5 C 327.07,54.441 331.737,54.7744 336.5,54.5C 336.5,54.8333 336.5,55.1667 336.5,55.5C 331.833,55.5 327.167,55.5 322.5,55.5C 322.5,54.8333 322.5,54.1667 322.5,53.5 Z"/></g>
<g><path style="opacity:1" fill="#2f2912" d="M 433.5,53.5 C 436.617,52.9273 438.617,54.094 439.5,57C 439.06,59.5974 438.393,62.0974 437.5,64.5C 435.126,67.6859 434.126,71.3526 434.5,75.5C 433.338,81.8119 432.338,88.1453 431.5,94.5C 430.476,98.5914 429.143,102.591 427.5,106.5C 425.097,106.552 422.764,106.219 420.5,105.5C 419.833,105.5 419.167,105.5 418.5,105.5C 414.325,104.864 410.325,103.864 406.5,102.5C 406.5,102.167 406.5,101.833 406.5,101.5C 408.231,93.4014 408.898,85.0681 408.5,76.5C 408.626,67.4906 408.959,58.4906 409.5,49.5C 417.615,50.2068 425.615,51.5401 433.5,53.5 Z"/></g>
<g><path style="opacity:1" fill="#e1bc48" d="M 266.5,53.5 C 269.95,52.7564 271.616,54.0897 271.5,57.5C 269.5,57.5 267.5,57.5 265.5,57.5C 265.232,55.901 265.566,54.5676 266.5,53.5 Z"/></g>
<g><path style="opacity:1" fill="#e4c670" d="M 311.5,55.5 C 315.167,55.5 318.833,55.5 322.5,55.5C 327.167,55.5 331.833,55.5 336.5,55.5C 337.167,55.5 337.5,55.8333 337.5,56.5C 329.16,56.3336 320.827,56.5003 312.5,57C 311.915,58.3024 311.249,59.469 310.5,60.5C 310.366,58.7085 310.699,57.0418 311.5,55.5 Z"/></g>
<g><path style="opacity:1" fill="#f6c328" d="M 259.5,34.5 C 260.675,34.281 261.675,34.6143 262.5,35.5C 261.873,36.4168 261.539,37.4168 261.5,38.5C 256.732,40.5335 251.732,42.2001 246.5,43.5C 244.863,47.6826 243.863,52.0159 243.5,56.5C 238.167,56.5 232.833,56.5 227.5,56.5C 227.392,61.7105 226.725,66.7105 225.5,71.5C 225.167,71.5 224.833,71.5 224.5,71.5C 223.167,71.5 221.833,71.5 220.5,71.5C 220.5,69.8333 220.5,68.1667 220.5,66.5C 220.231,62.0685 220.564,57.7352 221.5,53.5C 227.271,54.1128 232.604,53.4461 237.5,51.5C 237.5,51.1667 237.5,50.8333 237.5,50.5C 238.117,50.3893 238.617,50.056 239,49.5C 239.61,46.1727 240.11,42.8394 240.5,39.5C 240.833,39.5 241.167,39.5 241.5,39.5C 244.839,39.1103 248.173,38.6103 251.5,38C 252.056,37.6174 252.389,37.1174 252.5,36.5C 255.152,36.5905 257.485,35.9238 259.5,34.5 Z"/></g>
<g><path style="opacity:1" fill="#59450c" d="M 338.5,58.5 C 338.5,58.8333 338.5,59.1667 338.5,59.5C 331.745,59.2066 325.078,59.5399 318.5,60.5C 324.75,58.5411 331.416,57.8745 338.5,58.5 Z"/></g>
<g><path style="opacity:1" fill="#bab9b8" d="M 115.5,46.5 C 115.369,47.2389 115.536,47.9056 116,48.5C 120.232,51.064 123.399,54.564 125.5,59C 122.05,64.2841 118.05,69.1174 113.5,73.5C 115.743,74.4742 118.076,74.8076 120.5,74.5C 115.302,75.2588 109.969,75.9254 104.5,76.5C 98.9369,71.0396 92.6036,66.5396 85.5,63C 83.1667,57.6667 84.8333,55.6667 90.5,57C 94,59.1667 96.8333,62 99,65.5C 104.518,59.0948 110.018,52.7615 115.5,46.5 Z"/></g>
<g><path style="opacity:1" fill="#e3c778" d="M 200.5,61.5 C 204.42,62.1266 207.753,63.7933 210.5,66.5C 207.833,65.8333 205.167,65.1667 202.5,64.5C 202.218,63.2223 201.551,62.2223 200.5,61.5 Z"/></g>
<g><path style="opacity:1" fill="#2e2711" d="M 202.5,64.5 C 205.167,65.1667 207.833,65.8333 210.5,66.5C 213.45,67.3084 216.117,68.6418 218.5,70.5C 219.167,71.8333 220.167,72.8333 221.5,73.5C 221.833,73.5 222.167,73.5 222.5,73.5C 222.427,75.0269 223.094,76.0269 224.5,76.5C 226.587,77.5846 227.92,79.2512 228.5,81.5C 228.177,87.69 228.51,93.69 229.5,99.5C 229.31,103.032 229.977,106.365 231.5,109.5C 231.5,109.833 231.5,110.167 231.5,110.5C 230.153,113.193 228.82,115.86 227.5,118.5C 219.45,126.296 209.784,129.963 198.5,129.5C 191.673,128.087 185.673,125.087 180.5,120.5C 180.167,119.5 179.5,118.833 178.5,118.5C 174.443,113.715 171.443,108.382 169.5,102.5C 167.04,84.1509 174.373,71.6509 191.5,65C 195.152,64.5014 198.818,64.3347 202.5,64.5 Z"/></g>
<g><path style="opacity:0.388" fill="#e8dcb4" d="M 364.5,65.5 C 364.56,64.9569 364.893,64.6236 365.5,64.5C 366.362,65.7658 367.029,67.0992 367.5,68.5C 367.158,69.3382 366.492,69.6716 365.5,69.5C 365.768,67.901 365.434,66.5676 364.5,65.5 Z"/></g>
<g><path style="opacity:1" fill="#edc44c" d="M 33.5,61.5 C 35.6915,62.8453 37.0248,64.8453 37.5,67.5C 38.944,68.981 39.6106,68.6477 39.5,66.5C 41.1584,69.7895 42.8251,73.1228 44.5,76.5C 38.1467,73.4563 34.48,68.4563 33.5,61.5 Z"/></g>
<g><path style="opacity:1" fill="#f3c22f" d="M 364.5,65.5 C 365.434,66.5676 365.768,67.901 365.5,69.5C 362.811,70.0382 360.144,70.7049 357.5,71.5C 356.347,74.4461 355.347,77.4461 354.5,80.5C 350.555,81.4909 346.555,81.8242 342.5,81.5C 342.5,83.1667 342.5,84.8333 342.5,86.5C 341.566,87.5676 341.232,88.901 341.5,90.5C 339.833,90.5 338.167,90.5 336.5,90.5C 336.5,86.8333 336.5,83.1667 336.5,79.5C 338.948,78.5269 341.615,78.1936 344.5,78.5C 344.833,78.5 345.167,78.5 345.5,78.5C 346.5,78.5 347.5,78.5 348.5,78.5C 348.5,77.5 348.5,76.5 348.5,75.5C 348.317,73.0637 348.984,70.897 350.5,69C 355.023,67.2025 359.69,66.0359 364.5,65.5 Z"/></g>
<g><path style="opacity:1" fill="#656156" d="M 437.5,64.5 C 437.089,68.2215 436.422,71.8881 435.5,75.5C 435.167,75.5 434.833,75.5 434.5,75.5C 434.126,71.3526 435.126,67.6859 437.5,64.5 Z"/></g>
<g><path style="opacity:0.733" fill="#5f5c50" d="M 338.5,59.5 C 338.5,59.1667 338.5,58.8333 338.5,58.5C 340.833,58.5 343.167,58.5 345.5,58.5C 345.5,60.5 345.5,62.5 345.5,64.5C 345.5,68.8333 345.5,73.1667 345.5,77.5C 345.5,77.8333 345.5,78.1667 345.5,78.5C 345.167,78.5 344.833,78.5 344.5,78.5C 344.5,72.1667 344.5,65.8333 344.5,59.5C 342.5,59.5 340.5,59.5 338.5,59.5 Z"/></g>
<g><path style="opacity:1" fill="#f6c42d" d="M 200.5,61.5 C 201.551,62.2223 202.218,63.2223 202.5,64.5C 198.818,64.3347 195.152,64.5014 191.5,65C 174.373,71.6509 167.04,84.1509 169.5,102.5C 170.008,105.176 170.175,107.843 170,110.5C 169.583,109.244 168.75,108.577 167.5,108.5C 165.317,105.136 163.984,101.47 163.5,97.5C 163.152,91.0133 163.818,84.6799 165.5,78.5C 167.408,77.5144 168.408,75.8477 168.5,73.5C 176.434,62.6282 187.101,58.6282 200.5,61.5 Z"/></g>
<g><path style="opacity:0.051" fill="#d1c8b1" d="M 220.5,66.5 C 220.5,68.1667 220.5,69.8333 220.5,71.5C 221.833,71.5 223.167,71.5 224.5,71.5C 223.5,72.1667 222.5,72.8333 221.5,73.5C 220.167,72.8333 219.167,71.8333 218.5,70.5C 219.167,69.1667 219.833,67.8333 220.5,66.5 Z"/></g>
<g><path style="opacity:0.667" fill="#817f78" d="M 276.5,68.5 C 276.279,71.0673 275.612,73.4006 274.5,75.5C 274.171,72.7718 274.837,70.4385 276.5,68.5 Z"/></g>
<g><path style="opacity:1" fill="#f8c738" d="M 154.5,74.5 C 152.492,76.0826 150.159,77.0826 147.5,77.5C 145.102,77.2594 143.102,77.9261 141.5,79.5C 138.944,80.5434 136.777,82.2101 135,84.5C 134.505,82.5273 134.338,80.5273 134.5,78.5C 133.167,78.5 131.833,78.5 130.5,78.5C 130.414,77.5041 130.748,76.6708 131.5,76C 138.988,72.091 146.655,71.591 154.5,74.5 Z"/></g>
<g><path style="opacity:0.612" fill="#908f89" d="M 222.5,73.5 C 223.906,73.9731 224.573,74.9731 224.5,76.5C 223.094,76.0269 222.427,75.0269 222.5,73.5 Z"/></g>
<g><path style="opacity:1" fill="#2e2812" d="M 338.5,59.5 C 340.5,59.5 342.5,59.5 344.5,59.5C 344.5,65.8333 344.5,72.1667 344.5,78.5C 341.615,78.1936 338.948,78.5269 336.5,79.5C 335.515,83.6344 335.182,87.9677 335.5,92.5C 337.833,92.5 340.167,92.5 342.5,92.5C 342.5,90.5 342.5,88.5 342.5,86.5C 342.5,84.8333 342.5,83.1667 342.5,81.5C 346.555,81.8242 350.555,81.4909 354.5,80.5C 355.347,77.4461 356.347,74.4461 357.5,71.5C 360.144,70.7049 362.811,70.0382 365.5,69.5C 366.492,69.6716 367.158,69.3382 367.5,68.5C 369.435,67.8505 371.435,67.5172 373.5,67.5C 372.962,71.5236 372.295,75.5236 371.5,79.5C 370.308,80.5659 370.641,81.3992 372.5,82C 374.473,82.4955 376.473,82.6621 378.5,82.5C 378.5,84.5 378.5,86.5 378.5,88.5C 378.5,88.8333 378.5,89.1667 378.5,89.5C 376.744,90.5521 376.077,92.2188 376.5,94.5C 373.287,94.19 370.287,94.5233 367.5,95.5C 367.737,96.791 367.404,97.791 366.5,98.5C 365.167,101.167 365.167,103.833 366.5,106.5C 365.907,109.596 366.907,111.929 369.5,113.5C 371.563,111.758 373.563,110.091 375.5,108.5C 378.241,108.707 380.574,109.707 382.5,111.5C 382.67,112.822 382.337,113.989 381.5,115C 382.996,115.507 384.163,115.007 385,113.5C 386.706,114.308 387.539,115.641 387.5,117.5C 387.5,117.833 387.5,118.167 387.5,118.5C 380.851,130.823 370.851,134.823 357.5,130.5C 356.508,130.672 355.842,130.338 355.5,129.5C 355.5,128.833 355.167,128.5 354.5,128.5C 348.657,119.622 346.991,109.956 349.5,99.5C 350.451,98.0813 350.784,96.4147 350.5,94.5C 347.615,94.1936 344.948,94.5269 342.5,95.5C 340.552,105.2 341.552,114.533 345.5,123.5C 345.5,126.167 345.5,128.833 345.5,131.5C 334.735,131.27 324.068,130.27 313.5,128.5C 312.5,128.5 311.5,128.5 310.5,128.5C 311.635,121.885 312.302,115.218 312.5,108.5C 313.849,92.3763 315.849,76.3763 318.5,60.5C 325.078,59.5399 331.745,59.2066 338.5,59.5 Z"/></g>
<g><path style="opacity:0.996" fill="#b0afae" d="M 431.5,94.5 C 432.338,88.1453 433.338,81.8119 434.5,75.5C 434.833,75.5 435.167,75.5 435.5,75.5C 435.435,75.9382 435.601,76.2716 436,76.5C 436.278,75.5842 436.778,74.9175 437.5,74.5C 438.833,74.5 440.167,74.5 441.5,74.5C 441.777,71.5525 441.444,68.7191 440.5,66C 442.473,65.5045 444.473,65.3379 446.5,65.5C 446.65,69.8476 445.316,73.5142 442.5,76.5C 442.709,77.086 443.043,77.586 443.5,78C 442.712,81.0757 442.212,84.2423 442,87.5C 439.544,85.6787 436.711,85.012 433.5,85.5C 434.055,89.0122 433.388,92.0122 431.5,94.5 Z"/></g>
<g><path style="opacity:0.035" fill="#d4d2cb" d="M 226.5,75.5 C 227.833,75.5 229.167,75.5 230.5,75.5C 230.768,77.099 230.434,78.4324 229.5,79.5C 229.5,78.5 229.5,77.5 229.5,76.5C 228.209,76.7373 227.209,76.404 226.5,75.5 Z"/></g>
<g><path style="opacity:0.114" fill="#dcd7c2" d="M 127.5,74.5 C 128.022,76.2191 129.022,77.5525 130.5,78.5C 129.791,79.404 128.791,79.7373 127.5,79.5C 127.5,77.8333 127.5,76.1667 127.5,74.5 Z"/></g>
<g><path style="opacity:1" fill="#d6b242" d="M 154.5,74.5 C 155.833,75.1667 157.167,75.8333 158.5,76.5C 158.5,77.1667 158.5,77.8333 158.5,78.5C 158.167,78.5 157.833,78.5 157.5,78.5C 154.375,77.5206 151.042,77.1872 147.5,77.5C 150.159,77.0826 152.492,76.0826 154.5,74.5 Z"/></g>
<g><path style="opacity:1" fill="#dbb335" d="M 230.5,75.5 C 232.833,75.5 235.167,75.5 237.5,75.5C 237.279,78.0673 236.612,80.4006 235.5,82.5C 235.5,80.8333 235.5,79.1667 235.5,77.5C 234.167,77.5 232.833,77.5 231.5,77.5C 229.705,84.6206 229.038,91.9539 229.5,99.5C 228.51,93.69 228.177,87.69 228.5,81.5C 229.338,81.1583 229.672,80.4916 229.5,79.5C 230.434,78.4324 230.768,77.099 230.5,75.5 Z"/></g>
<g><path style="opacity:0.549" fill="#cbc09f" d="M 158.5,76.5 C 159.833,77.1667 160.833,78.1667 161.5,79.5C 160.391,79.4431 159.391,79.1098 158.5,78.5C 158.5,77.8333 158.5,77.1667 158.5,76.5 Z"/></g>
<g><path style="opacity:1" fill="#f3d271" d="M 168.5,73.5 C 168.408,75.8477 167.408,77.5144 165.5,78.5C 165.75,76.326 166.75,74.6594 168.5,73.5 Z"/></g>
<g><path style="opacity:0.11" fill="#ebe1c8" d="M 348.5,75.5 C 348.5,76.5 348.5,77.5 348.5,78.5C 347.5,78.5 346.5,78.5 345.5,78.5C 345.5,78.1667 345.5,77.8333 345.5,77.5C 346.778,77.2178 347.778,76.5511 348.5,75.5 Z"/></g>
<g><path style="opacity:1" fill="#5c480d" d="M 147.5,77.5 C 151.042,77.1872 154.375,77.5206 157.5,78.5C 152.13,78.3921 146.797,78.7255 141.5,79.5C 143.102,77.9261 145.102,77.2594 147.5,77.5 Z"/></g>
<g><path style="opacity:1" fill="#f2d68b" d="M 309.5,72.5 C 309.321,80.4077 308.321,88.0744 306.5,95.5C 306.778,87.6036 307.778,79.937 309.5,72.5 Z"/></g>
<g><path style="opacity:1" fill="#2d2711" d="M 130.5,78.5 C 131.833,78.5 133.167,78.5 134.5,78.5C 134.338,80.5273 134.505,82.5273 135,84.5C 136.777,82.2101 138.944,80.5434 141.5,79.5C 146.797,78.7255 152.13,78.3921 157.5,78.5C 157.833,78.5 158.167,78.5 158.5,78.5C 159.391,79.1098 160.391,79.4431 161.5,79.5C 162.167,79.8333 162.833,80.1667 163.5,80.5C 162.289,86.3101 162.289,91.9767 163.5,97.5C 163.984,101.47 165.317,105.136 167.5,108.5C 169.787,112.122 172.453,115.455 175.5,118.5C 174.191,136.647 164.524,144.814 146.5,143C 144.579,142.64 142.912,141.806 141.5,140.5C 140.457,148.158 140.457,155.825 141.5,163.5C 131.522,164.468 121.522,165.134 111.5,165.5C 111.5,165.167 111.5,164.833 111.5,164.5C 111.768,162.901 111.434,161.568 110.5,160.5C 110.608,149.439 109.941,138.439 108.5,127.5C 108.232,120.317 107.565,113.317 106.5,106.5C 106.5,104.833 106.5,103.167 106.5,101.5C 105.946,94.8469 105.612,88.1802 105.5,81.5C 112.795,80.4673 120.129,79.8006 127.5,79.5C 128.791,79.7373 129.791,79.404 130.5,78.5 Z"/></g>
<g><path style="opacity:0.525" fill="#9c9685" d="M 371.5,79.5 C 374.394,80.876 377.394,82.0426 380.5,83C 379.891,84.9483 379.224,86.7816 378.5,88.5C 378.5,86.5 378.5,84.5 378.5,82.5C 376.473,82.6621 374.473,82.4955 372.5,82C 370.641,81.3992 370.308,80.5659 371.5,79.5 Z"/></g>
<g><path style="opacity:1" fill="#eec95c" d="M 42.5,86.5 C 43.4427,88.0012 43.1094,89.3346 41.5,90.5C 41.6889,85.9483 39.6889,84.2816 35.5,85.5C 35.4148,84.0047 36.0815,83.0047 37.5,82.5C 39.4192,83.6125 41.0858,84.9458 42.5,86.5 Z"/></g>
<g><path style="opacity:1" fill="#f8c52f" d="M 41.5,90.5 C 36.6792,99.473 31.8458,108.473 27,117.5C 26.3292,118.252 25.4959,118.586 24.5,118.5C 22.0655,117.901 20.3988,116.401 19.5,114C 24.2205,104.049 29.5538,94.5491 35.5,85.5C 39.6889,84.2816 41.6889,85.9483 41.5,90.5 Z"/></g>
<g><path style="opacity:1" fill="#f6c329" d="M 127.5,74.5 C 127.5,76.1667 127.5,77.8333 127.5,79.5C 120.129,79.8006 112.795,80.4673 105.5,81.5C 104.347,87.3188 104.181,93.3188 105,99.5C 105.278,100.416 105.778,101.082 106.5,101.5C 106.5,103.167 106.5,104.833 106.5,106.5C 106.334,112.842 106.5,119.175 107,125.5C 107.278,126.416 107.778,127.082 108.5,127.5C 109.941,138.439 110.608,149.439 110.5,160.5C 108.833,160.5 107.167,160.5 105.5,160.5C 104.597,157.609 104.264,154.609 104.5,151.5C 103.767,143.84 103.101,136.173 102.5,128.5C 101.421,111.145 100.088,93.8119 98.5,76.5C 100.5,76.5 102.5,76.5 104.5,76.5C 109.969,75.9254 115.302,75.2588 120.5,74.5C 122.979,73.3773 125.312,73.3773 127.5,74.5 Z"/></g>
<g><path style="opacity:1" fill="#fbc51f" d="M 235.5,82.5 C 235.167,84.5 234.833,86.5 234.5,88.5C 233.412,95.3421 233.412,102.342 234.5,109.5C 233.5,109.5 232.5,109.5 231.5,109.5C 229.977,106.365 229.31,103.032 229.5,99.5C 229.038,91.9539 229.705,84.6206 231.5,77.5C 232.833,77.5 234.167,77.5 235.5,77.5C 235.5,79.1667 235.5,80.8333 235.5,82.5 Z"/></g>
<g><path style="opacity:1" fill="#b1942f" d="M 165.5,78.5 C 163.818,84.6799 163.152,91.0133 163.5,97.5C 162.289,91.9767 162.289,86.3101 163.5,80.5C 164.167,79.8333 164.833,79.1667 165.5,78.5 Z"/></g>
<g><path style="opacity:1" fill="#b6af9e" d="M 204.5,87.5 C 202.845,90.1766 201.512,93.1766 200.5,96.5C 197.61,93.0848 197.944,89.9181 201.5,87C 202.749,86.2599 203.749,86.4265 204.5,87.5 Z"/></g>
<g><path style="opacity:1" fill="#d9b029" d="M 336.5,79.5 C 336.5,83.1667 336.5,86.8333 336.5,90.5C 338.167,90.5 339.833,90.5 341.5,90.5C 341.232,88.901 341.566,87.5676 342.5,86.5C 342.5,88.5 342.5,90.5 342.5,92.5C 340.167,92.5 337.833,92.5 335.5,92.5C 335.182,87.9677 335.515,83.6344 336.5,79.5 Z"/></g>
<g><path style="opacity:1" fill="#4d3f1a" d="M 408.5,76.5 C 408.898,85.0681 408.231,93.4014 406.5,101.5C 406.5,101.167 406.5,100.833 406.5,100.5C 406.5,99.5 406.5,98.5 406.5,97.5C 407.014,90.3439 407.681,83.3439 408.5,76.5 Z"/></g>
<g><path style="opacity:1" fill="#f2c127" d="M 58.5,96.5 C 60.8333,95.8333 63.1667,95.1667 65.5,94.5C 67.047,93.2318 68.047,91.5652 68.5,89.5C 74.3258,89.4739 75.9925,92.4739 73.5,98.5C 68.0523,100.259 63.0523,99.5925 58.5,96.5 Z"/></g>
<g><path style="opacity:1" fill="#f8c428" d="M 337.5,56.5 C 338.338,56.8417 338.672,57.5084 338.5,58.5C 331.416,57.8745 324.75,58.5411 318.5,60.5C 315.849,76.3763 313.849,92.3763 312.5,108.5C 311.141,113.975 310.141,119.642 309.5,125.5C 307.738,125.643 306.071,125.309 304.5,124.5C 303.526,122.257 303.192,119.924 303.5,117.5C 303.5,116.5 303.5,115.5 303.5,114.5C 305.25,110.817 305.917,106.817 305.5,102.5C 305.298,100.05 305.631,97.717 306.5,95.5C 308.321,88.0744 309.321,80.4077 309.5,72.5C 309.505,68.4659 309.838,64.4659 310.5,60.5C 311.249,59.469 311.915,58.3024 312.5,57C 320.827,56.5003 329.16,56.3336 337.5,56.5 Z"/></g>
<g><path style="opacity:0.812" fill="#d6c077" d="M 52.5,92.5 C 56.6737,94.064 61.007,94.7306 65.5,94.5C 63.1667,95.1667 60.8333,95.8333 58.5,96.5C 55.733,96.1298 53.733,94.7964 52.5,92.5 Z"/></g>
<g><path style="opacity:1" fill="#8b7326" d="M 342.5,95.5 C 344.948,94.5269 347.615,94.1936 350.5,94.5C 350.784,96.4147 350.451,98.0813 349.5,99.5C 349.5,98.1667 349.5,96.8333 349.5,95.5C 347.167,95.5 344.833,95.5 342.5,95.5 Z"/></g>
<g><path style="opacity:0.718" fill="#605d52" d="M 378.5,89.5 C 378.739,91.4672 378.406,93.3005 377.5,95C 374.183,95.4983 370.85,95.665 367.5,95.5C 370.287,94.5233 373.287,94.19 376.5,94.5C 376.077,92.2188 376.744,90.5521 378.5,89.5 Z"/></g>
<g><path style="opacity:1" fill="#efbe28" d="M 204.5,87.5 C 209.622,90.7558 210.622,94.9225 207.5,100C 203.795,101.313 201.462,100.146 200.5,96.5C 201.512,93.1766 202.845,90.1766 204.5,87.5 Z"/></g>
<g><path style="opacity:1" fill="#f0c134" d="M 272.5,93.5 C 271.761,93.369 271.094,93.5357 270.5,94C 268.635,96.8577 266.468,99.3577 264,101.5C 261.295,100.43 259.795,98.4304 259.5,95.5C 261.493,93.5332 263.493,91.5332 265.5,89.5C 268.059,90.6076 270.392,91.9409 272.5,93.5 Z"/></g>
<g><path style="opacity:1" fill="#d4ab28" d="M 105.5,81.5 C 105.612,88.1802 105.946,94.8469 106.5,101.5C 105.778,101.082 105.278,100.416 105,99.5C 104.181,93.3188 104.347,87.3188 105.5,81.5 Z"/></g>
<g><path style="opacity:1" fill="#5f573a" d="M 276.5,95.5 C 280.655,96.7417 284.322,98.7417 287.5,101.5C 282.515,101.694 278.849,99.694 276.5,95.5 Z"/></g>
<g><path style="opacity:0.561" fill="#e0d29f" d="M 406.5,100.5 C 406.5,100.833 406.5,101.167 406.5,101.5C 406.5,101.833 406.5,102.167 406.5,102.5C 405.5,102.5 404.5,102.5 403.5,102.5C 404.29,101.599 405.29,100.932 406.5,100.5 Z"/></g>
<g><path style="opacity:1" fill="#7f7c75" d="M 287.5,101.5 C 289.252,101.418 290.252,102.251 290.5,104C 290.101,105.728 289.434,107.228 288.5,108.5C 288.702,106.05 288.369,103.717 287.5,101.5 Z"/></g>
<g><path style="opacity:0.09" fill="#c7c0ab" d="M 366.5,98.5 C 366.5,100.833 366.5,103.167 366.5,105.5C 368.099,105.232 369.432,105.566 370.5,106.5C 369.167,106.5 367.833,106.5 366.5,106.5C 365.167,103.833 365.167,101.167 366.5,98.5 Z"/></g>
<g><path style="opacity:1" fill="#e5b932" d="M 403.5,102.5 C 404.5,102.5 405.5,102.5 406.5,102.5C 410.325,103.864 414.325,104.864 418.5,105.5C 420.129,107.196 419.796,108.196 417.5,108.5C 413.731,108.244 410.064,108.577 406.5,109.5C 406.937,107.926 407.937,106.759 409.5,106C 405.849,103.259 402.183,103.093 398.5,105.5C 399.401,103.273 401.067,102.273 403.5,102.5 Z"/></g>
<g><path style="opacity:1" fill="#fac732" d="M 406.5,109.5 C 402.977,111.873 400.977,115.207 400.5,119.5C 400.083,122.159 399.083,124.492 397.5,126.5C 397.068,125.29 396.401,124.29 395.5,123.5C 394.473,119.554 394.306,115.554 395,111.5C 395.424,108.975 396.59,106.975 398.5,105.5C 402.183,103.093 405.849,103.259 409.5,106C 407.937,106.759 406.937,107.926 406.5,109.5 Z"/></g>
<g><path style="opacity:0.971" fill="#babab9" d="M 427.5,106.5 C 429.143,102.591 430.476,98.5914 431.5,94.5C 433.388,92.0122 434.055,89.0122 433.5,85.5C 436.711,85.012 439.544,85.6787 442,87.5C 442.212,84.2423 442.712,81.0757 443.5,78C 443.043,77.586 442.709,77.086 442.5,76.5C 445.316,73.5142 446.65,69.8476 446.5,65.5C 444.473,65.3379 442.473,65.5045 440.5,66C 441.444,68.7191 441.777,71.5525 441.5,74.5C 440.167,74.5 438.833,74.5 437.5,74.5C 437.911,71.4466 438.577,68.4466 439.5,65.5C 442.086,64.52 444.753,64.1866 447.5,64.5C 444.641,81.9414 441.141,99.2747 437,116.5C 432.965,118.444 429.965,117.444 428,113.5C 427.503,111.19 427.337,108.857 427.5,106.5 Z"/></g>
<g><path style="opacity:1" fill="#b3aea0" d="M 145.5,103.5 C 143.75,106.355 142.917,109.689 143,113.5C 141.955,114.373 141.122,115.373 140.5,116.5C 139.042,112.727 138.542,108.727 139,104.5C 141.188,102.903 143.354,102.569 145.5,103.5 Z"/></g>
<g><path style="opacity:1" fill="#ebbe38" d="M 366.5,106.5 C 367.833,106.5 369.167,106.5 370.5,106.5C 372.403,106.796 374.07,107.463 375.5,108.5C 373.563,110.091 371.563,111.758 369.5,113.5C 366.907,111.929 365.907,109.596 366.5,106.5 Z"/></g>
<g><path style="opacity:1" fill="#d7bd75" d="M 418.5,105.5 C 419.167,105.5 419.833,105.5 420.5,105.5C 421.167,107.167 421.833,108.833 422.5,110.5C 420.597,110.204 418.93,109.537 417.5,108.5C 419.796,108.196 420.129,107.196 418.5,105.5 Z"/></g>
<g><path style="opacity:1" fill="#dab22c" d="M 169.5,102.5 C 171.443,108.382 174.443,113.715 178.5,118.5C 177.833,118.5 177.167,118.5 176.5,118.5C 176.167,118.5 175.833,118.5 175.5,118.5C 172.453,115.455 169.787,112.122 167.5,108.5C 168.75,108.577 169.583,109.244 170,110.5C 170.175,107.843 170.008,105.176 169.5,102.5 Z"/></g>
<g><path style="opacity:1" fill="#e9bd33" d="M 234.5,88.5 C 233.414,100.015 235.748,110.681 241.5,120.5C 237.16,118.16 233.827,114.827 231.5,110.5C 231.5,110.167 231.5,109.833 231.5,109.5C 232.5,109.5 233.5,109.5 234.5,109.5C 233.412,102.342 233.412,95.3421 234.5,88.5 Z"/></g>
<g><path style="opacity:1" fill="#efd589" d="M 305.5,102.5 C 305.917,106.817 305.25,110.817 303.5,114.5C 303.717,110.295 304.383,106.295 305.5,102.5 Z"/></g>
<g><path style="opacity:1" fill="#eebd27" d="M 145.5,103.5 C 150.121,106.589 151.621,110.923 150,116.5C 148.509,121.158 145.342,123.158 140.5,122.5C 140.5,120.5 140.5,118.5 140.5,116.5C 141.122,115.373 141.955,114.373 143,113.5C 142.917,109.689 143.75,106.355 145.5,103.5 Z"/></g>
<g><path style="opacity:1" fill="#2f2813" d="M 417.5,108.5 C 418.93,109.537 420.597,110.204 422.5,110.5C 427.223,113.604 430.223,117.938 431.5,123.5C 430.847,139.507 423.18,144.507 408.5,138.5C 405.45,136.451 403.117,133.784 401.5,130.5C 400.656,126.901 400.323,123.234 400.5,119.5C 400.977,115.207 402.977,111.873 406.5,109.5C 410.064,108.577 413.731,108.244 417.5,108.5 Z"/></g>
<g><path style="opacity:1" fill="#585245" d="M 382.5,111.5 C 384.258,111.877 385.925,112.544 387.5,113.5C 388.782,114.958 388.782,116.292 387.5,117.5C 387.539,115.641 386.706,114.308 385,113.5C 384.163,115.007 382.996,115.507 381.5,115C 382.337,113.989 382.67,112.822 382.5,111.5 Z"/></g>
<g><path style="opacity:1" fill="#524115" d="M 312.5,108.5 C 312.302,115.218 311.635,121.885 310.5,128.5C 309.662,128.158 309.328,127.492 309.5,126.5C 309.5,126.167 309.5,125.833 309.5,125.5C 310.141,119.642 311.141,113.975 312.5,108.5 Z"/></g>
<g><path style="opacity:1" fill="#f2c024" d="M 342.5,95.5 C 344.833,95.5 347.167,95.5 349.5,95.5C 349.5,96.8333 349.5,98.1667 349.5,99.5C 346.991,109.956 348.657,119.622 354.5,128.5C 353.127,128.657 351.793,128.49 350.5,128C 348.963,126.293 347.296,124.793 345.5,123.5C 341.552,114.533 340.552,105.2 342.5,95.5 Z"/></g>
<g><path style="opacity:1" fill="#d9b02a" d="M 106.5,106.5 C 107.565,113.317 108.232,120.317 108.5,127.5C 107.778,127.082 107.278,126.416 107,125.5C 106.5,119.175 106.334,112.842 106.5,106.5 Z"/></g>
<g><path style="opacity:0.859" fill="#f0d892" d="M 303.5,117.5 C 303.192,119.924 303.526,122.257 304.5,124.5C 306.071,125.309 307.738,125.643 309.5,125.5C 309.5,125.833 309.5,126.167 309.5,126.5C 307.409,126.682 305.409,126.348 303.5,125.5C 302.2,122.691 302.2,120.024 303.5,117.5 Z"/></g>
<g><path style="opacity:1" fill="#d9b544" d="M 400.5,119.5 C 400.323,123.234 400.656,126.901 401.5,130.5C 399.833,129.5 398.5,128.167 397.5,126.5C 399.083,124.492 400.083,122.159 400.5,119.5 Z"/></g>
<g><path style="opacity:0.999" fill="#b7b7b7" d="M 288.5,108.5 C 291.408,109.954 294.408,111.454 297.5,113C 295.785,125.747 288.452,134.08 275.5,138C 264.912,140.231 255.745,137.731 248,130.5C 246.155,128.133 244.989,125.467 244.5,122.5C 263.427,131.722 278.093,127.055 288.5,108.5 Z"/></g>
<g><path style="opacity:1" fill="#bbbab9" d="M 345.5,123.5 C 347.296,124.793 348.963,126.293 350.5,128C 351.793,128.49 353.127,128.657 354.5,128.5C 355.167,128.5 355.5,128.833 355.5,129.5C 354.105,133.591 353.438,137.924 353.5,142.5C 342.153,141.925 330.82,141.091 319.5,140C 317.172,137.144 316.839,133.977 318.5,130.5C 316.709,129.83 315.042,129.163 313.5,128.5C 324.068,130.27 334.735,131.27 345.5,131.5C 345.5,128.833 345.5,126.167 345.5,123.5 Z"/></g>
<g><path style="opacity:1" fill="#b9b9b9" d="M 387.5,118.5 C 387.5,119.5 387.5,120.5 387.5,121.5C 390.505,121.253 393.005,122.253 395,124.5C 395.399,124.272 395.565,123.938 395.5,123.5C 396.401,124.29 397.068,125.29 397.5,126.5C 390.399,142.702 378.732,147.202 362.5,140C 359.108,137.715 357.441,134.548 357.5,130.5C 370.851,134.823 380.851,130.823 387.5,118.5 Z"/></g>
<g><path style="opacity:0.999" fill="#b7b7b6" d="M 37.5,126.5 C 48.8416,132.71 61.0083,135.71 74,135.5C 84.2792,136.014 93.7792,133.681 102.5,128.5C 103.101,136.173 103.767,143.84 104.5,151.5C 103.837,149.958 103.17,148.291 102.5,146.5C 100.333,147.792 98.0001,148.625 95.5,149C 74.0481,150.845 54.2148,146.012 36,134.5C 35.5721,131.678 36.0721,129.012 37.5,126.5 Z"/></g>
<g><path style="opacity:1" fill="#b9b9b9" d="M 431.5,123.5 C 435.584,125.092 438.084,128.092 439,132.5C 440.087,150.706 432.254,156.206 415.5,149C 411.71,146.394 409.377,142.894 408.5,138.5C 423.18,144.507 430.847,139.507 431.5,123.5 Z"/></g>
<g><path style="opacity:0.998" fill="#b9b9b8" d="M 231.5,110.5 C 233.827,114.827 237.16,118.16 241.5,120.5C 242.167,120.5 242.5,120.833 242.5,121.5C 239.464,122.812 237.298,125.146 236,128.5C 223.757,141.473 209.59,143.973 193.5,136C 190.577,133.955 187.743,131.788 185,129.5C 183.098,144.232 174.931,152.898 160.5,155.5C 156.376,154.901 152.376,153.901 148.5,152.5C 148.797,159.848 148.964,167.181 149,174.5C 142.038,175.255 135.205,176.255 128.5,177.5C 125.5,177.5 122.5,177.5 119.5,177.5C 118.577,173.936 118.244,170.269 118.5,166.5C 115.941,166.802 113.607,166.468 111.5,165.5C 121.522,165.134 131.522,164.468 141.5,163.5C 140.457,155.825 140.457,148.158 141.5,140.5C 142.912,141.806 144.579,142.64 146.5,143C 164.524,144.814 174.191,136.647 175.5,118.5C 175.833,118.5 176.167,118.5 176.5,118.5C 177.375,120.806 178.708,121.473 180.5,120.5C 185.673,125.087 191.673,128.087 198.5,129.5C 200.607,130.468 202.941,130.802 205.5,130.5C 205.5,133.5 205.5,136.5 205.5,139.5C 209.182,139.665 212.848,139.499 216.5,139C 217.456,135.606 217.789,132.106 217.5,128.5C 220.833,128.5 224.167,128.5 227.5,128.5C 227.5,125.167 227.5,121.833 227.5,118.5C 228.82,115.86 230.153,113.193 231.5,110.5 Z"/></g>
<g><path style="opacity:0.996" fill="#b0afaf" d="M 227.5,118.5 C 227.5,121.833 227.5,125.167 227.5,128.5C 224.167,128.5 220.833,128.5 217.5,128.5C 217.789,132.106 217.456,135.606 216.5,139C 212.848,139.499 209.182,139.665 205.5,139.5C 205.5,136.5 205.5,133.5 205.5,130.5C 202.941,130.802 200.607,130.468 198.5,129.5C 209.784,129.963 219.45,126.296 227.5,118.5 Z"/></g>
<g><path style="opacity:1" fill="#b1a15f" d="M 176.5,118.5 C 177.167,118.5 177.833,118.5 178.5,118.5C 179.5,118.833 180.167,119.5 180.5,120.5C 178.708,121.473 177.375,120.806 176.5,118.5 Z"/></g>
<g><path style="opacity:0.231" fill="#d6cdaf" d="M 105.5,160.5 C 107.167,160.5 108.833,160.5 110.5,160.5C 111.434,161.568 111.768,162.901 111.5,164.5C 110.596,163.791 110.263,162.791 110.5,161.5C 108.585,161.784 106.919,161.451 105.5,160.5 Z"/></g>
</svg>
