<?xml version="1.0" encoding="UTF-8"?>
<!DOCTYPE svg PUBLIC "-//W3C//DTD SVG 1.1//EN" "http://www.w3.org/Graphics/SVG/1.1/DTD/svg11.dtd">
<svg xmlns="http://www.w3.org/2000/svg" version="1.1" width="83px" height="44px" style="shape-rendering:geometricPrecision; text-rendering:geometricPrecision; image-rendering:optimizeQuality; fill-rule:evenodd; clip-rule:evenodd" xmlns:xlink="http://www.w3.org/1999/xlink">
<g><path style="opacity:0.903" fill="#737373" d="M 52.5,14.5 C 52.5,19.8333 52.5,25.1667 52.5,30.5C 51.5,30.5 50.5,30.5 49.5,30.5C 46.5461,28.7195 43.7128,26.7195 41,24.5C 41.9182,31.746 38.7516,35.4127 31.5,35.5C 29.808,34.0314 27.808,33.3647 25.5,33.5C 20.8501,34.3989 16.1834,34.5656 11.5,34C 10.8742,33.2496 10.3742,32.4162 10,31.5C 9.33333,24.5 9.33333,17.5 10,10.5C 10.513,8.47936 11.6797,6.97936 13.5,6C 21.5643,5.13667 29.5643,5.47 37.5,7C 40.0273,9.57361 41.194,12.7403 41,16.5C 44.5512,13.7396 48.3845,11.7396 52.5,10.5C 52.5,11.8333 52.5,13.1667 52.5,14.5 Z M 16.5,9.5 C 22.8933,9.20711 29.2266,9.54044 35.5,10.5C 43.0267,29.1351 37.0267,36.3018 17.5,32C 16.5838,31.6258 15.7504,31.1258 15,30.5C 13.9317,23.2258 14.4317,16.2258 16.5,9.5 Z M 49.5,18.5 C 48.8333,20.5 48.1667,22.5 47.5,24.5C 45.642,23.4045 43.9754,22.0712 42.5,20.5C 44.5765,18.7123 46.7432,17.0456 49,15.5C 49.4828,16.448 49.6495,17.448 49.5,18.5 Z"/></g>
<g><path style="opacity:0.415" fill="#e5e5e5" d="M 52.5,14.5 C 53.6517,19.9846 53.8184,25.6513 53,31.5C 51.4212,32.7996 50.2545,32.4663 49.5,30.5C 50.5,30.5 51.5,30.5 52.5,30.5C 52.5,25.1667 52.5,19.8333 52.5,14.5 Z"/></g>
<g><path style="opacity:0.034" fill="#ececec" d="M 49.5,18.5 C 49.6641,21.1873 49.4974,23.854 49,26.5C 48.2828,25.9558 47.7828,25.2891 47.5,24.5C 48.1667,22.5 48.8333,20.5 49.5,18.5 Z"/></g>
</svg>
