<?xml version="1.0" encoding="UTF-8"?>
<!DOCTYPE svg PUBLIC "-//W3C//DTD SVG 1.1//EN" "http://www.w3.org/Graphics/SVG/1.1/DTD/svg11.dtd">
<svg xmlns="http://www.w3.org/2000/svg" version="1.1" width="96px" height="85px" style="shape-rendering:geometricPrecision; text-rendering:geometricPrecision; image-rendering:optimizeQuality; fill-rule:evenodd; clip-rule:evenodd" xmlns:xlink="http://www.w3.org/1999/xlink">
<g><path style="opacity:0.22" fill="#181219" d="M 41.5,8.5 C 45.5,7.16667 49.5,7.16667 53.5,8.5C 53.8333,9.16667 54.1667,9.83333 54.5,10.5C 53.8333,10.5 53.1667,10.5 52.5,10.5C 52.5,9.16667 51.8333,8.5 50.5,8.5C 48.5,8.5 46.5,8.5 44.5,8.5C 43.5,8.5 42.5,8.5 41.5,8.5 Z"/></g>
<g><path style="opacity:0.771" fill="#291e2c" d="M 41.5,8.5 C 42.5,8.5 43.5,8.5 44.5,8.5C 41.9471,9.25492 39.2804,9.92159 36.5,10.5C 35.609,11.1098 34.609,11.4431 33.5,11.5C 33.5,11.1667 33.5,10.8333 33.5,10.5C 35.9128,8.94929 38.5794,8.28262 41.5,8.5 Z"/></g>
<g><path style="opacity:1" fill="#2f252b" d="M 44.5,8.5 C 46.5,8.5 48.5,8.5 50.5,8.5C 51.8333,10.1667 51.8333,11.8333 50.5,13.5C 49.5,13.5 48.5,13.5 47.5,13.5C 46.3079,12.4341 46.6412,11.6008 48.5,11C 45.408,10.2642 42.408,10.4309 39.5,11.5C 38.8333,11.5 38.5,11.8333 38.5,12.5C 37.1667,12.5 36.5,11.8333 36.5,10.5C 39.2804,9.92159 41.9471,9.25492 44.5,8.5 Z"/></g>
<g><path style="opacity:1" fill="#231b23" d="M 53.5,8.5 C 56.2282,8.17057 58.5615,8.83724 60.5,10.5C 58.5487,11.6414 56.5487,11.6414 54.5,10.5C 54.1667,9.83333 53.8333,9.16667 53.5,8.5 Z"/></g>
<g><path style="opacity:1" fill="#362a30" d="M 50.5,8.5 C 51.8333,8.5 52.5,9.16667 52.5,10.5C 52.369,11.2389 52.5357,11.9056 53,12.5C 53.7175,11.5494 54.5509,11.3828 55.5,12C 54.6195,12.7083 53.9528,13.5416 53.5,14.5C 53.1667,14.5 52.8333,14.5 52.5,14.5C 51.5084,14.6716 50.8417,14.3382 50.5,13.5C 51.8333,11.8333 51.8333,10.1667 50.5,8.5 Z"/></g>
<g><path style="opacity:0.824" fill="#29234d" d="M 33.5,10.5 C 33.5,10.8333 33.5,11.1667 33.5,11.5C 32.8333,11.5 32.5,11.8333 32.5,12.5C 31.8333,12.5 31.1667,12.5 30.5,12.5C 30.9731,11.0937 31.9731,10.427 33.5,10.5 Z"/></g>
<g><path style="opacity:1" fill="#38262b" d="M 52.5,10.5 C 53.1667,10.5 53.8333,10.5 54.5,10.5C 56.5487,11.6414 58.5487,11.6414 60.5,10.5C 63.267,10.8702 65.267,12.2036 66.5,14.5C 64.8333,14.5 63.1667,14.5 61.5,14.5C 58.8962,13.4696 56.2295,13.4696 53.5,14.5C 53.9528,13.5416 54.6195,12.7083 55.5,12C 54.5509,11.3828 53.7175,11.5494 53,12.5C 52.5357,11.9056 52.369,11.2389 52.5,10.5 Z"/></g>
<g><path style="opacity:1" fill="#35252a" d="M 39.5,11.5 C 40.6005,12.6049 41.2671,13.9382 41.5,15.5C 39.5853,15.7845 37.9187,15.4511 36.5,14.5C 37.1667,13.8333 37.8333,13.1667 38.5,12.5C 38.5,11.8333 38.8333,11.5 39.5,11.5 Z"/></g>
<g><path style="opacity:1" fill="#221720" d="M 47.5,13.5 C 45.8984,15.0739 43.8984,15.7406 41.5,15.5C 41.2671,13.9382 40.6005,12.6049 39.5,11.5C 42.408,10.4309 45.408,10.2642 48.5,11C 46.6412,11.6008 46.3079,12.4341 47.5,13.5 Z"/></g>
<g><path style="opacity:1" fill="#211821" d="M 36.5,10.5 C 36.5,11.8333 37.1667,12.5 38.5,12.5C 37.8333,13.1667 37.1667,13.8333 36.5,14.5C 36.1667,14.5 35.8333,14.5 35.5,14.5C 34.5768,15.3029 33.5768,15.4696 32.5,15C 32.3757,14.0301 32.3757,13.1968 32.5,12.5C 32.5,11.8333 32.8333,11.5 33.5,11.5C 34.609,11.4431 35.609,11.1098 36.5,10.5 Z"/></g>
<g><path style="opacity:1" fill="#271b24" d="M 30.5,12.5 C 31.1667,12.5 31.8333,12.5 32.5,12.5C 32.3757,13.1968 32.3757,14.0301 32.5,15C 33.5768,15.4696 34.5768,15.3029 35.5,14.5C 35.5,15.1667 35.5,15.8333 35.5,16.5C 32.4816,16.3354 29.4816,16.502 26.5,17C 25.5842,17.2784 24.9175,17.7784 24.5,18.5C 23.8333,18.5 23.1667,18.5 22.5,18.5C 24.4426,15.5293 27.1092,13.5293 30.5,12.5 Z"/></g>
<g><path style="opacity:1" fill="#452f33" d="M 47.5,13.5 C 48.5,13.5 49.5,13.5 50.5,13.5C 50.8417,14.3382 51.5084,14.6716 52.5,14.5C 52.1667,15.5 51.5,16.1667 50.5,16.5C 45.5,16.5 40.5,16.5 35.5,16.5C 35.5,15.8333 35.5,15.1667 35.5,14.5C 35.8333,14.5 36.1667,14.5 36.5,14.5C 37.9187,15.4511 39.5853,15.7845 41.5,15.5C 43.8984,15.7406 45.8984,15.0739 47.5,13.5 Z"/></g>
<g><path style="opacity:1" fill="#94675c" d="M 61.5,14.5 C 61.5,15.8333 61.5,17.1667 61.5,18.5C 61.5,21.1667 61.5,23.8333 61.5,26.5C 61.1667,26.5 60.8333,26.5 60.5,26.5C 60.5,22.8333 60.5,19.1667 60.5,15.5C 58.2646,15.2053 56.2646,15.5386 54.5,16.5C 53.1667,16.8333 51.8333,17.1667 50.5,17.5C 50.5,17.1667 50.5,16.8333 50.5,16.5C 51.5,16.1667 52.1667,15.5 52.5,14.5C 52.8333,14.5 53.1667,14.5 53.5,14.5C 56.2295,13.4696 58.8962,13.4696 61.5,14.5 Z"/></g>
<g><path style="opacity:1" fill="#624341" d="M 35.5,16.5 C 40.5,16.5 45.5,16.5 50.5,16.5C 50.5,16.8333 50.5,17.1667 50.5,17.5C 49.5,17.5 48.5,17.5 47.5,17.5C 40.2192,16.9287 33.2192,17.5953 26.5,19.5C 25.8333,19.5 25.1667,19.5 24.5,19.5C 24.5,19.1667 24.5,18.8333 24.5,18.5C 24.9175,17.7784 25.5842,17.2784 26.5,17C 29.4816,16.502 32.4816,16.3354 35.5,16.5 Z"/></g>
<g><path style="opacity:1" fill="#da9987" d="M 54.5,16.5 C 56.099,16.2322 57.4324,16.5655 58.5,17.5C 56.139,17.6741 53.8056,18.0074 51.5,18.5C 50.1667,18.5 48.8333,18.5 47.5,18.5C 47.5,18.1667 47.5,17.8333 47.5,17.5C 48.5,17.5 49.5,17.5 50.5,17.5C 51.8333,17.1667 53.1667,16.8333 54.5,16.5 Z"/></g>
<g><path style="opacity:1" fill="#eba691" d="M 58.5,17.5 C 59.4345,18.5676 59.7678,19.901 59.5,21.5C 59.1667,21.5 58.8333,21.5 58.5,21.5C 56.3382,20.5829 54.0048,20.5829 51.5,21.5C 51.5,20.5 51.5,19.5 51.5,18.5C 53.8056,18.0074 56.139,17.6741 58.5,17.5 Z"/></g>
<g><path style="opacity:1" fill="#e2a38f" d="M 47.5,18.5 C 45.0521,19.4731 42.3854,19.8064 39.5,19.5C 36.2869,19.19 33.2869,19.5233 30.5,20.5C 29.8333,20.5 29.1667,20.5 28.5,20.5C 28.6107,19.8826 28.944,19.3826 29.5,19C 35.4908,18.5005 41.4908,18.3338 47.5,18.5 Z"/></g>
<g><path style="opacity:1" fill="#f2ac95" d="M 30.5,20.5 C 33.2869,19.5233 36.2869,19.19 39.5,19.5C 39.5,20.1667 39.5,20.8333 39.5,21.5C 36.8333,21.5 34.1667,21.5 31.5,21.5C 31.5,20.8333 31.1667,20.5 30.5,20.5 Z"/></g>
<g><path style="opacity:0.996" fill="#514448" d="M 61.5,14.5 C 63.1667,14.5 64.8333,14.5 66.5,14.5C 67.404,15.209 67.7373,16.209 67.5,17.5C 66.5655,18.5676 66.2322,19.901 66.5,21.5C 64.8007,21.4729 63.4674,20.8062 62.5,19.5C 62.5,18.8333 62.1667,18.5 61.5,18.5C 61.5,17.1667 61.5,15.8333 61.5,14.5 Z"/></g>
<g><path style="opacity:1" fill="#efa68e" d="M 47.5,18.5 C 48.8333,18.5 50.1667,18.5 51.5,18.5C 51.5,19.5 51.5,20.5 51.5,21.5C 49.8333,21.5 48.1667,21.5 46.5,21.5C 44.0298,20.1221 41.6965,20.4554 39.5,22.5C 39.5,22.1667 39.5,21.8333 39.5,21.5C 39.5,20.8333 39.5,20.1667 39.5,19.5C 42.3854,19.8064 45.0521,19.4731 47.5,18.5 Z"/></g>
<g><path style="opacity:1" fill="#f0a38d" d="M 46.5,21.5 C 45.8333,21.5 45.5,21.8333 45.5,22.5C 43.139,22.6741 40.8056,23.0074 38.5,23.5C 38.5,22.8333 38.8333,22.5 39.5,22.5C 41.6965,20.4554 44.0298,20.1221 46.5,21.5 Z"/></g>
<g><path style="opacity:1" fill="#eaa88f" d="M 28.5,20.5 C 29.1667,20.5 29.8333,20.5 30.5,20.5C 31.1667,20.5 31.5,20.8333 31.5,21.5C 31.1667,22.1667 30.8333,22.8333 30.5,23.5C 29.1667,24.8333 27.8333,24.8333 26.5,23.5C 26.427,21.9731 27.0937,20.9731 28.5,20.5 Z"/></g>
<g><path style="opacity:1" fill="#efa592" d="M 31.5,21.5 C 34.1667,21.5 36.8333,21.5 39.5,21.5C 39.5,21.8333 39.5,22.1667 39.5,22.5C 38.8333,22.5 38.5,22.8333 38.5,23.5C 37.8333,23.5 37.1667,23.5 36.5,23.5C 34.5453,22.0698 32.8786,22.4031 31.5,24.5C 30.8333,24.5 30.5,24.1667 30.5,23.5C 30.8333,22.8333 31.1667,22.1667 31.5,21.5 Z"/></g>
<g><path style="opacity:1" fill="#eca28b" d="M 58.5,21.5 C 58.1788,23.0481 57.1788,23.7148 55.5,23.5C 52.3752,22.5206 49.0419,22.1872 45.5,22.5C 45.5,21.8333 45.8333,21.5 46.5,21.5C 48.1667,21.5 49.8333,21.5 51.5,21.5C 54.0048,20.5829 56.3382,20.5829 58.5,21.5 Z"/></g>
<g><path style="opacity:1" fill="#8f6b62" d="M 24.5,19.5 C 25.1667,19.5 25.8333,19.5 26.5,19.5C 25.5975,22.3915 25.2641,25.3915 25.5,28.5C 25.1667,28.5 24.8333,28.5 24.5,28.5C 24.5,25.5 24.5,22.5 24.5,19.5 Z"/></g>
<g><path style="opacity:1" fill="#685454" d="M 62.5,19.5 C 63.4674,20.8062 64.8007,21.4729 66.5,21.5C 66.7678,23.099 66.4345,24.4324 65.5,25.5C 65.1788,23.9519 64.1788,23.2852 62.5,23.5C 62.5,22.1667 62.5,20.8333 62.5,19.5 Z"/></g>
<g><path style="opacity:1" fill="#be8b7b" d="M 47.5,17.5 C 47.5,17.8333 47.5,18.1667 47.5,18.5C 41.4908,18.3338 35.4908,18.5005 29.5,19C 28.944,19.3826 28.6107,19.8826 28.5,20.5C 27.0937,20.9731 26.427,21.9731 26.5,23.5C 26.5,25.1667 26.5,26.8333 26.5,28.5C 26.1667,28.5 25.8333,28.5 25.5,28.5C 25.2641,25.3915 25.5975,22.3915 26.5,19.5C 33.2192,17.5953 40.2192,16.9287 47.5,17.5 Z"/></g>
<g><path style="opacity:1" fill="#e79b85" d="M 45.5,22.5 C 49.0419,22.1872 52.3752,22.5206 55.5,23.5C 52.5404,24.032 52.2071,24.6987 54.5,25.5C 55.1667,26.1667 55.8333,26.8333 56.5,27.5C 55.5,27.5 54.5,27.5 53.5,27.5C 51.7354,26.5386 49.7354,26.2053 47.5,26.5C 48.7175,25.8386 50.0508,25.1719 51.5,24.5C 48.8013,23.2706 46.1346,23.2706 43.5,24.5C 41.8333,24.5 40.1667,24.5 38.5,24.5C 36.8333,24.5 35.1667,24.5 33.5,24.5C 34.209,23.596 35.209,23.2627 36.5,23.5C 37.1667,23.5 37.8333,23.5 38.5,23.5C 40.8056,23.0074 43.139,22.6741 45.5,22.5 Z"/></g>
<g><path style="opacity:1" fill="#e3967f" d="M 47.5,26.5 C 47.1667,26.5 46.8333,26.5 46.5,26.5C 45.8333,26.5 45.1667,26.5 44.5,26.5C 44.1667,25.8333 43.8333,25.1667 43.5,24.5C 46.1346,23.2706 48.8013,23.2706 51.5,24.5C 50.0508,25.1719 48.7175,25.8386 47.5,26.5 Z"/></g>
<g><path style="opacity:1" fill="#e49d87" d="M 58.5,21.5 C 58.8333,21.5 59.1667,21.5 59.5,21.5C 59.5,22.8333 59.5,24.1667 59.5,25.5C 57.7163,24.2801 56.0496,24.2801 54.5,25.5C 52.2071,24.6987 52.5404,24.032 55.5,23.5C 57.1788,23.7148 58.1788,23.0481 58.5,21.5 Z"/></g>
<g><path style="opacity:1" fill="#cf927d" d="M 54.5,16.5 C 56.2646,15.5386 58.2646,15.2053 60.5,15.5C 60.5,19.1667 60.5,22.8333 60.5,26.5C 60.1667,26.5 59.8333,26.5 59.5,26.5C 59.5,26.1667 59.5,25.8333 59.5,25.5C 59.5,24.1667 59.5,22.8333 59.5,21.5C 59.7678,19.901 59.4345,18.5676 58.5,17.5C 57.4324,16.5655 56.099,16.2322 54.5,16.5 Z"/></g>
<g><path style="opacity:1" fill="#735852" d="M 61.5,18.5 C 62.1667,18.5 62.5,18.8333 62.5,19.5C 62.5,20.8333 62.5,22.1667 62.5,23.5C 64.1788,23.2852 65.1788,23.9519 65.5,25.5C 64.9569,25.56 64.6236,25.8933 64.5,26.5C 65.6364,26.9643 66.6364,27.2976 67.5,27.5C 67.5,28.1667 67.5,28.8333 67.5,29.5C 66.8333,29.5 66.5,29.8333 66.5,30.5C 66.1667,30.5 65.8333,30.5 65.5,30.5C 64.8333,30.1667 64.1667,29.8333 63.5,29.5C 63.573,27.9731 62.9063,26.9731 61.5,26.5C 61.5,23.8333 61.5,21.1667 61.5,18.5 Z"/></g>
<g><path style="opacity:0.804" fill="#403336" d="M 22.5,18.5 C 23.1667,18.5 23.8333,18.5 24.5,18.5C 24.5,18.8333 24.5,19.1667 24.5,19.5C 23.8333,21.8333 23.1667,24.1667 22.5,26.5C 20.0285,23.7857 20.0285,21.1191 22.5,18.5 Z"/></g>
<g><path style="opacity:1" fill="#e3a088" d="M 26.5,23.5 C 27.8333,24.8333 29.1667,24.8333 30.5,23.5C 30.5,24.1667 30.8333,24.5 31.5,24.5C 31.5,25.5 31.5,26.5 31.5,27.5C 31.3893,28.1174 31.056,28.6174 30.5,29C 32.7078,29.1909 34.7078,29.6909 36.5,30.5C 36.1667,30.5 35.8333,30.5 35.5,30.5C 31.9878,31.0545 28.9878,30.3878 26.5,28.5C 26.5,26.8333 26.5,25.1667 26.5,23.5 Z"/></g>
<g><path style="opacity:1" fill="#df947d" d="M 38.5,24.5 C 40.1667,24.5 41.8333,24.5 43.5,24.5C 43.8333,25.1667 44.1667,25.8333 44.5,26.5C 42.8828,27.038 41.2161,27.3713 39.5,27.5C 39.1583,26.6618 38.4916,26.3284 37.5,26.5C 37.8333,25.8333 38.1667,25.1667 38.5,24.5 Z"/></g>
<g><path style="opacity:1" fill="#e59a84" d="M 59.5,25.5 C 59.5,25.8333 59.5,26.1667 59.5,26.5C 59.5,27.1667 59.1667,27.5 58.5,27.5C 57.8333,27.5 57.1667,27.5 56.5,27.5C 55.8333,26.8333 55.1667,26.1667 54.5,25.5C 56.0496,24.2801 57.7163,24.2801 59.5,25.5 Z"/></g>
<g><path style="opacity:1" fill="#6f645c" d="M 67.5,17.5 C 67.7878,20.9389 68.4544,24.2722 69.5,27.5C 68.8333,27.5 68.1667,27.5 67.5,27.5C 66.6364,27.2976 65.6364,26.9643 64.5,26.5C 64.6236,25.8933 64.9569,25.56 65.5,25.5C 66.4345,24.4324 66.7678,23.099 66.5,21.5C 66.2322,19.901 66.5655,18.5676 67.5,17.5 Z"/></g>
<g><path style="opacity:1" fill="#e1957e" d="M 33.5,24.5 C 35.1667,24.5 36.8333,24.5 38.5,24.5C 38.1667,25.1667 37.8333,25.8333 37.5,26.5C 35.712,26.7852 34.0453,26.4519 32.5,25.5C 32.6236,24.8933 32.9569,24.56 33.5,24.5 Z"/></g>
<g><path style="opacity:1" fill="#e99d87" d="M 36.5,23.5 C 35.209,23.2627 34.209,23.596 33.5,24.5C 32.9569,24.56 32.6236,24.8933 32.5,25.5C 34.0453,26.4519 35.712,26.7852 37.5,26.5C 38.4916,26.3284 39.1583,26.6618 39.5,27.5C 39.1667,27.5 38.8333,27.5 38.5,27.5C 36.1667,27.5 33.8333,27.5 31.5,27.5C 31.5,26.5 31.5,25.5 31.5,24.5C 32.8786,22.4031 34.5453,22.0698 36.5,23.5 Z"/></g>
<g><path style="opacity:1" fill="#f0a891" d="M 46.5,26.5 C 46.8333,26.5 47.1667,26.5 47.5,26.5C 49.7354,26.2053 51.7354,26.5386 53.5,27.5C 52.5,27.8333 51.8333,28.5 51.5,29.5C 49.1667,29.5 46.8333,29.5 44.5,29.5C 44.7822,28.2223 45.4489,27.2223 46.5,26.5 Z"/></g>
<g><path style="opacity:1" fill="#f0a990" d="M 31.5,27.5 C 33.8333,27.5 36.1667,27.5 38.5,27.5C 39.8333,28.5 39.8333,29.5 38.5,30.5C 37.8333,30.5 37.1667,30.5 36.5,30.5C 34.7078,29.6909 32.7078,29.1909 30.5,29C 31.056,28.6174 31.3893,28.1174 31.5,27.5 Z"/></g>
<g><path style="opacity:0.937" fill="#523c3a" d="M 24.5,19.5 C 24.5,22.5 24.5,25.5 24.5,28.5C 24.5,29.1667 24.5,29.8333 24.5,30.5C 24.1667,30.5 23.8333,30.5 23.5,30.5C 22.7659,29.2921 22.4326,27.9587 22.5,26.5C 23.1667,24.1667 23.8333,21.8333 24.5,19.5 Z"/></g>
<g><path style="opacity:1" fill="#eea38b" d="M 44.5,26.5 C 45.1667,26.5 45.8333,26.5 46.5,26.5C 45.4489,27.2223 44.7822,28.2223 44.5,29.5C 42.4352,29.5172 40.4352,29.8505 38.5,30.5C 39.8333,29.5 39.8333,28.5 38.5,27.5C 38.8333,27.5 39.1667,27.5 39.5,27.5C 41.2161,27.3713 42.8828,27.038 44.5,26.5 Z"/></g>
<g><path style="opacity:1" fill="#eca795" d="M 53.5,27.5 C 54.5,27.5 55.5,27.5 56.5,27.5C 57.1667,27.5 57.8333,27.5 58.5,27.5C 58.8333,28.1667 59.1667,28.8333 59.5,29.5C 56.8333,29.5 54.1667,29.5 51.5,29.5C 51.8333,28.5 52.5,27.8333 53.5,27.5 Z"/></g>
<g><path style="opacity:1" fill="#d69683" d="M 59.5,26.5 C 59.8333,26.5 60.1667,26.5 60.5,26.5C 60.8333,26.5 61.1667,26.5 61.5,26.5C 62.9063,26.9731 63.573,27.9731 63.5,29.5C 63.5,29.8333 63.5,30.1667 63.5,30.5C 62.8333,30.5 62.1667,30.5 61.5,30.5C 61.1583,29.6618 60.4916,29.3284 59.5,29.5C 59.1667,28.8333 58.8333,28.1667 58.5,27.5C 59.1667,27.5 59.5,27.1667 59.5,26.5 Z"/></g>
<g><path style="opacity:1" fill="#e29982" d="M 44.5,29.5 C 46.8333,29.5 49.1667,29.5 51.5,29.5C 51.5,29.8333 51.5,30.1667 51.5,30.5C 49.8333,30.5 48.1667,30.5 46.5,30.5C 44.7839,30.6287 43.1172,30.962 41.5,31.5C 39.5,31.5 37.5,31.5 35.5,31.5C 35.5,31.1667 35.5,30.8333 35.5,30.5C 35.8333,30.5 36.1667,30.5 36.5,30.5C 37.1667,30.5 37.8333,30.5 38.5,30.5C 40.4352,29.8505 42.4352,29.5172 44.5,29.5 Z"/></g>
<g><path style="opacity:1" fill="#d09283" d="M 51.5,30.5 C 51.5,30.1667 51.5,29.8333 51.5,29.5C 54.1667,29.5 56.8333,29.5 59.5,29.5C 60.4916,29.3284 61.1583,29.6618 61.5,30.5C 60.5386,32.2646 60.2053,34.2646 60.5,36.5C 60.1667,36.5 59.8333,36.5 59.5,36.5C 59.1583,35.6618 58.4916,35.3284 57.5,35.5C 57.5,35.1667 57.5,34.8333 57.5,34.5C 58.8062,33.5326 59.4729,32.1993 59.5,30.5C 58.1667,30.5 56.8333,30.5 55.5,30.5C 54.1667,30.5 52.8333,30.5 51.5,30.5 Z"/></g>
<g><path style="opacity:1" fill="#d39c8b" d="M 25.5,28.5 C 25.8333,28.5 26.1667,28.5 26.5,28.5C 28.9878,30.3878 31.9878,31.0545 35.5,30.5C 35.5,30.8333 35.5,31.1667 35.5,31.5C 32.2869,31.19 29.2869,31.5233 26.5,32.5C 25.5655,31.4324 25.2322,30.099 25.5,28.5 Z"/></g>
<g><path style="opacity:1" fill="#7b534e" d="M 46.5,31.5 C 46.5,31.1667 46.5,30.8333 46.5,30.5C 48.1667,30.5 49.8333,30.5 51.5,30.5C 52.8333,30.5 54.1667,30.5 55.5,30.5C 55.9175,31.2216 56.5842,31.7216 57.5,32C 55.8659,32.4935 54.1992,32.6602 52.5,32.5C 50.7354,31.5386 48.7354,31.2053 46.5,31.5 Z"/></g>
<g><path style="opacity:1" fill="#916b66" d="M 35.5,31.5 C 35.5,31.8333 35.5,32.1667 35.5,32.5C 34.1667,32.5 32.8333,32.5 31.5,32.5C 30.448,32.3505 29.448,32.5172 28.5,33C 31.4016,33.9186 31.7349,34.7519 29.5,35.5C 28.0998,34.8999 27.0998,33.8999 26.5,32.5C 29.2869,31.5233 32.2869,31.19 35.5,31.5 Z"/></g>
<g><path style="opacity:1" fill="#c17e6b" d="M 35.5,32.5 C 35.5,32.1667 35.5,31.8333 35.5,31.5C 37.5,31.5 39.5,31.5 41.5,31.5C 41.1667,32.8333 40.8333,34.1667 40.5,35.5C 40.5,35.8333 40.5,36.1667 40.5,36.5C 40.1667,36.5 39.8333,36.5 39.5,36.5C 39.5,35.1667 39.5,33.8333 39.5,32.5C 38.5,32.5 37.5,32.5 36.5,32.5C 36.1667,32.5 35.8333,32.5 35.5,32.5 Z"/></g>
<g><path style="opacity:1" fill="#dd9b88" d="M 61.5,30.5 C 62.1667,30.5 62.8333,30.5 63.5,30.5C 63.5,32.1667 63.5,33.8333 63.5,35.5C 63.6716,36.4916 63.3382,37.1583 62.5,37.5C 62.1583,36.6618 61.4916,36.3284 60.5,36.5C 60.2053,34.2646 60.5386,32.2646 61.5,30.5 Z"/></g>
<g><path style="opacity:1" fill="#5f3430" d="M 45.5,31.5 C 45.8333,31.5 46.1667,31.5 46.5,31.5C 48.7354,31.2053 50.7354,31.5386 52.5,32.5C 51.448,32.3505 50.448,32.5172 49.5,33C 51.74,33.977 54.0733,34.477 56.5,34.5C 53.7131,35.4767 50.7131,35.81 47.5,35.5C 46.8333,34.1667 46.1667,32.8333 45.5,31.5 Z"/></g>
<g><path style="opacity:1" fill="#a87468" d="M 55.5,30.5 C 56.8333,30.5 58.1667,30.5 59.5,30.5C 59.4729,32.1993 58.8062,33.5326 57.5,34.5C 57.1667,34.5 56.8333,34.5 56.5,34.5C 54.0733,34.477 51.74,33.977 49.5,33C 50.448,32.5172 51.448,32.3505 52.5,32.5C 54.1992,32.6602 55.8659,32.4935 57.5,32C 56.5842,31.7216 55.9175,31.2216 55.5,30.5 Z"/></g>
<g><path style="opacity:0.302" fill="#956b63" d="M 23.5,30.5 C 23.8333,30.5 24.1667,30.5 24.5,30.5C 25.2631,33.1411 25.4298,35.8078 25,38.5C 24.7679,37.2625 24.2679,36.2625 23.5,35.5C 23.5,33.8333 23.5,32.1667 23.5,30.5 Z"/></g>
<g><path style="opacity:1" fill="#995a4b" d="M 45.5,31.5 C 46.1667,32.8333 46.8333,34.1667 47.5,35.5C 47.8333,36.1667 48.1667,36.8333 48.5,37.5C 46.1555,37.021 44.8222,35.521 44.5,33C 44.5699,32.2352 44.9033,31.7352 45.5,31.5 Z"/></g>
<g><path style="opacity:1" fill="#8f665f" d="M 63.5,29.5 C 64.1667,29.8333 64.8333,30.1667 65.5,30.5C 65.5,32.5 65.5,34.5 65.5,36.5C 65.7845,38.4147 65.4511,40.0813 64.5,41.5C 64.1667,41.5 63.8333,41.5 63.5,41.5C 64.2907,39.3093 64.2907,37.3093 63.5,35.5C 63.5,33.8333 63.5,32.1667 63.5,30.5C 63.5,30.1667 63.5,29.8333 63.5,29.5 Z"/></g>
<g><path style="opacity:0.839" fill="#d88d73" d="M 67.5,27.5 C 68.1667,27.5 68.8333,27.5 69.5,27.5C 71.4526,31.0496 71.786,34.7163 70.5,38.5C 70.1667,38.5 69.8333,38.5 69.5,38.5C 69.5955,35.3084 68.9288,32.3084 67.5,29.5C 67.5,28.8333 67.5,28.1667 67.5,27.5 Z"/></g>
<g><path style="opacity:1" fill="#432625" d="M 31.5,32.5 C 32.8333,32.5 34.1667,32.5 35.5,32.5C 35.8333,32.5 36.1667,32.5 36.5,32.5C 36.1667,33.8333 35.8333,35.1667 35.5,36.5C 34.5,36.5 33.5,36.5 32.5,36.5C 32.9528,35.5416 33.6195,34.7083 34.5,34C 33.2625,33.7679 32.2625,33.2679 31.5,32.5 Z"/></g>
<g><path style="opacity:1" fill="#733e39" d="M 36.5,32.5 C 37.5,32.5 38.5,32.5 39.5,32.5C 39.5,33.8333 39.5,35.1667 39.5,36.5C 39.1667,36.5 38.8333,36.5 38.5,36.5C 37.5,36.5 36.5,36.5 35.5,36.5C 35.8333,35.1667 36.1667,33.8333 36.5,32.5 Z"/></g>
<g><path style="opacity:1" fill="#c07161" d="M 65.5,30.5 C 65.8333,30.5 66.1667,30.5 66.5,30.5C 67.1667,32.8333 67.8333,35.1667 68.5,37.5C 67.609,36.8902 66.609,36.5569 65.5,36.5C 65.5,34.5 65.5,32.5 65.5,30.5 Z"/></g>
<g><path style="opacity:1" fill="#eda08c" d="M 67.5,29.5 C 68.9288,32.3084 69.5955,35.3084 69.5,38.5C 69.1667,38.5 68.8333,38.5 68.5,38.5C 68.5,38.1667 68.5,37.8333 68.5,37.5C 67.8333,35.1667 67.1667,32.8333 66.5,30.5C 66.5,29.8333 66.8333,29.5 67.5,29.5 Z"/></g>
<g><path style="opacity:1" fill="#c89286" d="M 24.5,28.5 C 24.8333,28.5 25.1667,28.5 25.5,28.5C 25.2322,30.099 25.5655,31.4324 26.5,32.5C 27.0998,33.8999 28.0998,34.8999 29.5,35.5C 28.0937,35.9731 27.427,36.9731 27.5,38.5C 27.5,38.8333 27.5,39.1667 27.5,39.5C 26.8333,39.8333 26.1667,40.1667 25.5,40.5C 24.8333,40.1667 24.1667,39.8333 23.5,39.5C 23.5,38.1667 23.5,36.8333 23.5,35.5C 24.2679,36.2625 24.7679,37.2625 25,38.5C 25.4298,35.8078 25.2631,33.1411 24.5,30.5C 24.5,29.8333 24.5,29.1667 24.5,28.5 Z"/></g>
<g><path style="opacity:1" fill="#67413e" d="M 31.5,32.5 C 32.2625,33.2679 33.2625,33.7679 34.5,34C 33.6195,34.7083 32.9528,35.5416 32.5,36.5C 31.8333,36.5 31.5,36.8333 31.5,37.5C 30.1667,37.5 29.5,36.8333 29.5,35.5C 31.7349,34.7519 31.4016,33.9186 28.5,33C 29.448,32.5172 30.448,32.3505 31.5,32.5 Z"/></g>
<g><path style="opacity:1" fill="#935a50" d="M 56.5,34.5 C 56.8333,34.5 57.1667,34.5 57.5,34.5C 57.5,34.8333 57.5,35.1667 57.5,35.5C 57.5,36.1667 57.1667,36.5 56.5,36.5C 52.3566,36.263 49.6899,36.9296 48.5,38.5C 48.5,38.1667 48.5,37.8333 48.5,37.5C 48.1667,36.8333 47.8333,36.1667 47.5,35.5C 50.7131,35.81 53.7131,35.4767 56.5,34.5 Z"/></g>
<g><path style="opacity:1" fill="#b57665" d="M 56.5,36.5 C 54.8243,38.8337 52.491,39.8337 49.5,39.5C 49.1667,39.5 48.8333,39.5 48.5,39.5C 48.5,39.1667 48.5,38.8333 48.5,38.5C 49.6899,36.9296 52.3566,36.263 56.5,36.5 Z"/></g>
<g><path style="opacity:1" fill="#db967e" d="M 59.5,36.5 C 59.8333,36.5 60.1667,36.5 60.5,36.5C 61.4916,36.3284 62.1583,36.6618 62.5,37.5C 62.5,39.5 62.5,41.5 62.5,43.5C 60.7454,44.9044 58.7454,45.9044 56.5,46.5C 56.8333,45.8333 57.1667,45.1667 57.5,44.5C 58.6491,44.2089 59.3158,43.3756 59.5,42C 59.472,40.9302 59.1386,40.0968 58.5,39.5C 58.2627,38.209 58.596,37.209 59.5,36.5 Z"/></g>
<g><path style="opacity:1" fill="#f6b19a" d="M 42.5,34.5 C 43.0356,37.6981 42.369,40.3647 40.5,42.5C 40.5,40.5 40.5,38.5 40.5,36.5C 40.5,36.1667 40.5,35.8333 40.5,35.5C 41.1667,35.1667 41.8333,34.8333 42.5,34.5 Z"/></g>
<g><path style="opacity:1" fill="#ae7565" d="M 29.5,35.5 C 29.5,36.8333 30.1667,37.5 31.5,37.5C 32.6354,39.2132 34.302,39.8799 36.5,39.5C 35.0813,40.4511 33.4147,40.7845 31.5,40.5C 30.713,38.8958 29.3797,38.2291 27.5,38.5C 27.427,36.9731 28.0937,35.9731 29.5,35.5 Z"/></g>
<g><path style="opacity:1" fill="#995f55" d="M 32.5,36.5 C 33.5,36.5 34.5,36.5 35.5,36.5C 36.5,36.5 37.5,36.5 38.5,36.5C 38.573,38.0269 37.9063,39.0269 36.5,39.5C 34.302,39.8799 32.6354,39.2132 31.5,37.5C 31.5,36.8333 31.8333,36.5 32.5,36.5 Z"/></g>
<g><path style="opacity:1" fill="#d08a75" d="M 46.5,30.5 C 46.5,30.8333 46.5,31.1667 46.5,31.5C 46.1667,31.5 45.8333,31.5 45.5,31.5C 44.9033,31.7352 44.5699,32.2352 44.5,33C 44.8222,35.521 46.1555,37.021 48.5,37.5C 48.5,37.8333 48.5,38.1667 48.5,38.5C 48.5,38.8333 48.5,39.1667 48.5,39.5C 47.1667,40.8333 45.8333,40.8333 44.5,39.5C 43.8333,37.8333 43.1667,36.1667 42.5,34.5C 41.8333,34.8333 41.1667,35.1667 40.5,35.5C 40.8333,34.1667 41.1667,32.8333 41.5,31.5C 43.1172,30.962 44.7839,30.6287 46.5,30.5 Z"/></g>
<g><path style="opacity:1" fill="#d38e79" d="M 57.5,35.5 C 58.4916,35.3284 59.1583,35.6618 59.5,36.5C 58.596,37.209 58.2627,38.209 58.5,39.5C 58.1667,39.5 57.8333,39.5 57.5,39.5C 54.9039,40.2653 52.2372,40.5987 49.5,40.5C 49.5,40.1667 49.5,39.8333 49.5,39.5C 52.491,39.8337 54.8243,38.8337 56.5,36.5C 57.1667,36.5 57.5,36.1667 57.5,35.5 Z"/></g>
<g><path style="opacity:1" fill="#db9581" d="M 44.5,39.5 C 45.8333,40.8333 47.1667,40.8333 48.5,39.5C 48.8333,39.5 49.1667,39.5 49.5,39.5C 49.5,39.8333 49.5,40.1667 49.5,40.5C 48.8333,40.5 48.5,40.8333 48.5,41.5C 48.5,41.8333 48.5,42.1667 48.5,42.5C 47.8333,42.5 47.5,42.8333 47.5,43.5C 46.5,43.5 45.5,43.5 44.5,43.5C 44.5,42.1667 44.5,40.8333 44.5,39.5 Z"/></g>
<g><path style="opacity:1" fill="#f1a993" d="M 68.5,38.5 C 68.8333,38.5 69.1667,38.5 69.5,38.5C 69.8333,38.5 70.1667,38.5 70.5,38.5C 70.7678,40.099 70.4345,41.4324 69.5,42.5C 68.6016,41.8423 67.6016,41.1757 66.5,40.5C 66.8555,39.4777 67.5222,38.811 68.5,38.5 Z"/></g>
<g><path style="opacity:1" fill="#dd9a82" d="M 27.5,38.5 C 29.3797,38.2291 30.713,38.8958 31.5,40.5C 31.5,40.8333 31.5,41.1667 31.5,41.5C 30.0413,41.4326 28.7079,41.7659 27.5,42.5C 27.5,41.5 27.5,40.5 27.5,39.5C 27.5,39.1667 27.5,38.8333 27.5,38.5 Z"/></g>
<g><path style="opacity:1" fill="#d2907d" d="M 38.5,36.5 C 38.8333,36.5 39.1667,36.5 39.5,36.5C 39.8333,36.5 40.1667,36.5 40.5,36.5C 40.5,38.5 40.5,40.5 40.5,42.5C 39.8333,42.5 39.5,42.8333 39.5,43.5C 39.1667,43.5 38.8333,43.5 38.5,43.5C 38.5,42.8333 38.1667,42.5 37.5,42.5C 35.7354,41.5386 33.7354,41.2053 31.5,41.5C 31.5,41.1667 31.5,40.8333 31.5,40.5C 33.4147,40.7845 35.0813,40.4511 36.5,39.5C 37.9063,39.0269 38.573,38.0269 38.5,36.5 Z"/></g>
<g><path style="opacity:1" fill="#e59c86" d="M 57.5,39.5 C 57.5,40.8333 56.8333,41.5 55.5,41.5C 53.1667,41.5 50.8333,41.5 48.5,41.5C 48.5,40.8333 48.8333,40.5 49.5,40.5C 52.2372,40.5987 54.9039,40.2653 57.5,39.5 Z"/></g>
<g><path style="opacity:1" fill="#e6a08e" d="M 31.5,41.5 C 33.7354,41.2053 35.7354,41.5386 37.5,42.5C 37.5,43.1667 37.1667,43.5 36.5,43.5C 34.4727,43.6621 32.4727,43.4955 30.5,43C 31.056,42.6174 31.3893,42.1174 31.5,41.5 Z"/></g>
<g><path style="opacity:1" fill="#f1aa93" d="M 42.5,34.5 C 43.1667,36.1667 43.8333,37.8333 44.5,39.5C 44.5,40.8333 44.5,42.1667 44.5,43.5C 42.8333,43.5 41.1667,43.5 39.5,43.5C 39.5,42.8333 39.8333,42.5 40.5,42.5C 42.369,40.3647 43.0356,37.6981 42.5,34.5 Z"/></g>
<g><path style="opacity:1" fill="#ea9e89" d="M 48.5,41.5 C 50.8333,41.5 53.1667,41.5 55.5,41.5C 54.8333,42.5 54.1667,43.5 53.5,44.5C 52.1667,44.1667 50.8333,43.8333 49.5,43.5C 48.8333,43.5 48.5,43.1667 48.5,42.5C 48.5,42.1667 48.5,41.8333 48.5,41.5 Z"/></g>
<g><path style="opacity:1" fill="#e89882" d="M 57.5,39.5 C 57.8333,39.5 58.1667,39.5 58.5,39.5C 59.1386,40.0968 59.472,40.9302 59.5,42C 59.3158,43.3756 58.6491,44.2089 57.5,44.5C 56.1667,44.5 54.8333,44.5 53.5,44.5C 54.1667,43.5 54.8333,42.5 55.5,41.5C 56.8333,41.5 57.5,40.8333 57.5,39.5 Z"/></g>
<g><path style="opacity:1" fill="#de917f" d="M 65.5,36.5 C 66.609,36.5569 67.609,36.8902 68.5,37.5C 68.5,37.8333 68.5,38.1667 68.5,38.5C 67.5222,38.811 66.8555,39.4777 66.5,40.5C 67.6016,41.1757 68.6016,41.8423 69.5,42.5C 68.8166,44.1765 67.4832,44.8432 65.5,44.5C 64.8902,43.609 64.5569,42.609 64.5,41.5C 65.4511,40.0813 65.7845,38.4147 65.5,36.5 Z"/></g>
<g><path style="opacity:1" fill="#cd9380" d="M 27.5,39.5 C 27.5,40.5 27.5,41.5 27.5,42.5C 27.5,42.8333 27.5,43.1667 27.5,43.5C 27.8333,44.8333 28.1667,46.1667 28.5,47.5C 28.1667,47.5 27.8333,47.5 27.5,47.5C 27.5,46.8333 27.1667,46.5 26.5,46.5C 25.8505,44.5648 25.5172,42.5648 25.5,40.5C 26.1667,40.1667 26.8333,39.8333 27.5,39.5 Z"/></g>
<g><path style="opacity:1" fill="#cc8f7e" d="M 63.5,35.5 C 64.2907,37.3093 64.2907,39.3093 63.5,41.5C 63.5,43.1667 63.5,44.8333 63.5,46.5C 63.1667,46.5 62.8333,46.5 62.5,46.5C 62.5,45.5 62.5,44.5 62.5,43.5C 62.5,41.5 62.5,39.5 62.5,37.5C 63.3382,37.1583 63.6716,36.4916 63.5,35.5 Z"/></g>
<g><path style="opacity:1" fill="#e79c86" d="M 31.5,41.5 C 31.3893,42.1174 31.056,42.6174 30.5,43C 32.4727,43.4955 34.4727,43.6621 36.5,43.5C 36.1667,44.1667 35.8333,44.8333 35.5,45.5C 34.7354,45.9234 33.9021,46.2568 33,46.5C 31.2355,45.3679 29.4021,44.3679 27.5,43.5C 27.5,43.1667 27.5,42.8333 27.5,42.5C 28.7079,41.7659 30.0413,41.4326 31.5,41.5 Z"/></g>
<g><path style="opacity:1" fill="#e8a08e" d="M 38.5,43.5 C 38.8333,43.5 39.1667,43.5 39.5,43.5C 41.1667,43.5 42.8333,43.5 44.5,43.5C 45.5,43.5 46.5,43.5 47.5,43.5C 48.1098,44.391 48.4431,45.391 48.5,46.5C 47.5,46.5 46.5,46.5 45.5,46.5C 42.8333,46.5 40.1667,46.5 37.5,46.5C 37.5569,45.391 37.8902,44.391 38.5,43.5 Z"/></g>
<g><path style="opacity:0.922" fill="#ca9681" d="M 63.5,41.5 C 63.8333,41.5 64.1667,41.5 64.5,41.5C 64.5569,42.609 64.8902,43.609 65.5,44.5C 64.9573,47.2184 64.2906,49.885 63.5,52.5C 63.0461,50.7411 63.0461,48.7411 63.5,46.5C 63.5,44.8333 63.5,43.1667 63.5,41.5 Z"/></g>
<g><path style="opacity:1" fill="#e9a58f" d="M 23.5,39.5 C 24.1667,39.8333 24.8333,40.1667 25.5,40.5C 25.5172,42.5648 25.8505,44.5648 26.5,46.5C 26.5,46.8333 26.5,47.1667 26.5,47.5C 25.5041,47.5858 24.6708,47.2524 24,46.5C 23.5034,44.1902 23.3367,41.8568 23.5,39.5 Z"/></g>
<g><path style="opacity:1" fill="#e2917d" d="M 49.5,43.5 C 50.8333,43.8333 52.1667,44.1667 53.5,44.5C 54.8333,44.5 56.1667,44.5 57.5,44.5C 57.1667,45.1667 56.8333,45.8333 56.5,46.5C 53.6538,46.4484 51.3204,45.4484 49.5,43.5 Z"/></g>
<g><path style="opacity:1" fill="#d5907c" d="M 27.5,43.5 C 29.4021,44.3679 31.2355,45.3679 33,46.5C 33.9021,46.2568 34.7354,45.9234 35.5,45.5C 35.2671,47.0618 34.6005,48.3951 33.5,49.5C 33.1667,50.1667 32.8333,50.8333 32.5,51.5C 31.7777,50.4489 30.7777,49.7822 29.5,49.5C 28.6618,49.1583 28.3284,48.4916 28.5,47.5C 28.1667,46.1667 27.8333,44.8333 27.5,43.5 Z"/></g>
<g><path style="opacity:1" fill="#bc7263" d="M 37.5,42.5 C 38.1667,42.5 38.5,42.8333 38.5,43.5C 37.8902,44.391 37.5569,45.391 37.5,46.5C 37.1667,47.1667 36.8333,47.8333 36.5,48.5C 35.8333,48.5 35.5,48.8333 35.5,49.5C 34.8333,49.5 34.1667,49.5 33.5,49.5C 34.6005,48.3951 35.2671,47.0618 35.5,45.5C 35.8333,44.8333 36.1667,44.1667 36.5,43.5C 37.1667,43.5 37.5,43.1667 37.5,42.5 Z"/></g>
<g><path style="opacity:1" fill="#cb897d" d="M 37.5,46.5 C 40.1667,46.5 42.8333,46.5 45.5,46.5C 45.5,46.8333 45.5,47.1667 45.5,47.5C 43.6208,48.3414 41.6208,48.6747 39.5,48.5C 38.2022,49.1157 37.2022,49.1157 36.5,48.5C 36.8333,47.8333 37.1667,47.1667 37.5,46.5 Z"/></g>
<g><path style="opacity:1" fill="#cd8270" d="M 48.5,42.5 C 48.5,43.1667 48.8333,43.5 49.5,43.5C 51.3204,45.4484 53.6538,46.4484 56.5,46.5C 56.5,47.8333 55.8333,48.5 54.5,48.5C 53.609,47.8902 52.609,47.5569 51.5,47.5C 50.609,46.8902 49.609,46.5569 48.5,46.5C 48.4431,45.391 48.1098,44.391 47.5,43.5C 47.5,42.8333 47.8333,42.5 48.5,42.5 Z"/></g>
<g><path style="opacity:1" fill="#835755" d="M 45.5,47.5 C 45.9382,47.4346 46.2716,47.6012 46.5,48C 45.695,49.1127 45.0283,50.2794 44.5,51.5C 43.8333,51.5 43.1667,51.5 42.5,51.5C 41.0998,50.8999 40.0998,49.8999 39.5,48.5C 41.6208,48.6747 43.6208,48.3414 45.5,47.5 Z"/></g>
<g><path style="opacity:1" fill="#af7f78" d="M 45.5,47.5 C 45.5,47.1667 45.5,46.8333 45.5,46.5C 46.5,46.5 47.5,46.5 48.5,46.5C 49.038,48.1172 49.3713,49.7839 49.5,51.5C 47.8333,51.5 46.1667,51.5 44.5,51.5C 45.0283,50.2794 45.695,49.1127 46.5,48C 46.2716,47.6012 45.9382,47.4346 45.5,47.5 Z"/></g>
<g><path style="opacity:1" fill="#b8816e" d="M 51.5,47.5 C 52.609,47.5569 53.609,47.8902 54.5,48.5C 54.8333,49.1667 55.1667,49.8333 55.5,50.5C 53.8212,50.2852 52.8212,50.9519 52.5,52.5C 52.1667,52.5 51.8333,52.5 51.5,52.5C 51.5,52.1667 51.5,51.8333 51.5,51.5C 51.5,50.1667 51.5,48.8333 51.5,47.5 Z"/></g>
<g><path style="opacity:1" fill="#c58b75" d="M 62.5,43.5 C 62.5,44.5 62.5,45.5 62.5,46.5C 62.405,48.7857 61.7384,50.7857 60.5,52.5C 59.5,48.5 58.5,48.5 57.5,52.5C 56.8333,51.8333 56.1667,51.1667 55.5,50.5C 55.1667,49.8333 54.8333,49.1667 54.5,48.5C 55.8333,48.5 56.5,47.8333 56.5,46.5C 58.7454,45.9044 60.7454,44.9044 62.5,43.5 Z"/></g>
<g><path style="opacity:1" fill="#be8c78" d="M 62.5,46.5 C 62.8333,46.5 63.1667,46.5 63.5,46.5C 63.0461,48.7411 63.0461,50.7411 63.5,52.5C 63.5,53.8333 63.5,55.1667 63.5,56.5C 62.596,55.791 62.2627,54.791 62.5,53.5C 61.5,53.5 60.5,53.5 59.5,53.5C 59.5,52.8333 59.8333,52.5 60.5,52.5C 61.7384,50.7857 62.405,48.7857 62.5,46.5 Z"/></g>
<g><path style="opacity:0.059" fill="#d69f8d" d="M 26.5,46.5 C 27.1667,46.5 27.5,46.8333 27.5,47.5C 27.767,49.9653 28.4336,52.2986 29.5,54.5C 29.5,55.1667 29.8333,55.5 30.5,55.5C 30.5,56.8333 30.5,58.1667 30.5,59.5C 30.1667,59.5 29.8333,59.5 29.5,59.5C 27.8779,55.6781 26.8779,51.6781 26.5,47.5C 26.5,47.1667 26.5,46.8333 26.5,46.5 Z"/></g>
<g><path style="opacity:1" fill="#bb8779" d="M 27.5,47.5 C 27.8333,47.5 28.1667,47.5 28.5,47.5C 28.3284,48.4916 28.6618,49.1583 29.5,49.5C 30.7199,51.2837 30.7199,52.9504 29.5,54.5C 28.4336,52.2986 27.767,49.9653 27.5,47.5 Z"/></g>
<g><path style="opacity:1" fill="#b5867b" d="M 36.5,48.5 C 37.2022,49.1157 38.2022,49.1157 39.5,48.5C 40.0998,49.8999 41.0998,50.8999 42.5,51.5C 39.9899,51.0535 37.9899,51.7202 36.5,53.5C 35.448,53.6495 34.448,53.4828 33.5,53C 34.305,51.8873 34.9717,50.7206 35.5,49.5C 35.5,48.8333 35.8333,48.5 36.5,48.5 Z"/></g>
<g><path style="opacity:1" fill="#c69284" d="M 48.5,46.5 C 49.609,46.5569 50.609,46.8902 51.5,47.5C 51.5,48.8333 51.5,50.1667 51.5,51.5C 50.8333,51.5 50.1667,51.5 49.5,51.5C 49.3713,49.7839 49.038,48.1172 48.5,46.5 Z"/></g>
<g><path style="opacity:1" fill="#ba8874" d="M 29.5,49.5 C 30.7777,49.7822 31.7777,50.4489 32.5,51.5C 32.5,52.5 32.5,53.5 32.5,54.5C 31.8333,54.8333 31.1667,55.1667 30.5,55.5C 29.8333,55.5 29.5,55.1667 29.5,54.5C 30.7199,52.9504 30.7199,51.2837 29.5,49.5 Z"/></g>
<g><path style="opacity:1" fill="#c98e81" d="M 42.5,51.5 C 43.1667,51.5 43.8333,51.5 44.5,51.5C 46.1667,51.5 47.8333,51.5 49.5,51.5C 50.1667,51.5 50.8333,51.5 51.5,51.5C 51.5,51.8333 51.5,52.1667 51.5,52.5C 46.737,52.2256 42.0704,52.559 37.5,53.5C 37.1667,53.5 36.8333,53.5 36.5,53.5C 37.9899,51.7202 39.9899,51.0535 42.5,51.5 Z"/></g>
<g><path style="opacity:1" fill="#9e5652" d="M 51.5,52.5 C 51.8333,52.5 52.1667,52.5 52.5,52.5C 53.1667,52.5 53.5,52.8333 53.5,53.5C 53.5,53.8333 53.5,54.1667 53.5,54.5C 51.8333,54.5 50.1667,54.5 48.5,54.5C 45.1667,54.5 41.8333,54.5 38.5,54.5C 37.8333,54.5 37.5,54.1667 37.5,53.5C 42.0704,52.559 46.737,52.2256 51.5,52.5 Z"/></g>
<g><path style="opacity:1" fill="#ba8c7b" d="M 59.5,53.5 C 60.5,53.5 61.5,53.5 62.5,53.5C 62.2627,54.791 62.596,55.791 63.5,56.5C 63.5,57.5 63.5,58.5 63.5,59.5C 62.5655,60.5676 62.2322,61.901 62.5,63.5C 62.5,64.1667 62.5,64.8333 62.5,65.5C 62.1667,65.5 61.8333,65.5 61.5,65.5C 61.6641,62.8127 61.4974,60.146 61,57.5C 60.2086,58.745 59.7086,60.0783 59.5,61.5C 58.7777,62.5511 57.7777,63.2178 56.5,63.5C 56.5569,62.391 56.8902,61.391 57.5,60.5C 58.2341,59.2921 58.5674,57.9587 58.5,56.5C 59.404,55.791 59.7373,54.791 59.5,53.5 Z"/></g>
<g><path style="opacity:1" fill="#a87665" d="M 33.5,49.5 C 34.1667,49.5 34.8333,49.5 35.5,49.5C 34.9717,50.7206 34.305,51.8873 33.5,53C 34.448,53.4828 35.448,53.6495 36.5,53.5C 36.8333,53.5 37.1667,53.5 37.5,53.5C 37.5,54.1667 37.8333,54.5 38.5,54.5C 38.5,54.8333 38.5,55.1667 38.5,55.5C 37.5,55.5 36.5,55.5 35.5,55.5C 35.5,56.5 35.5,57.5 35.5,58.5C 34.8333,57.8333 34.1667,57.1667 33.5,56.5C 33.6716,55.5084 33.3382,54.8417 32.5,54.5C 32.5,53.5 32.5,52.5 32.5,51.5C 32.8333,50.8333 33.1667,50.1667 33.5,49.5 Z"/></g>
<g><path style="opacity:1" fill="#b07d6c" d="M 55.5,50.5 C 56.1667,51.1667 56.8333,51.8333 57.5,52.5C 57.5,53.8333 57.5,55.1667 57.5,56.5C 56.1667,55.5 54.8333,54.5 53.5,53.5C 53.5,52.8333 53.1667,52.5 52.5,52.5C 52.8212,50.9519 53.8212,50.2852 55.5,50.5 Z"/></g>
<g><path style="opacity:1" fill="#b47d6b" d="M 60.5,52.5 C 59.8333,52.5 59.5,52.8333 59.5,53.5C 59.7373,54.791 59.404,55.791 58.5,56.5C 58.1667,56.5 57.8333,56.5 57.5,56.5C 57.5,55.1667 57.5,53.8333 57.5,52.5C 58.5,48.5 59.5,48.5 60.5,52.5 Z"/></g>
<g><path style="opacity:1" fill="#af7d72" d="M 32.5,54.5 C 33.3382,54.8417 33.6716,55.5084 33.5,56.5C 32.3143,57.7054 32.3143,59.0387 33.5,60.5C 32.8333,60.5 32.1667,60.5 31.5,60.5C 31.5,59.8333 31.1667,59.5 30.5,59.5C 30.5,58.1667 30.5,56.8333 30.5,55.5C 31.1667,55.1667 31.8333,54.8333 32.5,54.5 Z"/></g>
<g><path style="opacity:1" fill="#c97d79" d="M 38.5,55.5 C 38.5,55.1667 38.5,54.8333 38.5,54.5C 41.8333,54.5 45.1667,54.5 48.5,54.5C 48.1667,55.1667 47.8333,55.8333 47.5,56.5C 45.1667,56.5 42.8333,56.5 40.5,56.5C 39.8333,56.1667 39.1667,55.8333 38.5,55.5 Z"/></g>
<g><path style="opacity:1" fill="#bd8979" d="M 48.5,54.5 C 50.1667,54.5 51.8333,54.5 53.5,54.5C 53.5,55.8333 53.5,57.1667 53.5,58.5C 52.2223,58.7822 51.2223,59.4489 50.5,60.5C 50.5983,57.7524 49.5983,57.0857 47.5,58.5C 47.5,57.8333 47.5,57.1667 47.5,56.5C 47.8333,55.8333 48.1667,55.1667 48.5,54.5 Z"/></g>
<g><path style="opacity:1" fill="#a27063" d="M 40.5,56.5 C 42.8333,56.5 45.1667,56.5 47.5,56.5C 47.5,57.1667 47.5,57.8333 47.5,58.5C 45.5648,59.1495 43.5648,59.4828 41.5,59.5C 40.596,58.791 40.2627,57.791 40.5,56.5 Z"/></g>
<g><path style="opacity:1" fill="#a47566" d="M 53.5,53.5 C 54.8333,54.5 56.1667,55.5 57.5,56.5C 57.8333,56.5 58.1667,56.5 58.5,56.5C 58.5674,57.9587 58.2341,59.2921 57.5,60.5C 56.5326,59.1938 55.1993,58.5271 53.5,58.5C 53.5,57.1667 53.5,55.8333 53.5,54.5C 53.5,54.1667 53.5,53.8333 53.5,53.5 Z"/></g>
<g><path style="opacity:1" fill="#c98e7c" d="M 38.5,55.5 C 39.1667,55.8333 39.8333,56.1667 40.5,56.5C 40.2627,57.791 40.596,58.791 41.5,59.5C 41.1788,61.0481 40.1788,61.7148 38.5,61.5C 37.8333,60.1667 36.8333,59.1667 35.5,58.5C 35.5,57.5 35.5,56.5 35.5,55.5C 36.5,55.5 37.5,55.5 38.5,55.5 Z"/></g>
<g><path style="opacity:1" fill="#a37c6b" d="M 53.5,58.5 C 55.1993,58.5271 56.5326,59.1938 57.5,60.5C 56.8902,61.391 56.5569,62.391 56.5,63.5C 55.8333,63.5 55.1667,63.5 54.5,63.5C 52.8333,62.8333 51.1667,62.1667 49.5,61.5C 49.5,60.8333 49.8333,60.5 50.5,60.5C 51.2223,59.4489 52.2223,58.7822 53.5,58.5 Z"/></g>
<g><path style="opacity:1" fill="#a88278" d="M 35.5,58.5 C 36.8333,59.1667 37.8333,60.1667 38.5,61.5C 38.5,61.8333 38.5,62.1667 38.5,62.5C 38.5,63.1667 38.5,63.8333 38.5,64.5C 37.8333,65.1667 37.1667,65.8333 36.5,66.5C 36.1667,66.5 35.8333,66.5 35.5,66.5C 34.1667,64.5 32.8333,62.5 31.5,60.5C 32.1667,60.5 32.8333,60.5 33.5,60.5C 34.2679,61.2625 34.7679,62.2625 35,63.5C 36.6279,62.0383 36.7946,60.3717 35.5,58.5 Z"/></g>
<g><path style="opacity:1" fill="#a37f70" d="M 33.5,56.5 C 34.1667,57.1667 34.8333,57.8333 35.5,58.5C 36.7946,60.3717 36.6279,62.0383 35,63.5C 34.7679,62.2625 34.2679,61.2625 33.5,60.5C 32.3143,59.0387 32.3143,57.7054 33.5,56.5 Z"/></g>
<g><path style="opacity:1" fill="#c28d7c" d="M 50.5,60.5 C 49.8333,60.5 49.5,60.8333 49.5,61.5C 45.9009,62.3439 42.2343,62.6773 38.5,62.5C 38.5,62.1667 38.5,61.8333 38.5,61.5C 40.1788,61.7148 41.1788,61.0481 41.5,59.5C 43.5648,59.4828 45.5648,59.1495 47.5,58.5C 49.5983,57.0857 50.5983,57.7524 50.5,60.5 Z"/></g>
<g><path style="opacity:1" fill="#b48476" d="M 49.5,61.5 C 49.6716,62.4916 49.3382,63.1583 48.5,63.5C 46.2362,64.2186 43.9029,64.552 41.5,64.5C 40.5,64.5 39.5,64.5 38.5,64.5C 38.5,63.8333 38.5,63.1667 38.5,62.5C 42.2343,62.6773 45.9009,62.3439 49.5,61.5 Z"/></g>
<g><path style="opacity:1" fill="#eee8e7" d="M 29.5,59.5 C 29.8333,59.5 30.1667,59.5 30.5,59.5C 31.1667,59.5 31.5,59.8333 31.5,60.5C 32.8333,62.5 34.1667,64.5 35.5,66.5C 34.8333,66.5 34.1667,66.5 33.5,66.5C 30.4656,69.139 29.4656,68.4724 30.5,64.5C 30.2528,63.2867 29.5862,62.62 28.5,62.5C 28.2627,61.209 28.596,60.209 29.5,59.5 Z"/></g>
<g><path style="opacity:1" fill="#d49582" d="M 61.5,65.5 C 60.0755,67.0311 59.4088,66.6977 59.5,64.5C 59.5,63.5 59.5,62.5 59.5,61.5C 59.7086,60.0783 60.2086,58.745 61,57.5C 61.4974,60.146 61.6641,62.8127 61.5,65.5 Z"/></g>
<g><path style="opacity:1" fill="#9b6f63" d="M 48.5,63.5 C 49.7804,64.9313 51.4471,65.5979 53.5,65.5C 53.5,65.8333 53.5,66.1667 53.5,66.5C 52.8333,66.5 52.1667,66.5 51.5,66.5C 49.1944,66.9926 46.861,67.3259 44.5,67.5C 43.3065,66.7281 42.3065,65.7281 41.5,64.5C 43.9029,64.552 46.2362,64.2186 48.5,63.5 Z"/></g>
<g><path style="opacity:1" fill="#9f776a" d="M 49.5,61.5 C 51.1667,62.1667 52.8333,62.8333 54.5,63.5C 54.6716,64.4916 54.3382,65.1583 53.5,65.5C 51.4471,65.5979 49.7804,64.9313 48.5,63.5C 49.3382,63.1583 49.6716,62.4916 49.5,61.5 Z"/></g>
<g><path style="opacity:1" fill="#bf8b76" d="M 59.5,61.5 C 59.5,62.5 59.5,63.5 59.5,64.5C 58.1667,65.8333 56.8333,67.1667 55.5,68.5C 54.8333,68.1667 54.1667,67.8333 53.5,67.5C 53.5,67.1667 53.5,66.8333 53.5,66.5C 53.5,66.1667 53.5,65.8333 53.5,65.5C 54.3382,65.1583 54.6716,64.4916 54.5,63.5C 55.1667,63.5 55.8333,63.5 56.5,63.5C 57.7777,63.2178 58.7777,62.5511 59.5,61.5 Z"/></g>
<g><path style="opacity:0.125" fill="#e9e2da" d="M 63.5,59.5 C 64.6046,62.3596 66.6046,64.3596 69.5,65.5C 69.5,66.1667 69.1667,66.5 68.5,66.5C 67.391,66.4431 66.391,66.1098 65.5,65.5C 65.1227,63.1759 64.1227,62.5092 62.5,63.5C 62.2322,61.901 62.5655,60.5676 63.5,59.5 Z"/></g>
<g><path style="opacity:1" fill="#9a7167" d="M 38.5,64.5 C 39.5,64.5 40.5,64.5 41.5,64.5C 42.3065,65.7281 43.3065,66.7281 44.5,67.5C 42.8008,67.3398 41.1341,67.5065 39.5,68C 40.056,68.3826 40.3893,68.8826 40.5,69.5C 40.5,69.8333 40.5,70.1667 40.5,70.5C 38.8333,69.5 37.5,68.1667 36.5,66.5C 37.1667,65.8333 37.8333,65.1667 38.5,64.5 Z"/></g>
<g><path style="opacity:1" fill="#f0e8e8" d="M 69.5,65.5 C 70.8333,65.8333 72.1667,66.1667 73.5,66.5C 72.8561,69.144 71.1894,70.8106 68.5,71.5C 68.5,69.8333 68.5,68.1667 68.5,66.5C 69.1667,66.5 69.5,66.1667 69.5,65.5 Z"/></g>
<g><path style="opacity:0.529" fill="#fdfdfd" d="M 73.5,66.5 C 74.3446,70.033 72.6779,72.033 68.5,72.5C 68.5,72.1667 68.5,71.8333 68.5,71.5C 71.1894,70.8106 72.8561,69.144 73.5,66.5 Z"/></g>
<g><path style="opacity:1" fill="#8f5e51" d="M 51.5,66.5 C 51.5,67.5 51.5,68.5 51.5,69.5C 49.1667,69.5 46.8333,69.5 44.5,69.5C 43.1667,69.5 41.8333,69.5 40.5,69.5C 40.3893,68.8826 40.056,68.3826 39.5,68C 41.1341,67.5065 42.8008,67.3398 44.5,67.5C 46.861,67.3259 49.1944,66.9926 51.5,66.5 Z"/></g>
<g><path style="opacity:1" fill="#cb9480" d="M 59.5,64.5 C 59.4088,66.6977 60.0755,67.0311 61.5,65.5C 60.7866,68.5939 59.7866,71.5939 58.5,74.5C 58.1667,74.5 57.8333,74.5 57.5,74.5C 57.2172,73.7109 56.7172,73.0442 56,72.5C 55.7645,74.1193 54.9311,75.1193 53.5,75.5C 53.1658,72.812 53.8325,70.4786 55.5,68.5C 56.8333,67.1667 58.1667,65.8333 59.5,64.5 Z"/></g>
<g><path style="opacity:1" fill="#efeaeb" d="M 65.5,65.5 C 66.391,66.1098 67.391,66.4431 68.5,66.5C 68.5,68.1667 68.5,69.8333 68.5,71.5C 68.5,71.8333 68.5,72.1667 68.5,72.5C 68.5,73.1667 68.1667,73.5 67.5,73.5C 67.5,72.1667 67.5,70.8333 67.5,69.5C 66.5,69.5 65.5,69.5 64.5,69.5C 64.4326,68.0413 64.7659,66.7079 65.5,65.5 Z"/></g>
<g><path style="opacity:1" fill="#faf8f7" d="M 32.5,75.5 C 34.1667,76.1667 35.8333,76.8333 37.5,77.5C 38.1667,77.5 38.5,77.8333 38.5,78.5C 32.4411,77.554 27.2745,74.8873 23,70.5C 22.2599,69.2506 22.4265,68.2506 23.5,67.5C 25.7157,66.7974 27.549,65.4641 29,63.5C 29.5074,64.9961 29.0074,66.1627 27.5,67C 29.9033,69.5308 31.5699,72.3641 32.5,75.5 Z"/></g>
<g><path style="opacity:1" fill="#f2efed" d="M 28.5,62.5 C 29.5862,62.62 30.2528,63.2867 30.5,64.5C 29.4656,68.4724 30.4656,69.139 33.5,66.5C 33.2962,69.5176 32.9629,72.5176 32.5,75.5C 31.5699,72.3641 29.9033,69.5308 27.5,67C 29.0074,66.1627 29.5074,64.9961 29,63.5C 27.549,65.4641 25.7157,66.7974 23.5,67.5C 24.8333,65.5 26.5,63.8333 28.5,62.5 Z"/></g>
<g><path style="opacity:1" fill="#e5d7d0" d="M 61.5,65.5 C 61.8333,65.5 62.1667,65.5 62.5,65.5C 62.5,66.8333 62.5,68.1667 62.5,69.5C 61.596,70.209 61.2627,71.209 61.5,72.5C 60.7777,73.5511 59.7777,74.2178 58.5,74.5C 59.7866,71.5939 60.7866,68.5939 61.5,65.5 Z"/></g>
<g><path style="opacity:1" fill="#eeeae7" d="M 65.5,65.5 C 64.7659,66.7079 64.4326,68.0413 64.5,69.5C 64.1667,69.5 63.8333,69.5 63.5,69.5C 63.1667,69.5 62.8333,69.5 62.5,69.5C 62.5,68.1667 62.5,66.8333 62.5,65.5C 62.5,64.8333 62.5,64.1667 62.5,63.5C 64.1227,62.5092 65.1227,63.1759 65.5,65.5 Z"/></g>
<g><path style="opacity:1" fill="#ddd6d6" d="M 35.5,66.5 C 35.8333,66.5 36.1667,66.5 36.5,66.5C 37.5,68.1667 38.8333,69.5 40.5,70.5C 40.5,70.8333 40.5,71.1667 40.5,71.5C 39.5041,71.4142 38.6708,71.7476 38,72.5C 37.7216,71.5842 37.2216,70.9175 36.5,70.5C 35.5655,69.4324 35.2322,68.099 35.5,66.5 Z"/></g>
<g><path style="opacity:1" fill="#a47264" d="M 40.5,69.5 C 41.8333,69.5 43.1667,69.5 44.5,69.5C 42.9976,71.8293 43.6643,73.1627 46.5,73.5C 46.1583,74.3382 45.4916,74.6716 44.5,74.5C 43.1667,73.5 41.8333,72.5 40.5,71.5C 40.5,71.1667 40.5,70.8333 40.5,70.5C 40.5,70.1667 40.5,69.8333 40.5,69.5 Z"/></g>
<g><path style="opacity:1" fill="#ad7665" d="M 51.5,66.5 C 52.1667,66.5 52.8333,66.5 53.5,66.5C 53.5,66.8333 53.5,67.1667 53.5,67.5C 53.2132,70.4841 51.5465,71.8174 48.5,71.5C 46.7973,70.3398 46.1307,71.0065 46.5,73.5C 43.6643,73.1627 42.9976,71.8293 44.5,69.5C 46.8333,69.5 49.1667,69.5 51.5,69.5C 51.5,68.5 51.5,67.5 51.5,66.5 Z"/></g>
<g><path style="opacity:0.99" fill="#ebe7e5" d="M 62.5,69.5 C 62.8333,69.5 63.1667,69.5 63.5,69.5C 63.6287,71.2161 63.962,72.8828 64.5,74.5C 63.8333,74.8333 63.1667,75.1667 62.5,75.5C 61.8902,74.609 61.5569,73.609 61.5,72.5C 61.2627,71.209 61.596,70.209 62.5,69.5 Z"/></g>
<g><path style="opacity:0.989" fill="#eceae7" d="M 63.5,69.5 C 63.8333,69.5 64.1667,69.5 64.5,69.5C 65.5,69.5 66.5,69.5 67.5,69.5C 67.5,70.8333 67.5,72.1667 67.5,73.5C 66.609,74.1098 65.609,74.4431 64.5,74.5C 63.962,72.8828 63.6287,71.2161 63.5,69.5 Z"/></g>
<g><path style="opacity:1" fill="#bd8571" d="M 53.5,67.5 C 54.1667,67.8333 54.8333,68.1667 55.5,68.5C 53.8325,70.4786 53.1658,72.812 53.5,75.5C 53.5,76.1667 53.1667,76.5 52.5,76.5C 52.5594,74.2355 51.7261,73.9022 50,75.5C 47.2562,74.939 46.7562,73.6057 48.5,71.5C 51.5465,71.8174 53.2132,70.4841 53.5,67.5 Z"/></g>
<g><path style="opacity:1" fill="#ece9e9" d="M 33.5,66.5 C 34.1667,66.5 34.8333,66.5 35.5,66.5C 35.2322,68.099 35.5655,69.4324 36.5,70.5C 36.5,71.5 36.5,72.5 36.5,73.5C 36.8333,74.8333 37.1667,76.1667 37.5,77.5C 35.8333,76.8333 34.1667,76.1667 32.5,75.5C 32.9629,72.5176 33.2962,69.5176 33.5,66.5 Z"/></g>
<g><path style="opacity:1" fill="#ece9e7" d="M 36.5,73.5 C 39.3352,74.137 40.6685,75.637 40.5,78C 43.146,78.4974 45.8127,78.6641 48.5,78.5C 49.1667,78.8333 49.8333,79.1667 50.5,79.5C 50.44,80.0431 50.1067,80.3764 49.5,80.5C 45.8035,79.8321 42.1368,79.1654 38.5,78.5C 38.5,77.8333 38.1667,77.5 37.5,77.5C 37.1667,76.1667 36.8333,74.8333 36.5,73.5 Z"/></g>
<g><path style="opacity:1" fill="#e2dcdc" d="M 36.5,70.5 C 37.2216,70.9175 37.7216,71.5842 38,72.5C 38.6708,71.7476 39.5041,71.4142 40.5,71.5C 41.8333,72.5 43.1667,73.5 44.5,74.5C 44.9731,75.9063 45.9731,76.573 47.5,76.5C 47.8333,77.1667 48.1667,77.8333 48.5,78.5C 45.8127,78.6641 43.146,78.4974 40.5,78C 40.6685,75.637 39.3352,74.137 36.5,73.5C 36.5,72.5 36.5,71.5 36.5,70.5 Z"/></g>
<g><path style="opacity:0.737" fill="#e8ddd7" d="M 61.5,72.5 C 61.5569,73.609 61.8902,74.609 62.5,75.5C 60.2872,76.7729 57.9538,77.7729 55.5,78.5C 56.1667,77.1667 56.8333,75.8333 57.5,74.5C 57.8333,74.5 58.1667,74.5 58.5,74.5C 59.7777,74.2178 60.7777,73.5511 61.5,72.5 Z"/></g>
<g><path style="opacity:1" fill="#b38174" d="M 48.5,71.5 C 46.7562,73.6057 47.2562,74.939 50,75.5C 51.7261,73.9022 52.5594,74.2355 52.5,76.5C 50.8333,76.5 49.1667,76.5 47.5,76.5C 45.9731,76.573 44.9731,75.9063 44.5,74.5C 45.4916,74.6716 46.1583,74.3382 46.5,73.5C 46.1307,71.0065 46.7973,70.3398 48.5,71.5 Z"/></g>
<g><path style="opacity:1" fill="#b88678" d="M 57.5,74.5 C 56.8333,75.8333 56.1667,77.1667 55.5,78.5C 54.8333,78.5 54.1667,78.5 53.5,78.5C 53.1667,77.8333 52.8333,77.1667 52.5,76.5C 53.1667,76.5 53.5,76.1667 53.5,75.5C 54.9311,75.1193 55.7645,74.1193 56,72.5C 56.7172,73.0442 57.2172,73.7109 57.5,74.5 Z"/></g>
<g><path style="opacity:1" fill="#af8475" d="M 47.5,76.5 C 49.1667,76.5 50.8333,76.5 52.5,76.5C 52.8333,77.1667 53.1667,77.8333 53.5,78.5C 52.791,79.404 51.791,79.7373 50.5,79.5C 49.8333,79.1667 49.1667,78.8333 48.5,78.5C 48.1667,77.8333 47.8333,77.1667 47.5,76.5 Z"/></g>
</svg>
